<?xml version="1.0" encoding="UTF-8" standalone="no"?>
<!-- Generator: Adobe Illustrator 19.1.0, SVG Export Plug-In . SVG Version: 6.00 Build 0)  -->

<svg
   xmlns:dc="http://purl.org/dc/elements/1.1/"
   xmlns:cc="http://creativecommons.org/ns#"
   xmlns:rdf="http://www.w3.org/1999/02/22-rdf-syntax-ns#"
   xmlns:svg="http://www.w3.org/2000/svg"
   xmlns="http://www.w3.org/2000/svg"
   xmlns:sodipodi="http://sodipodi.sourceforge.net/DTD/sodipodi-0.dtd"
   xmlns:inkscape="http://www.inkscape.org/namespaces/inkscape"
   version="1.1"
   x="0px"
   y="0px"
   width="782.59998"
   height="366"
   viewBox="0 0 782.59998 366"
   xml:space="preserve"
   id="svg2"
   inkscape:version="0.91 r13725"
   sodipodi:docname="logo_ispup.svg"><metadata
     id="metadata59"><rdf:RDF><cc:Work
         rdf:about=""><dc:format>image/svg+xml</dc:format><dc:type
           rdf:resource="http://purl.org/dc/dcmitype/StillImage" /><dc:title></dc:title></cc:Work></rdf:RDF></metadata><defs
     id="defs57" /><sodipodi:namedview
     pagecolor="#ffffff"
     bordercolor="#666666"
     borderopacity="1"
     objecttolerance="10"
     gridtolerance="10"
     guidetolerance="10"
     inkscape:pageopacity="0"
     inkscape:pageshadow="2"
     inkscape:window-width="1366"
     inkscape:window-height="705"
     id="namedview55"
     showgrid="false"
     inkscape:zoom="0.63586177"
     inkscape:cx="558.84277"
     inkscape:cy="210.64265"
     inkscape:window-x="-8"
     inkscape:window-y="-8"
     inkscape:window-maximized="1"
     inkscape:current-layer="svg2" /><style
     type="text/css"
     id="style4">
	.st0{fill:#002F65;}
	.st1{fill:#E9413E;}
	.st2{fill-rule:evenodd;clip-rule:evenodd;fill:#002F65;}
</style><g
     id="Background"
     transform="translate(0,-31)" /><g
     id="Guides"
     transform="translate(0,-31)" /><g
     id="Foreground"
     transform="translate(-4.9000122,-11.8)"><g
       id="g9"><path
         class="st0"
         d="m 188.6,75.4 c 6.5,0 11.6,-5.2 11.6,-11.6 0,-6.5 -5.2,-11.8 -11.6,-11.8 -6.5,0 -11.6,5.4 -11.6,11.8 0,6.4 5.1,11.6 11.6,11.6 z"
         id="path11"
         inkscape:connector-curvature="0"
         style="fill:#002f65" /><path
         class="st0"
         d="m 189,133.3 c -6.5,0 -11.6,5.4 -11.6,11.8 0,6.5 5.2,11.6 11.6,11.6 6.5,0 11.6,-5.2 11.6,-11.6 0,-6.4 -5.1,-11.8 -11.6,-11.8 z"
         id="path13"
         inkscape:connector-curvature="0"
         style="fill:#002f65" /><path
         class="st0"
         d="m 118.8,174.6 c -6.5,0 -11.6,5.4 -11.6,11.8 0,6.5 5.4,11.6 11.8,11.6 6.5,0 11.6,-5.2 11.6,-11.6 0.1,-6.4 -5.3,-11.8 -11.8,-11.8 z"
         id="path15"
         inkscape:connector-curvature="0"
         style="fill:#002f65" /><path
         class="st0"
         d="m 130.2,104.9 c 0,-6.5 -5.2,-11.8 -11.6,-11.8 -6.5,0 -11.6,5.2 -11.6,11.6 0,6.5 5.2,11.8 11.6,11.8 6.5,0 11.6,-5.2 11.6,-11.6 z"
         id="path17"
         inkscape:connector-curvature="0"
         style="fill:#002f65" /><path
         class="st0"
         d="m 161.9,117.8 c 0,-6.5 -4.9,-12.1 -10.8,-12.1 -3,0 -4.5,0.9 -11.6,5 L 118.6,123 93.2,108.6 c -2.4,-1.3 -4.9,-2.2 -7.5,-2.2 -5.6,0 -10.8,4.5 -10.8,11.6 0,4.5 2.2,7.3 6,9.7 l 18.3,10.8 0,25.8 c 0,4.7 0.7,6.7 3.9,6.7 1.5,0 3,-0.6 4.9,-1.7 l 10.5,-6.4 9.9,6 c 2.6,1.5 4.5,1.9 5.6,1.9 2.8,0 3.2,-2.6 3.2,-7.3 l -0.4,-25 14.2,-8 c 8.3,-4.5 10.9,-7.8 10.9,-12.7 z"
         id="path19"
         inkscape:connector-curvature="0"
         style="fill:#002f65" /><path
         class="st0"
         d="m 144.9,77.8 c 0,4.5 2.2,7.5 6,9.9 l 18.3,10.6 0,26 c 0,4.7 0.6,6.7 3.9,6.7 1.5,0 3,-0.6 5,-1.7 l 10.5,-6.7 9.9,6 c 2.6,1.5 4.5,2.2 5.6,2.2 2.8,0 3.2,-2.6 3.2,-7.3 l -0.4,-25.2 14.2,-8 c 8.2,-4.5 10.8,-7.5 10.8,-12.5 0,-6.9 -5.2,-12.1 -10.8,-12.1 -3.2,0 -4.5,0.7 -11.6,4.7 L 188.6,82.9 163.2,68.3 c -2.4,-1.3 -4.9,-2.2 -7.5,-2.2 -5.7,0 -10.8,4.5 -10.8,11.7 z"
         id="path21"
         inkscape:connector-curvature="0"
         style="fill:#002f65" /><path
         class="st0"
         d="m 118.2,35.3 c 6.5,0 11.6,-5.2 11.6,-11.6 0,-6.5 -5.2,-11.9 -11.6,-11.9 -6.5,0 -11.6,5.4 -11.6,11.9 -0.1,6.5 5.1,11.6 11.6,11.6 z"
         id="path23"
         inkscape:connector-curvature="0"
         style="fill:#002f65" /><path
         class="st0"
         d="m 221.5,145.1 c -3,0 -4.3,0.9 -11.4,5 l -20.9,12.3 -25.4,-14.6 c -2.4,-1.3 -5.2,-1.9 -7.8,-1.9 -5.6,0 -10.8,4.3 -10.8,11.4 0,4.5 2.1,7.5 6,9.9 l 18.3,10.8 0,25.8 c 0,4.7 0.9,6.7 4.1,6.7 1.5,0 2.8,-0.7 4.7,-1.7 l 10.8,-6.7 9.7,6 c 2.6,1.5 4.5,2.2 5.6,2.2 2.8,0 3.2,-2.6 3.2,-7.3 l -0.2,-25.2 14.2,-7.8 c 8.2,-4.5 10.5,-7.7 10.5,-12.7 0.2,-6.6 -4.8,-12.2 -10.6,-12.2 z"
         id="path25"
         inkscape:connector-curvature="0"
         style="fill:#002f65" /><path
         class="st1"
         d="m 48.4,134.2 c -6.5,0 -11.6,5.2 -11.6,11.6 0,6.5 5.2,11.8 11.6,11.8 6.5,0 11.8,-5.4 11.8,-11.8 0,-6.5 -5.3,-11.6 -11.8,-11.6 z"
         id="path27"
         inkscape:connector-curvature="0"
         style="fill:#e9413e" /><path
         class="st1"
         d="m 81.1,172.3 c 8.2,-4.5 10.8,-7.8 10.8,-12.7 0,-6.5 -5,-12.1 -10.8,-12.1 -3,0 -4.5,0.9 -11.6,5 L 48.6,164.8 23.2,150.2 c -2.4,-1.3 -4.9,-1.9 -7.5,-1.9 -5.6,0 -10.8,4.3 -10.8,11.4 0,4.5 2.2,7.5 6,9.9 l 18.3,10.8 0,25.8 c 0,4.7 0.7,6.7 3.9,6.7 1.5,0 3,-0.6 4.9,-1.7 l 10.5,-6.7 9.9,6 c 2.6,1.5 4.3,2.1 5.4,2.1 2.8,0 3.4,-2.6 3.4,-7.3 L 66.9,180 81.1,172.3 Z"
         id="path29"
         inkscape:connector-curvature="0"
         style="fill:#e9413e" /><path
         class="st0"
         d="m 151.1,187.8 c -3,0 -4.5,0.9 -11.6,4.9 L 118.6,205 93.2,190.6 c -2.4,-1.3 -4.9,-2.1 -7.5,-2.1 -5.6,0 -10.8,4.3 -10.8,11.4 0,4.5 2.2,7.5 6,9.9 l 18.3,10.8 0,25.8 c 0,4.7 0.7,6.7 3.9,6.7 1.5,0 3,-0.7 4.9,-1.7 l 10.5,-6.5 9.9,6 c 2.6,1.5 4.5,1.9 5.6,1.9 2.8,0 3.2,-2.6 3.2,-7.3 l -0.4,-25 14.2,-8 c 8.2,-4.5 10.8,-7.7 10.8,-12.7 0.1,-6.4 -4.9,-12 -10.7,-12 z"
         id="path31"
         inkscape:connector-curvature="0"
         style="fill:#002f65" /><path
         class="st0"
         d="M 48.4,76 C 54.9,76 60,70.9 60,64.4 60,57.9 54.8,52.8 48.4,52.8 41.9,52.8 36.6,58 36.6,64.4 36.6,70.9 41.9,76 48.4,76 Z"
         id="path33"
         inkscape:connector-curvature="0"
         style="fill:#002f65" /><path
         class="st0"
         d="m 80.9,47 18.3,10.8 0,25.6 c 0,4.7 0.6,6.7 3.9,6.7 1.5,0 3,-0.6 5,-1.7 l 10.5,-6.5 9.9,6 c 2.6,1.5 4.5,2.1 5.6,2.1 2.8,0 3.2,-2.8 3.2,-7.5 l 0,-25.2 13.8,-7.5 c 8.2,-4.5 10.8,-7.7 10.8,-12.7 0,-6.5 -4.9,-12.1 -10.8,-12.1 -3,0 -4.5,0.9 -11.6,4.9 L 118.6,42.2 93.2,27.6 c -2.4,-1.3 -4.9,-1.9 -7.5,-1.9 -5.6,0 -10.8,4.3 -10.8,11.4 0,4.5 2.1,7.5 6,9.9 z"
         id="path35"
         inkscape:connector-curvature="0"
         style="fill:#002f65" /><path
         class="st0"
         d="m 11.2,87.6 18.3,10.8 0,25.8 c 0,4.7 0.7,6.7 3.9,6.7 1.5,0 3,-0.6 5,-1.7 l 10.5,-6.7 9.9,6 c 2.6,1.5 4.5,2.2 5.6,2.2 2.8,0 3.2,-2.6 3.2,-7.3 L 67.4,98.2 81.6,90.4 c 8.2,-4.5 10.6,-7.8 10.6,-12.7 0,-6.7 -5,-12.1 -10.8,-12.1 -3,0 -4.5,0.9 -11.6,5 L 48.8,82.9 23.4,68.3 C 21,67 18.5,66.4 15.9,66.4 c -5.6,0 -10.8,4.3 -10.8,11.4 0,4.5 2.2,7.5 6.1,9.8 z"
         id="path37"
         inkscape:connector-curvature="0"
         style="fill:#002f65" /><rect
         x="283"
         y="107.8"
         class="st0"
         width="28.9"
         height="152.3"
         id="rect39"
         style="fill:#002f65" /><path
         class="st0"
         d="m 419.9,133.2 c -5.3,-2.6 -24.3,-10.4 -41.9,-10.4 -12.2,0 -20.8,6.2 -20.8,15.7 0,29.8 74.4,31.6 74.4,78.8 0,33.1 -24.7,45.3 -57.4,45.3 -18.3,0 -35.8,-5.3 -41.3,-6.8 l 0,-26.9 c 11.7,7.3 28.7,16.3 45.9,16.3 9.7,0 23.8,-4.2 23.8,-18.5 0,-34.4 -72.2,-33.8 -72.2,-81.9 0,-24.5 18.5,-39.3 51.4,-39.3 16.1,0 32.2,3.1 38,4.2 l 0,23.5 z"
         id="path41"
         inkscape:connector-curvature="0"
         style="fill:#002f65" /><path
         class="st0"
         d="m 448.2,260.1 28.9,0 0,-66.2 7.3,0 c 24.1,0 60.5,-3.5 60.5,-43.9 0,-35.1 -25.2,-42.2 -60.5,-42.2 l -36.2,0 0,152.3 z m 28.9,-136.2 7.3,0 c 20.5,0 31.6,4.6 31.6,25.8 0,24.5 -15,28 -31.6,28 l -7.3,0 0,-53.8 z"
         id="path43"
         inkscape:connector-curvature="0"
         style="fill:#002f65" /><path
         class="st0"
         d="m 665.6,208.3 c 0,27.2 -5.7,54.3 -55.4,54.3 -49,0 -54.8,-27.1 -54.8,-54.3 l 0,-100.5 28.9,0 0,100.4 c 0,23.8 3.8,39.7 25.8,39.7 23.4,0 26.5,-15.9 26.5,-39.7 l 0,-100.4 28.9,0 0,100.5 z"
         id="path45"
         inkscape:connector-curvature="0"
         style="fill:#002f65" /><path
         class="st0"
         d="m 690.8,260.1 28.9,0 0,-66.2 7.3,0 c 24.1,0 60.5,-3.5 60.5,-43.9 0,-35.1 -25.2,-42.2 -60.5,-42.2 l -36.2,0 0,152.3 z m 28.9,-136.2 7.3,0 c 20.5,0 31.6,4.6 31.6,25.8 0,24.5 -15,28 -31.6,28 l -7.3,0 0,-53.8 z"
         id="path47"
         inkscape:connector-curvature="0"
         style="fill:#002f65" /><path
         class="st2"
         d="m 578.4,374 0,-22.2 1.3,0 c 5.3,0 9.4,1.2 9.4,11.5 0,8.3 -2.9,10.7 -9.4,10.7 l -1.3,0 z m 27.5,0.6 c -5.3,0 -6.1,-7.6 -6.1,-11.4 0,-6.2 1.3,-11.7 5.9,-11.7 4.3,0 6,5.5 6,11.7 0,1.5 0,4.4 -0.8,7 -0.7,2.4 -2.2,4.4 -5,4.4 z m 27.4,-12.9 0,-9.8 1.4,0 c 2.8,0 6.8,0.3 6.8,5 0,4.4 -3.3,4.8 -6.8,4.8 l -1.4,0 z m 24,12.9 c -5.3,0 -6.1,-7.6 -6.1,-11.4 0,-6.2 1.4,-11.7 5.9,-11.7 4.3,0 6,5.5 6,11.7 0,1.5 0,4.4 -0.8,7 -0.8,2.4 -2.2,4.4 -5,4.4 z m 17.8,-13 0,-9.7 2.1,0 c 3.3,0 5.9,0.9 5.9,4.8 0,3.9 -3.6,4.9 -7.1,4.9 l -0.9,0 z m 40.8,13 c -5.3,0 -6.1,-7.6 -6.1,-11.4 0,-6.2 1.4,-11.7 5.9,-11.7 4.3,0 6,5.5 6,11.7 0,1.5 0,4.4 -0.8,7 -0.8,2.4 -2.2,4.4 -5,4.4 z m -10.2,-11.7 c 0,6.4 1.6,14.8 10.1,14.8 8.7,0 9.9,-8.4 9.9,-14.8 0,-7.2 -2.3,-14.7 -9.9,-14.7 -7.9,0 -10.1,7.5 -10.1,14.7 z m -10.1,-11.1 0,25.5 3.8,0 0,-25.5 6.4,0 0,-3.2 -16.7,0 0,3.2 6.5,0 z m -8.4,4.7 c 0,-6.6 -5.4,-7.9 -9.7,-7.9 l -6.1,0 0,28.7 3.8,0 0,-12.5 1.3,0 c 4.6,0 5.4,1.7 6,5 l 1.5,7.5 3.9,0 -1.7,-8.2 c -0.6,-3 -1.3,-5 -3.5,-6 2.1,-0.8 4.5,-2.7 4.5,-6.6 z m -40.1,6.4 c 0,6.4 1.6,14.8 10.1,14.8 8.7,0 9.9,-8.4 9.9,-14.8 0,-7.2 -2.3,-14.7 -9.9,-14.7 -7.9,0 -10.1,7.5 -10.1,14.7 z m -17.6,-14.2 0,28.7 3.8,0 0,-12.5 2.3,0 c 4.3,0 9.9,-1 9.9,-8 0,-7 -5.6,-8.2 -9.9,-8.2 l -6.1,0 z m -33.7,14.2 c 0,6.4 1.6,14.8 10.1,14.8 8.7,0 9.9,-8.4 9.9,-14.8 0,-7.2 -2.3,-14.7 -9.9,-14.7 -7.9,0 -10.1,7.5 -10.1,14.7 z m -21.3,-14.2 0,28.7 5.8,0 c 10.5,0 12.7,-6.8 12.7,-14.3 0,-12 -6.1,-14.3 -13.2,-14.3 l -5.3,0 z"
         id="path49"
         inkscape:connector-curvature="0"
         style="clip-rule:evenodd;fill:#002f65;fill-rule:evenodd" /><path
         class="st2"
         d="m 435.5,361.6 0,-9.7 2.1,0 c 3.3,0 5.9,0.9 5.9,4.8 0,3.9 -3.6,4.9 -7.1,4.9 l -0.9,0 z m 49.1,12.4 0,-22.2 1.3,0 c 5.3,0 9.4,1.2 9.4,11.5 0,8.3 -2.9,10.7 -9.4,10.7 l -1.3,0 z m 30,-8.9 -7.1,0 3.5,-11.1 3.6,11.1 z m 13.9,8.9 0,-22.2 1.3,0 c 5.3,0 9.4,1.2 9.4,11.5 0,8.3 -2.9,10.7 -9.4,10.7 l -1.3,0 z m 18.9,-25.3 0,28.7 13.8,0 0,-3.4 -10,0 0,-10 9.2,0 0,-3.2 -9.2,0 0,-8.9 9.6,0 0,-3.2 -13.4,0 z m -22.7,0 0,28.7 5.8,0 c 10.6,0 12.8,-6.8 12.8,-14.3 0,-12 -6.1,-14.3 -13.2,-14.3 l -5.4,0 z m -15.3,0 -9.3,28.7 3.4,0 3,-9.1 9.2,0 3,9.1 3.9,0 -9.3,-28.7 -3.9,0 z m -28.7,0 0,28.7 5.8,0 c 10.5,0 12.8,-6.8 12.8,-14.3 0,-12 -6.1,-14.3 -13.2,-14.3 l -5.4,0 z m -9.5,0 0,28.7 3.8,0 0,-28.7 -3.8,0 z m -5.2,4.6 0,-4.3 c -2.1,-0.5 -3.9,-0.8 -6.1,-0.8 -5.4,0 -9,2.9 -9,7.5 0,5 3.7,6.7 7.4,8.6 2.3,1.2 5.2,2.3 5.2,5.4 0,3.3 -2.4,4.7 -5.5,4.7 -2.5,0 -4.7,-0.9 -6.9,-1.9 l 0,4.4 c 2.2,0.5 4.5,0.8 6.7,0.8 4.7,0 9.7,-2.2 9.7,-8.3 0,-4.2 -2.1,-5.8 -4.8,-7.5 -2.5,-1.5 -4.5,-2.3 -6,-3.3 -1.3,-0.9 -2,-1.8 -2,-3.5 0,-2.1 1.6,-3.7 4.6,-3.7 2.5,0 4.6,1 6.7,1.9 z m -18.5,3.2 c 0,-6.6 -5.4,-7.9 -9.7,-7.9 l -6.1,0 0,28.7 3.8,0 0,-12.5 1.3,0 c 4.6,0 5.4,1.7 6,5 l 1.5,7.5 3.9,0 -1.7,-8.2 c -0.6,-3 -1.3,-5 -3.5,-6 2.2,-0.8 4.5,-2.7 4.5,-6.6 z m -33.5,-7.8 0,28.7 13.8,0 0,-3.4 -10,0 0,-10 9.2,0 0,-3.2 -9.2,0 0,-8.9 9.7,0 0,-3.2 -13.5,0 z m -20.2,0 -4,0 9.5,28.7 4.2,0 9.4,-28.7 -3.8,0 -7.5,23.3 -7.8,-23.3 z m -9,0 0,28.7 3.8,0 0,-28.7 -3.8,0 z m -10,28.6 4.4,0 0,-28.7 -3.6,0 0,22.4 -10.8,-22.3 -4.2,0 0,28.7 3.6,0 0,-22.1 10.6,22 z m -19.6,-9.7 0,-18.9 -3.8,0 0,18.2 c 0,3.7 -0.5,7.7 -5.3,7.7 -4.8,0 -5.4,-4 -5.4,-7.7 l 0,-18.2 -3.8,0 0,18.9 c 0,4.9 1.9,10.2 9,10.2 7.1,0 9.3,-5.3 9.3,-10.2 z m -67.8,6.4 0,-22.2 1.3,0 c 5.3,0 9.4,1.2 9.4,11.5 0,8.3 -2.9,10.7 -9.4,10.7 l -1.3,0 z m 30,-8.9 -7.1,0 3.6,-11.1 3.5,11.1 z m -5.2,-16.4 -9.3,28.7 3.4,0 3,-9.1 9.2,0 3,9.1 3.9,0 -9.3,-28.7 -3.9,0 z m -28.6,0 0,28.7 5.8,0 c 10.5,0 12.8,-6.8 12.8,-14.3 0,-12 -6.1,-14.3 -13.2,-14.3 l -5.4,0 z"
         id="path51"
         inkscape:connector-curvature="0"
         style="clip-rule:evenodd;fill:#002f65;fill-rule:evenodd" /><path
         class="st2"
         d="m 612.8,318.8 0,-9.8 1.4,0 c 2.8,0 6.8,0.2 6.8,5.1 0,4.4 -3.3,4.8 -6.8,4.8 l -1.4,0 z m 24.2,-21 -2.1,6.1 3.5,0 3.1,-6.1 -4.5,0 z m 18.3,33.4 0,-10 3.1,0 c 2.1,0 5.4,1.1 5.4,5.1 0,3.5 -2.5,4.9 -5.6,4.9 l -2.9,0 z m 0,-13.2 0,-9 2.9,0 c 2.7,0 4.5,1.3 4.5,4.2 0,3.6 -2.7,4.7 -5.9,4.7 l -1.5,0 z m 73.2,4.2 -7.1,0 3.6,-11.1 3.5,11.1 z m -5.2,-16.4 -9.3,28.7 3.4,0 3,-9.1 9.2,0 3,9.1 3.9,0 -9.3,-28.7 -3.9,0 z m -9.7,27 0,-4.4 c -2.2,1.8 -3.7,3.3 -6.8,3.3 -5.1,0 -7.3,-5.4 -7.3,-12.6 0,-4 0.8,-10.6 6.2,-10.6 3.5,0 4.7,2.7 4.7,5.3 l 0,0.7 4.4,0 0,-0.7 c 0,-4.6 -3.4,-8.5 -9,-8.5 -9,0 -10.3,9.6 -10.3,14.1 0,8.5 3.2,15.4 11.1,15.4 2.6,0.1 4.8,-0.5 7,-2 z m -26.2,-27 0,28.7 3.8,0 0,-28.7 -3.8,0 z m -15.4,0 0,28.7 13.4,0 0,-3.3 -9.6,0 0,-25.4 -3.8,0 z m -5.4,7.4 c 0,-6.9 -6.1,-7.4 -8.8,-7.4 l -6.3,0 0,28.7 7.3,0 c 5.2,0 9.1,-2.7 9.1,-8.2 0,-3.6 -2.2,-6 -4.5,-7 1.7,-1.1 3.2,-3.1 3.2,-6.1 z m -20.5,11.5 0,-18.9 -3.8,0 0,18.2 c 0,3.7 -0.6,7.7 -5.3,7.7 -4.8,0 -5.4,-4 -5.4,-7.7 l 0,-18.2 -3.8,0 0,18.9 c 0,4.9 1.9,10.2 9,10.2 7.1,0 9.3,-5.2 9.3,-10.2 z m -37.2,-18.9 0,28.7 3.8,0 0,-12.5 2.3,0 c 4.3,0 9.9,-1 9.9,-8 0,-7 -5.6,-8.2 -9.9,-8.2 l -6.1,0 z m -83.4,16.4 -7.1,0 3.6,-11.1 3.5,11.1 z m 19.2,-24.4 -2.1,6.1 3.5,0 3.1,-6.1 -4.5,0 z m 18.2,33.4 0,-22.2 1.3,0 c 5.3,0 9.4,1.2 9.4,11.5 0,8.3 -2.9,10.7 -9.4,10.7 l -1.3,0 z m 18.9,-25.4 0,28.7 13.8,0 0,-3.3 -10,0 0,-10.1 9.2,0 0,-3.2 -9.2,0 0,-8.9 9.7,0 0,-3.2 -13.5,0 z m -22.7,0 0,28.7 5.8,0 c 10.5,0 12.8,-6.8 12.8,-14.3 0,-12 -6.1,-14.3 -13.2,-14.3 l -5.4,0 z m -5.3,18.9 0,-18.9 -3.8,0 0,18.2 c 0,3.6 -0.6,7.7 -5.3,7.7 -4.8,0 -5.4,-4 -5.4,-7.7 l 0,-18.2 -3.8,0 0,18.9 c 0,4.9 1.9,10.2 9,10.2 7.1,0 9.3,-5.2 9.3,-10.2 z m -33.5,-18.9 -9.3,28.7 3.4,0 3,-9.1 9.2,0 3,9.1 3.9,0 -9.3,-28.7 -3.9,0 z m -11.1,4.7 0,-4.3 c -2.1,-0.5 -3.9,-0.8 -6.1,-0.8 -5.4,0 -9,2.9 -9,7.4 0,5 3.7,6.7 7.4,8.6 2.3,1.2 5.2,2.3 5.2,5.4 0,3.3 -2.4,4.7 -5.5,4.7 -2.5,0 -4.7,-0.9 -6.9,-1.9 l 0,4.4 c 2.2,0.6 4.5,0.8 6.7,0.8 4.7,0 9.7,-2.2 9.7,-8.3 0,-4.2 -2.1,-5.8 -4.8,-7.5 -2.5,-1.5 -4.5,-2.3 -6,-3.3 -1.3,-0.9 -2,-1.8 -2,-3.5 0,-2.1 1.6,-3.7 4.6,-3.7 2.4,0.1 4.6,1 6.7,2 z m -40.2,-4.7 0,28.7 13.8,0 0,-3.3 -10,0 0,-10.1 9.2,0 0,-3.2 -9.2,0 0,-8.9 9.7,0 0,-3.2 -13.5,0 z m -18.9,25.4 0,-22.2 1.3,0 c 5.3,0 9.4,1.2 9.4,11.5 0,8.3 -2.9,10.7 -9.4,10.7 l -1.3,0 z m -3.8,-25.4 0,28.7 5.8,0 c 10.5,0 12.7,-6.8 12.7,-14.3 0,-12 -6.1,-14.3 -13.2,-14.3 l -5.3,0 z m -23.6,25.9 c -5.3,0 -6.1,-7.6 -6.1,-11.5 0,-6.2 1.4,-11.7 5.9,-11.7 4.3,0 6,5.5 6,11.7 0,1.5 0,4.4 -0.8,7 -0.8,2.6 -2.2,4.5 -5,4.5 z m -10.2,-11.6 c 0,6.4 1.6,14.8 10.1,14.8 8.7,0 9.9,-8.4 9.9,-14.8 0,-7.2 -2.3,-14.7 -9.9,-14.7 -7.8,0 -10.1,7.5 -10.1,14.7 z m -10.1,-11.1 0,25.5 3.8,0 0,-25.5 6.4,0 0,-3.2 -16.7,0 0,3.2 6.5,0 z m -8.4,15.7 0,-18.9 -3.8,0 0,18.2 c 0,3.7 -0.6,7.7 -5.3,7.7 -4.8,0 -5.4,-4 -5.4,-7.7 l 0,-18.2 -3.8,0 0,18.9 c 0,4.9 1.9,10.2 9,10.2 7.1,0 9.3,-5.2 9.3,-10.2 z m -30.5,-15.7 0,25.5 3.8,0 0,-25.5 6.4,0 0,-3.2 -16.7,0 0,3.2 6.5,0 z m -12.5,-3.2 0,28.7 3.8,0 0,-28.7 -3.8,0 z m -12.4,3.2 0,25.5 3.8,0 0,-25.5 6.4,0 0,-3.2 -16.7,0 0,3.2 6.5,0 z m -8.2,1.5 0,-4.3 c -2.1,-0.5 -3.9,-0.8 -6.1,-0.8 -5.4,0 -9,2.9 -9,7.4 0,5 3.7,6.7 7.4,8.6 2.3,1.2 5.2,2.3 5.2,5.4 0,3.3 -2.4,4.7 -5.5,4.7 -2.5,0 -4.7,-0.9 -6.9,-1.9 l 0,4.4 c 2.2,0.6 4.5,0.8 6.7,0.8 4.7,0 9.7,-2.2 9.7,-8.3 0,-4.2 -2.1,-5.8 -4.8,-7.5 -2.5,-1.5 -4.5,-2.3 -6,-3.3 -1.3,-0.9 -2,-1.8 -2,-3.5 0,-2.1 1.6,-3.7 4.6,-3.7 2.5,0.1 4.6,1 6.7,2 z m -23,24 4.4,0 0,-28.7 -3.6,0 0,22.3 -10.8,-22.3 -4.2,0 0,28.7 3.6,0 0,-22.1 10.6,22.1 z m -23.8,-28.7 0,28.7 3.8,0 0,-28.7 -3.8,0 z"
         id="path53"
         inkscape:connector-curvature="0"
         style="clip-rule:evenodd;fill:#002f65;fill-rule:evenodd" /></g></g></svg>