<?xml version="1.0" encoding="UTF-8" standalone="no"?>
<!-- Created with Inkscape (http://www.inkscape.org/) -->

<svg
   xmlns:dc="http://purl.org/dc/elements/1.1/"
   xmlns:cc="http://creativecommons.org/ns#"
   xmlns:rdf="http://www.w3.org/1999/02/22-rdf-syntax-ns#"
   xmlns:svg="http://www.w3.org/2000/svg"
   xmlns="http://www.w3.org/2000/svg"
   xmlns:xlink="http://www.w3.org/1999/xlink"
   xmlns:sodipodi="http://sodipodi.sourceforge.net/DTD/sodipodi-0.dtd"
   xmlns:inkscape="http://www.inkscape.org/namespaces/inkscape"
   width="104.91"
   height="33.803001"
   viewBox="0 0 104.91 33.803002"
   id="svg3592"
   version="1.1"
   inkscape:version="0.91 r13725"
   sodipodi:docname="logo_sns.svg">
  <defs
     id="defs3594">
    <linearGradient
       inkscape:collect="always"
       xlink:href="#linearGradient3538"
       id="linearGradient16875"
       gradientUnits="userSpaceOnUse"
       gradientTransform="matrix(28.388821,16.288647,16.288647,-28.388821,135.58861,604.30231)"
       spreadMethod="pad"
       x1="0"
       y1="0"
       x2="1"
       y2="0" />
    <linearGradient
       id="linearGradient3538"
       spreadMethod="pad"
       gradientTransform="matrix(28.388821,16.288647,16.288647,-28.388821,135.58861,604.30231)"
       gradientUnits="userSpaceOnUse"
       y2="0"
       x2="1"
       y1="0"
       x1="0">
      <stop
         id="stop3540"
         offset="0"
         style="stop-opacity:1;stop-color:#cd190f" />
      <stop
         id="stop3542"
         offset="1"
         style="stop-opacity:1;stop-color:#831216" />
    </linearGradient>
    <linearGradient
       inkscape:collect="always"
       xlink:href="#linearGradient3558"
       id="linearGradient16877"
       gradientUnits="userSpaceOnUse"
       gradientTransform="matrix(17.390493,15.430994,15.430994,-17.390493,95.921021,572.17151)"
       spreadMethod="pad"
       x1="0"
       y1="0"
       x2="1"
       y2="0" />
    <linearGradient
       id="linearGradient3558"
       spreadMethod="pad"
       gradientTransform="matrix(17.390493,15.430994,15.430994,-17.390493,95.921021,572.17151)"
       gradientUnits="userSpaceOnUse"
       y2="0"
       x2="1"
       y1="0"
       x1="0">
      <stop
         id="stop3560"
         offset="0"
         style="stop-opacity:1;stop-color:#006c33" />
      <stop
         id="stop3562"
         offset="0.7"
         style="stop-opacity:1;stop-color:#089149" />
      <stop
         id="stop3564"
         offset="1"
         style="stop-opacity:1;stop-color:#089149" />
    </linearGradient>
    <linearGradient
       inkscape:collect="always"
       xlink:href="#linearGradient3580"
       id="linearGradient16879"
       gradientUnits="userSpaceOnUse"
       gradientTransform="matrix(56.498615,37.556923,37.556923,-56.498615,99.195229,579.9873)"
       spreadMethod="pad"
       x1="0"
       y1="0"
       x2="1"
       y2="0" />
    <linearGradient
       id="linearGradient3580"
       spreadMethod="pad"
       gradientTransform="matrix(56.498615,37.556923,37.556923,-56.498615,99.195229,579.9873)"
       gradientUnits="userSpaceOnUse"
       y2="0"
       x2="1"
       y1="0"
       x1="0">
      <stop
         id="stop3582"
         offset="0"
         style="stop-opacity:1;stop-color:#007e38" />
      <stop
         id="stop3584"
         offset="0.16096424"
         style="stop-opacity:1;stop-color:#ebbc2a" />
      <stop
         id="stop3586"
         offset="0.5"
         style="stop-opacity:1;stop-color:#ebbc2a" />
      <stop
         id="stop3588"
         offset="0.70026856"
         style="stop-opacity:1;stop-color:#ebbc2a" />
      <stop
         id="stop3590"
         offset="1"
         style="stop-opacity:1;stop-color:#cd190f" />
    </linearGradient>
  </defs>
  <sodipodi:namedview
     id="base"
     pagecolor="#ffffff"
     bordercolor="#666666"
     borderopacity="1.0"
     inkscape:pageopacity="0.0"
     inkscape:pageshadow="2"
     inkscape:zoom="4.3155611"
     inkscape:cx="16.189826"
     inkscape:cy="17.948425"
     inkscape:document-units="px"
     inkscape:current-layer="layer1"
     showgrid="false"
     units="px"
     inkscape:window-width="1366"
     inkscape:window-height="705"
     inkscape:window-x="-8"
     inkscape:window-y="-8"
     inkscape:window-maximized="1" />
  <metadata
     id="metadata3597">
    <rdf:RDF>
      <cc:Work
         rdf:about="">
        <dc:format>image/svg+xml</dc:format>
        <dc:type
           rdf:resource="http://purl.org/dc/dcmitype/StillImage" />
        <dc:title></dc:title>
      </cc:Work>
    </rdf:RDF>
  </metadata>
  <g
     inkscape:label="Camada 1"
     inkscape:groupmode="layer"
     id="layer1"
     transform="translate(0,-1018.5592)">
    <g
       transform="matrix(0.50440486,0,0,-0.50440486,-46.64875,1337.4489)"
       id="g4995">
      <g
         transform="translate(173.8946,565.1941)"
         id="g3522">
        <path
           inkscape:connector-curvature="0"
           id="path3524"
           style="fill:#504f51;fill-opacity:1;fill-rule:nonzero;stroke:none"
           d="m 0,0 -0.633,0 0,66.607 L 0,66.581 0,0 Z" />
      </g>
      <g
         id="g3526">
        <g
           id="g3528">
          <g
             id="g3534">
            <g
               id="g3536">
              <path
                 inkscape:connector-curvature="0"
                 id="path3544"
                 style="fill:url(#linearGradient16875);stroke:none"
                 d="m 94.271,609.462 c 2.044,0.907 18.311,13.579 35.139,3.663 l 0,0 c 26.021,-14.74 11.015,-41.555 9.855,-44.932 l 0,0 c 11.704,5.168 19.861,16.875 19.861,30.489 l 0,0 c 0.002,18.41 -14.91,33.338 -33.328,33.338 l 0,0 c -14.626,10e-4 -27.056,-9.444 -31.527,-22.558" />
            </g>
          </g>
        </g>
      </g>
      <g
         id="g3546">
        <g
           id="g3548">
          <g
             id="g3554">
            <g
               id="g3556">
              <path
                 inkscape:connector-curvature="0"
                 id="path3566"
                 style="fill:url(#linearGradient16877);stroke:none"
                 d="m 92.483,598.704 c 0,-18.415 14.927,-33.338 33.338,-33.338 l 0,0 c 14.632,0 27.052,9.438 31.531,22.55 l 0,0 c -2.043,-0.902 -26.101,-16.626 -43.478,-1.954 l 0,0 c -7.722,6.523 -8.032,17.419 -6.338,28.177 l 0,0 c 1.412,8.916 3.657,11.68 4.811,15.05 l 0,0 c -11.69,-5.172 -19.864,-16.871 -19.864,-30.485" />
            </g>
          </g>
        </g>
      </g>
      <g
         id="g3568">
        <g
           id="g3570">
          <g
             id="g3576">
            <g
               id="g3578">
              <path
                 inkscape:connector-curvature="0"
                 id="path3592"
                 style="fill:url(#linearGradient16879);stroke:none"
                 d="m 109.67,609.419 c -6.418,-7.965 -5.966,-18.222 -11.302,-19.066 l 0,0 c -2.081,-0.327 -5.506,1.5 -5.836,7.121 l 0,0 c 0.515,-14.654 10.506,-26.894 24.029,-30.802 l 0,0 c -3.166,4.37 -4.348,6.533 -4.348,12.361 l 0,0 c -0.002,14.602 11.692,25.37 25.844,26.66 l 0,0 c 11.012,1.001 16.294,-1.419 21.047,-8.133 l 0,0 c 0.015,0.358 0.024,0.771 0.024,1.136 l 0,0 c 0,9.277 -3.742,17.661 -9.891,23.688 l 0,0 c -0.805,0.793 -4.483,1.9 -9.586,1.9 l 0,0 c -8.291,10e-4 -20.348,-2.922 -29.981,-14.865" />
            </g>
          </g>
        </g>
      </g>
      <g
         transform="translate(173.8946,565.1941)"
         id="g3602">
        <path
           inkscape:connector-curvature="0"
           id="path3604"
           style="fill:#504f51;fill-opacity:1;fill-rule:nonzero;stroke:none"
           d="m 0,0 -0.633,0 0,66.607 L 0,66.581 0,0 Z" />
      </g>
      <g
         transform="translate(197.9143,600.56)"
         id="g3606">
        <path
           inkscape:connector-curvature="0"
           id="path3608"
           style="fill:#504f51;fill-opacity:1;fill-rule:nonzero;stroke:none"
           d="m 0,0 c -2.313,0 -4.348,0.6 -6.066,1.788 l 0,-0.035 -1.036,0.804 c -2.053,1.7 -2.676,4.551 -2.848,5.698 l -0.089,0.587 4.906,1.066 0.126,-0.631 C -4.866,8.574 -3.965,5.07 0,5.07 c 2.122,0 3.377,1.043 3.948,1.686 0.445,0.656 0.778,1.588 0.778,2.183 0,0.742 -0.151,1.336 -0.404,1.589 L 4.275,10.58 c -0.429,0.536 -2.767,2.171 -3.722,2.837 -0.51,0.221 -1.228,0.781 -1.614,1.203 -3.268,2.161 -5.456,3.735 -6.263,4.888 -0.882,1.352 -1.401,2.903 -1.401,4.168 0,1.909 0.823,3.9 2.257,5.465 2.033,2.091 4.165,2.509 6.95,2.509 1.923,0 3.867,-0.672 5.623,-1.942 1.606,-1.262 2.886,-3.542 3.358,-5.965 L 9.582,23.135 4.65,22.064 4.524,22.694 c -0.421,2.107 -2.272,3.886 -4.042,3.886 -2.072,0 -2.69,-0.285 -3.29,-0.925 -0.245,-0.247 -0.847,-1.042 -0.847,-1.926 0,-0.288 0.341,-0.943 0.514,-1.261 C -1.873,21.351 -0.55,20.437 0.73,19.552 1.341,19.13 1.94,18.716 2.518,18.291 4.707,16.742 7.129,14.986 8.05,13.835 9.147,12.507 9.747,10.634 9.688,8.705 9.689,6.993 8.961,4.966 7.835,3.56 6.321,1.917 3.762,0 0,0" />
      </g>
      <g
         transform="translate(233.5947,600.7206)"
         id="g3610">
        <path
           inkscape:connector-curvature="0"
           id="path3612"
           style="fill:#504f51;fill-opacity:1;fill-rule:nonzero;stroke:none"
           d="m 0,0 -4.41,0 -13.167,20.797 0,-20.797 -5.017,0 0,31.221 4.41,0 13.06,-20.586 0,20.586 5.124,0 L 0,0 Z" />
      </g>
      <g
         transform="translate(246.7352,600.56)"
         id="g3614">
        <path
           inkscape:connector-curvature="0"
           id="path3616"
           style="fill:#504f51;fill-opacity:1;fill-rule:nonzero;stroke:none"
           d="m 0,0 c -2.313,0 -4.348,0.6 -6.066,1.788 l 0,-0.035 -1.036,0.804 c -2.053,1.7 -2.676,4.551 -2.848,5.698 l -0.089,0.587 4.906,1.066 0.126,-0.631 C -4.866,8.574 -3.965,5.07 0,5.07 c 2.122,0 3.377,1.043 3.948,1.686 0.445,0.656 0.778,1.588 0.778,2.183 0,0.742 -0.151,1.336 -0.404,1.589 L 4.275,10.58 c -0.429,0.536 -2.767,2.171 -3.722,2.837 -0.51,0.221 -1.228,0.781 -1.614,1.203 -3.268,2.161 -5.456,3.735 -6.263,4.888 -0.882,1.352 -1.401,2.903 -1.401,4.168 0,1.909 0.823,3.9 2.257,5.465 2.033,2.091 4.165,2.509 6.95,2.509 1.923,0 3.867,-0.672 5.623,-1.942 1.606,-1.262 2.886,-3.542 3.358,-5.965 L 9.582,23.135 4.65,22.064 4.524,22.694 c -0.421,2.107 -2.272,3.886 -4.042,3.886 -2.072,0 -2.69,-0.285 -3.29,-0.925 -0.245,-0.247 -0.847,-1.042 -0.847,-1.926 0,-0.288 0.341,-0.943 0.514,-1.261 C -1.873,21.351 -0.55,20.437 0.73,19.552 1.341,19.13 1.94,18.716 2.518,18.291 4.707,16.742 7.129,14.986 8.05,13.835 9.147,12.507 9.747,10.634 9.688,8.705 9.689,6.993 8.961,4.966 7.835,3.56 6.321,1.917 3.762,0 0,0" />
      </g>
      <g
         transform="translate(193.2801,592.6161)"
         id="g3618">
        <path
           inkscape:connector-curvature="0"
           id="path3620"
           style="fill:#504f51;fill-opacity:1;fill-rule:nonzero;stroke:none"
           d="m 0,0 c 0,1.395 -0.65,2.235 -2.029,2.235 -1.378,0 -2.139,-0.903 -2.139,-2.029 0,-3.376 5.483,-1.521 5.483,-5.499 0,-2.187 -1.363,-3.313 -3.423,-3.313 -2.123,0 -3.296,1.141 -3.296,3.36 l 0,0.333 1.014,0 0,-0.428 c 0,-1.442 0.761,-2.408 2.25,-2.408 1.427,0 2.441,0.712 2.441,2.298 0,3.359 -5.484,1.441 -5.484,5.546 0,1.776 1.158,2.996 3.123,2.996 C 0.048,3.091 1.014,2.013 1.014,0 L 0,0 Z" />
      </g>
      <g
         transform="translate(195.9252,595.517)"
         id="g3622">
        <path
           inkscape:connector-curvature="0"
           id="path3624"
           style="fill:#504f51;fill-opacity:1;fill-rule:nonzero;stroke:none"
           d="m 0,0 5.61,0 0,-0.856 -4.596,0 0,-4.121 4.295,0 0,-0.856 -4.295,0 0,-4.628 4.739,0 0,-0.855 -5.753,0 L 0,0 Z" />
      </g>
      <g
         transform="translate(203.9743,590.223)"
         id="g3626">
        <path
           inkscape:connector-curvature="0"
           id="path3628"
           style="fill:#504f51;fill-opacity:1;fill-rule:nonzero;stroke:none"
           d="m 0,0 1.743,0 c 1.601,0 2.536,0.73 2.536,2.219 0,1.379 -0.586,2.219 -2.425,2.219 L 0,4.438 0,0 Z m -1.014,5.294 3.375,0 c 1.886,0 2.932,-1.078 2.932,-2.837 0,-1.363 -0.539,-2.584 -2.044,-2.869 l 0,-0.032 C 4.659,-0.57 5.135,-1.379 5.182,-3.122 L 5.214,-4.358 C 5.23,-4.977 5.293,-5.579 5.69,-6.022 l -1.189,0 C 4.263,-5.626 4.216,-5.039 4.2,-4.437 l -0.032,0.95 C 4.105,-1.489 3.74,-0.856 1.917,-0.856 l -1.917,0 0,-5.166 -1.014,0 0,11.316 z" />
      </g>
      <g
         transform="translate(210.0423,595.517)"
         id="g3630">
        <path
           inkscape:connector-curvature="0"
           id="path3632"
           style="fill:#504f51;fill-opacity:1;fill-rule:nonzero;stroke:none"
           d="m 0,0 1.078,0 2.52,-10.238 0.031,0 L 6.149,0 7.227,0 4.248,-11.316 2.98,-11.316 0,0 Z" />
      </g>
      <path
         inkscape:connector-curvature="0"
         id="path3634"
         style="fill:#504f51;fill-opacity:1;fill-rule:nonzero;stroke:none"
         d="m 218.266,595.517 1.014,0 0,-11.316 -1.014,0 0,11.316 z" />
      <g
         transform="translate(224.4618,584.0104)"
         id="g3636">
        <path
           inkscape:connector-curvature="0"
           id="path3638"
           style="fill:#504f51;fill-opacity:1;fill-rule:nonzero;stroke:none"
           d="m 0,0 c -2.219,0.111 -3.439,1.902 -3.439,5.848 0,4.057 1.299,5.848 3.614,5.848 2.297,0 3.248,-1.632 3.248,-3.486 l -1.014,0 c 0,1.537 -0.776,2.631 -2.234,2.631 -1.617,0 -2.6,-1.332 -2.6,-4.993 0,-3.661 0.983,-4.992 2.6,-4.992 1.426,0 2.234,1.22 2.345,3.17 l 1.014,0 C 3.408,1.633 2.362,0.206 0.587,0.031 L 0.032,-0.697 0.064,-0.713 c 0.142,0.063 0.332,0.079 0.538,0.079 0.682,0 1.221,-0.475 1.221,-1.062 0,-0.887 -0.951,-1.347 -1.68,-1.347 -0.491,0 -1.094,0.159 -1.411,0.317 l 0.19,0.492 c 0.254,-0.128 0.603,-0.238 0.951,-0.238 0.761,0 1.094,0.317 1.094,0.697 0,0.396 -0.412,0.57 -0.84,0.57 -0.301,0 -0.523,-0.047 -0.697,-0.158 L -0.776,-1.093 0,0 Z" />
      </g>
      <g
         transform="translate(232.8599,584.8666)"
         id="g3640">
        <path
           inkscape:connector-curvature="0"
           id="path3642"
           style="fill:#504f51;fill-opacity:1;fill-rule:nonzero;stroke:none"
           d="M 0,0 C 1.617,0 2.599,1.331 2.599,4.992 2.599,8.653 1.617,9.984 0,9.984 -1.617,9.984 -2.599,8.653 -2.599,4.992 -2.599,1.331 -1.617,0 0,0 m 0,10.84 c 2.314,0 3.613,-1.791 3.613,-5.848 0,-4.057 -1.299,-5.848 -3.613,-5.848 -2.314,0 -3.613,1.791 -3.613,5.848 0,4.057 1.299,5.848 3.613,5.848" />
      </g>
      <g
         transform="translate(241.9539,595.517)"
         id="g3644">
        <path
           inkscape:connector-curvature="0"
           id="path3646"
           style="fill:#504f51;fill-opacity:1;fill-rule:nonzero;stroke:none"
           d="m 0,0 1.363,0 4.327,-9.858 0.031,0 0,9.858 1.014,0 0,-11.316 -1.363,0 -4.326,9.858 -0.032,0 0,-9.858 -1.014,0 L 0,0 Z" />
      </g>
      <g
         transform="translate(255.2961,588.3531)"
         id="g3648">
        <path
           inkscape:connector-curvature="0"
           id="path3650"
           style="fill:#504f51;fill-opacity:1;fill-rule:nonzero;stroke:none"
           d="m 0,0 -1.744,6.371 -0.031,0 L -3.519,0 0,0 Z m -2.393,7.164 1.268,0 3.344,-11.316 -1.078,0 -0.919,3.296 -3.962,0 -0.92,-3.296 -1.077,0 3.344,11.316 z" />
      </g>
      <g
         transform="translate(265.263,588.0363)"
         id="g3652">
        <path
           inkscape:connector-curvature="0"
           id="path3654"
           style="fill:#504f51;fill-opacity:1;fill-rule:nonzero;stroke:none"
           d="m 0,0 c -0.143,-2.583 -1.331,-4.026 -3.36,-4.026 -2.314,0 -3.613,1.791 -3.613,5.848 0,4.058 1.299,5.848 3.613,5.848 2.298,0 3.249,-1.632 3.249,-3.486 l -1.014,0 c 0,1.537 -0.777,2.631 -2.235,2.631 -1.616,0 -2.599,-1.331 -2.599,-4.993 0,-3.66 0.983,-4.992 2.599,-4.992 1.426,0 2.235,1.22 2.346,3.17 L 0,0 Z" />
      </g>
      <path
         inkscape:connector-curvature="0"
         id="path3656"
         style="fill:#504f51;fill-opacity:1;fill-rule:nonzero;stroke:none"
         d="m 266.672,595.517 1.014,0 0,-11.316 -1.014,0 0,11.316 z" />
      <g
         transform="translate(273.0418,584.8666)"
         id="g3658">
        <path
           inkscape:connector-curvature="0"
           id="path3660"
           style="fill:#504f51;fill-opacity:1;fill-rule:nonzero;stroke:none"
           d="M 0,0 C 1.617,0 2.599,1.331 2.599,4.992 2.599,8.653 1.617,9.984 0,9.984 -1.617,9.984 -2.599,8.653 -2.599,4.992 -2.599,1.331 -1.617,0 0,0 m 0,10.84 c 2.314,0 3.613,-1.791 3.613,-5.848 0,-4.057 -1.299,-5.848 -3.613,-5.848 -2.314,0 -3.613,1.791 -3.613,5.848 0,4.057 1.299,5.848 3.613,5.848" />
      </g>
      <g
         transform="translate(278.333,595.517)"
         id="g3662">
        <path
           inkscape:connector-curvature="0"
           id="path3664"
           style="fill:#504f51;fill-opacity:1;fill-rule:nonzero;stroke:none"
           d="m 0,0 1.363,0 4.327,-9.858 0.031,0 0,9.858 1.015,0 0,-11.316 -1.363,0 -4.327,9.858 -0.032,0 0,-9.858 -1.014,0 L 0,0 Z" />
      </g>
      <g
         transform="translate(291.6758,588.3531)"
         id="g3666">
        <path
           inkscape:connector-curvature="0"
           id="path3668"
           style="fill:#504f51;fill-opacity:1;fill-rule:nonzero;stroke:none"
           d="m 0,0 -1.744,6.371 -0.031,0 L -3.519,0 0,0 Z m -2.393,7.164 1.268,0 3.344,-11.316 -1.078,0 -0.919,3.296 -3.962,0 -0.92,-3.296 -1.077,0 3.344,11.316 z" />
      </g>
      <g
         transform="translate(294.7642,595.517)"
         id="g3670">
        <path
           inkscape:connector-curvature="0"
           id="path3672"
           style="fill:#504f51;fill-opacity:1;fill-rule:nonzero;stroke:none"
           d="m 0,0 1.014,0 0,-10.461 4.692,0 0,-0.855 -5.706,0 L 0,0 Z" />
      </g>
      <g
         transform="translate(189.334,566.4155)"
         id="g3674">
        <path
           inkscape:connector-curvature="0"
           id="path3676"
           style="fill:#504f51;fill-opacity:1;fill-rule:nonzero;stroke:none"
           d="m 0,0 1.648,0 c 2.219,0 3.154,1.109 3.154,4.787 0,3.708 -0.935,4.818 -3.154,4.818 L 0,9.605 0,0 Z m -1.014,10.461 2.725,0 c 3.297,0 4.105,-1.966 4.105,-5.659 0,-3.693 -0.808,-5.658 -4.105,-5.658 l -2.725,0 0,11.317 z" />
      </g>
      <g
         transform="translate(196.8277,576.8762)"
         id="g3678">
        <path
           inkscape:connector-curvature="0"
           id="path3680"
           style="fill:#504f51;fill-opacity:1;fill-rule:nonzero;stroke:none"
           d="m 0,0 5.611,0 0,-0.856 -4.597,0 0,-4.121 4.295,0 0,-0.856 -4.295,0 0,-4.628 4.739,0 0,-0.855 -5.753,0 L 0,0 Z" />
      </g>
      <g
         transform="translate(212.626,573.9753)"
         id="g3682">
        <path
           inkscape:connector-curvature="0"
           id="path3684"
           style="fill:#504f51;fill-opacity:1;fill-rule:nonzero;stroke:none"
           d="m 0,0 c 0,1.395 -0.65,2.235 -2.029,2.235 -1.378,0 -2.139,-0.903 -2.139,-2.029 0,-3.376 5.483,-1.521 5.483,-5.499 0,-2.187 -1.363,-3.313 -3.423,-3.313 -2.123,0 -3.296,1.141 -3.296,3.36 l 0,0.333 1.014,0 0,-0.428 c 0,-1.442 0.761,-2.409 2.25,-2.409 1.427,0 2.441,0.713 2.441,2.298 0,3.36 -5.483,1.442 -5.483,5.547 0,1.775 1.157,2.996 3.122,2.996 C 0.048,3.091 1.014,2.013 1.014,0 L 0,0 Z" />
      </g>
      <g
         transform="translate(220.1049,569.7123)"
         id="g3686">
        <path
           inkscape:connector-curvature="0"
           id="path3688"
           style="fill:#504f51;fill-opacity:1;fill-rule:nonzero;stroke:none"
           d="m 0,0 -1.744,6.371 -0.031,0 L -3.519,0 0,0 Z m -2.393,7.164 1.268,0 3.344,-11.316 -1.078,0 -0.919,3.296 -3.962,0 -0.92,-3.296 -1.077,0 3.344,11.316 z" />
      </g>
      <g
         transform="translate(227.9956,579.6492)"
         id="g3690">
        <path
           inkscape:connector-curvature="0"
           id="path3692"
           style="fill:#504f51;fill-opacity:1;fill-rule:nonzero;stroke:none"
           d="m 0,0 -1.553,-2.234 -0.761,0 L -1.125,0 0,0 Z m -4.866,-2.773 1.015,0 0,-8.131 c 0,-1.695 0.729,-2.519 2.219,-2.519 1.489,0 2.219,0.824 2.219,2.519 l 0,8.131 1.014,0 0,-8.147 c 0,-2.377 -1.157,-3.36 -3.233,-3.36 -2.077,0 -3.234,0.983 -3.234,3.36 l 0,8.147 z" />
      </g>
      <g
         transform="translate(232.2252,566.4155)"
         id="g3694">
        <path
           inkscape:connector-curvature="0"
           id="path3696"
           style="fill:#504f51;fill-opacity:1;fill-rule:nonzero;stroke:none"
           d="m 0,0 1.648,0 c 2.219,0 3.154,1.109 3.154,4.787 0,3.708 -0.935,4.818 -3.154,4.818 L 0,9.605 0,0 Z m -1.014,10.461 2.726,0 c 3.296,0 4.105,-1.966 4.105,-5.659 0,-3.693 -0.809,-5.658 -4.105,-5.658 l -2.726,0 0,11.317 z" />
      </g>
      <g
         transform="translate(239.7196,576.8762)"
         id="g3698">
        <path
           inkscape:connector-curvature="0"
           id="path3700"
           style="fill:#504f51;fill-opacity:1;fill-rule:nonzero;stroke:none"
           d="m 0,0 5.61,0 0,-0.856 -4.596,0 0,-4.121 4.295,0 0,-0.856 -4.295,0 0,-4.628 4.739,0 0,-0.855 -5.753,0 L 0,0 Z" />
      </g>
    </g>
  </g>
</svg>
