<?xml version="1.0" encoding="UTF-8" standalone="no"?>
<!-- Created with Inkscape (http://www.inkscape.org/) -->

<svg
   xmlns:dc="http://purl.org/dc/elements/1.1/"
   xmlns:cc="http://creativecommons.org/ns#"
   xmlns:rdf="http://www.w3.org/1999/02/22-rdf-syntax-ns#"
   xmlns:svg="http://www.w3.org/2000/svg"
   xmlns="http://www.w3.org/2000/svg"
   xmlns:sodipodi="http://sodipodi.sourceforge.net/DTD/sodipodi-0.dtd"
   xmlns:inkscape="http://www.inkscape.org/namespaces/inkscape"
   width="102.071"
   height="37.558998"
   viewBox="0 0 102.071 37.558999"
   id="svg3592"
   version="1.1"
   inkscape:version="0.91 r13725"
   sodipodi:docname="logo_rp.svg">
  <defs
     id="defs3594" />
  <sodipodi:namedview
     id="base"
     pagecolor="#ffffff"
     bordercolor="#666666"
     borderopacity="1.0"
     inkscape:pageopacity="0.0"
     inkscape:pageshadow="2"
     inkscape:zoom="4.3155611"
     inkscape:cx="16.189826"
     inkscape:cy="17.948425"
     inkscape:document-units="px"
     inkscape:current-layer="layer1"
     showgrid="false"
     units="px"
     inkscape:window-width="1366"
     inkscape:window-height="705"
     inkscape:window-x="-8"
     inkscape:window-y="-8"
     inkscape:window-maximized="1" />
  <metadata
     id="metadata3597">
    <rdf:RDF>
      <cc:Work
         rdf:about="">
        <dc:format>image/svg+xml</dc:format>
        <dc:type
           rdf:resource="http://purl.org/dc/dcmitype/StillImage" />
        <dc:title></dc:title>
      </cc:Work>
    </rdf:RDF>
  </metadata>
  <g
     inkscape:label="Camada 1"
     inkscape:groupmode="layer"
     id="layer1"
     transform="translate(0,-1014.8032)">
    <g
       transform="matrix(1.2336445,0,0,-1.2336445,-2005.0578,1671.2238)"
       id="g10936">
      <path
         d="m 1708.046,509.36286 -60.708,0 0,0.5 60.708,0 0,-0.5 z"
         style="fill:#393939;fill-opacity:1;fill-rule:nonzero;stroke:none"
         id="path9288"
         inkscape:connector-curvature="0" />
      <g
         id="g9290"
         transform="translate(1632.2916,532.09866)">
        <path
           d="m 0,0 c -4.63,-1.492 -6.979,-5.426 -6.979,-11.495 l 0,-9.205 c 0,0 0.775,5.917 6.979,7.623 L 0,0 Z"
           style="fill:#00642d;fill-opacity:1;fill-rule:nonzero;stroke:none"
           id="path9292"
           inkscape:connector-curvature="0" />
      </g>
      <g
         id="g9294"
         transform="translate(1632.8075,530.36026)">
        <path
           d="m 0,0 c 0,0 3.524,1.335 8.539,1.619 0,0 -0.016,-4.19 -0.15,-7.593 -0.423,-10.753 -10.032,-5.228 -14.74,-10.947 0.945,2.476 4.158,4.237 6.351,4.67 L 0,0 Z"
           style="fill:#ff1d21;fill-opacity:1;fill-rule:nonzero;stroke:none"
           id="path9296"
           inkscape:connector-curvature="0" />
      </g>
      <g
         id="g9298"
         transform="translate(1631.5078,515.00556)">
        <path
           d="M 0,0 C 0,0 -5.107,-0.415 -5.543,-3.327 -5.887,-5.61 0,-5.67 0,-5.67 L 0,0 Z"
           style="fill:#00642d;fill-opacity:1;fill-rule:nonzero;stroke:none"
           id="path9300"
           inkscape:connector-curvature="0" />
      </g>
      <g
         id="g9302"
         transform="translate(1625.5315,523.57726)">
        <path
           d="m 0,0 c 1.057,2.469 2.849,4.996 6.76,6.578 l 0,1.943 C 2.937,7.289 0.674,4.388 0,0"
           style="fill:#66b636;fill-opacity:1;fill-rule:nonzero;stroke:none"
           id="path9304"
           inkscape:connector-curvature="0" />
      </g>
      <g
         id="g9306"
         transform="translate(1632.4142,519.09096)">
        <path
           d="M 0,0 0,-0.038 0,-0.066 C 0,-0.073 -0.003,-0.08 -0.01,-0.08 l -0.101,0 c -0.006,0 -0.012,0.007 -0.012,0.014 l 0,0.072 0,0.116 0,0.264 0,0.799 C -0.081,1.182 -0.04,1.179 0,1.176 L 0,0.499 0,0.38 0,0.117 0,0 Z m -0.17,0.009 0,0 c -1.459,0.092 -2.733,0.864 -3.511,2.003 -0.006,0.009 -0.014,0.02 -0.02,0.03 l 0,0.002 c 0.037,0.017 0.074,0.031 0.113,0.044 0.752,-1.109 1.987,-1.861 3.401,-1.963 L -0.17,0.009 Z M -3.935,2.357 C -3.957,2.359 -3.97,2.369 -3.974,2.376 -3.98,2.387 -4.029,2.473 -4.029,2.473 -4.03,2.474 -4.03,2.477 -4.03,2.478 c 0.001,0.023 0.014,0.046 0.033,0.069 -0.271,0.538 -0.439,1.138 -0.479,1.77 0.04,0.02 0.078,0.035 0.115,0.047 0.036,-0.62 0.197,-1.207 0.456,-1.739 0.061,0.042 0.142,0.084 0.233,0.124 -0.25,0.507 -0.401,1.072 -0.428,1.665 0.05,0.004 0.09,0.001 0.119,-0.002 0.027,-0.577 0.176,-1.124 0.418,-1.617 0.152,0.061 0.322,0.118 0.491,0.165 0.158,0.046 0.32,0.088 0.487,0.125 0.014,-0.039 0.03,-0.079 0.047,-0.118 -0.174,-0.038 -0.342,-0.081 -0.504,-0.129 -0.01,0 -0.019,-0.003 -0.028,-0.006 0,0 -0.002,0 -0.005,-0.002 -0.009,-0.004 -0.016,-0.005 -0.026,-0.008 0,0 -0.003,0 -0.003,-0.002 C -3.112,2.819 -3.121,2.816 -3.129,2.813 L -3.132,2.812 C -3.141,2.81 -3.15,2.808 -3.159,2.806 -3.161,2.803 -3.162,2.803 -3.162,2.803 -3.182,2.798 -3.201,2.792 -3.218,2.785 l -0.004,0 C -3.23,2.781 -3.241,2.779 -3.249,2.775 l -0.002,0 C -3.259,2.772 -3.269,2.769 -3.278,2.765 l -10e-4,0 C -3.289,2.761 -3.298,2.759 -3.307,2.755 -3.328,2.748 -3.346,2.742 -3.364,2.735 l -0.002,0 C -3.413,2.716 -3.46,2.701 -3.503,2.681 -3.543,2.664 -3.578,2.649 -3.614,2.632 -3.618,2.631 -3.624,2.628 -3.629,2.625 l -0.002,0 C -3.636,2.624 -3.641,2.621 -3.647,2.618 -3.652,2.615 -3.658,2.612 -3.664,2.609 -3.691,2.597 -3.716,2.584 -3.741,2.571 -3.745,2.568 -3.749,2.565 -3.754,2.563 l -10e-4,0 C -3.761,2.561 -3.763,2.558 -3.768,2.555 l -0.001,0 C -3.773,2.553 -3.778,2.55 -3.782,2.548 -3.805,2.534 -3.825,2.523 -3.844,2.51 -3.886,2.48 -3.919,2.451 -3.937,2.424 c 0,-0.003 -0.002,-0.004 -0.004,-0.005 0,-0.002 -0.001,-0.003 -0.001,-0.005 l -10e-4,0 C -3.949,2.404 -3.959,2.387 -3.957,2.379 -3.956,2.369 -3.95,2.363 -3.935,2.357 m 0.2,-0.289 C -3.744,2.06 -3.761,2.03 -3.722,2.005 c -0.02,0.006 -0.043,0.017 -0.054,0.036 -0.012,0.02 -0.052,0.083 -0.052,0.083 l 0,0.007 c 0.003,0.017 0.012,0.034 0.027,0.051 0.002,10e-4 0.002,0.004 0.002,0.004 10e-4,0.002 0.003,0.002 0.003,0.002 0.021,0.024 0.052,0.051 0.092,0.078 0.003,10e-4 0.005,0.004 0.01,0.007 l 10e-4,0 c 0.005,0.003 0.008,0.006 0.008,0.006 0,0 0.003,10e-4 0.004,0.003 0.007,0.004 0.015,0.008 0.023,0.014 l 0.002,0 c 0.004,0.001 0.006,0.004 0.011,0.007 l 10e-4,0.002 c 0.004,0.002 0.007,0.005 0.012,0.005 l 0.001,0.002 c 0.009,0.005 0.017,0.011 0.027,0.014 l 10e-4,10e-4 c 0.005,0.003 0.009,0.005 0.013,0.007 l 0.002,0.002 c 0.018,0.011 0.04,0.023 0.062,0.033 0.018,0.007 0.035,0.015 0.052,0.025 0.034,0.015 0.071,0.03 0.111,0.046 0.013,0.006 0.027,0.011 0.043,0.018 0.007,0.002 0.014,0.006 0.021,0.008 0,10e-4 10e-4,10e-4 10e-4,10e-4 0.016,0.006 0.031,0.011 0.046,0.017 l 10e-4,0 c 0.008,0.003 0.015,0.006 0.022,0.007 l 10e-4,0.002 c 0.017,0.005 0.033,0.011 0.048,0.017 l 0.005,0 c 0.006,0.003 0.013,0.006 0.02,0.007 10e-4,10e-4 0.004,10e-4 0.004,10e-4 0.017,0.006 0.033,0.012 0.049,0.016 0.003,0.001 0.004,0.001 0.005,0.003 0.008,10e-4 0.013,0.006 0.013,0.006 0.009,0 0.012,10e-4 0.013,0.002 0.017,0.003 0.033,0.01 0.05,0.015 0.003,10e-4 0.006,10e-4 0.007,10e-4 0.007,0.002 0.013,0.004 0.019,0.007 l 0.008,0 c 0.009,0.004 0.017,0.006 0.026,0.009 0.183,0.052 0.363,0.097 0.544,0.137 0.022,-0.04 0.043,-0.08 0.066,-0.119 C -2.552,2.555 -2.745,2.507 -2.932,2.453 -3.22,2.374 -3.636,2.206 -3.735,2.068 m -0.745,2.311 0,0 C -4.489,4.369 -4.496,4.362 -4.503,4.352 -4.512,4.34 -4.54,4.304 -4.516,4.278 -4.526,4.285 -4.549,4.297 -4.549,4.317 l 0,0.125 c 0,0 0,0.002 0.001,0.003 0.008,0.024 0.025,0.048 0.049,0.073 0.003,0.002 0.006,0.004 0.01,0.01 0.03,0.027 0.073,0.057 0.123,0.085 10e-4,0.002 0.003,0.002 0.004,0.003 0.003,0.003 0.007,0.004 0.011,0.007 0.002,10e-4 0.003,10e-4 0.005,0.003 0.004,10e-4 0.007,0.003 0.011,0.006 0,0 0.003,0.001 0.004,0.002 0.003,0.002 0.007,0.005 0.012,0.005 0.001,10e-4 0.003,0.003 0.004,0.004 0.004,0.001 0.009,0.004 0.013,0.006 0,0.001 0.002,0.003 0.002,0.003 0.006,0.002 0.011,0.004 0.015,0.007 l 0.004,0 c 0.011,0.005 0.023,0.011 0.035,0.018 0.002,0.002 0.005,0.002 0.005,0.003 0.006,0.003 0.01,0.004 0.014,0.006 0.003,0.001 0.005,0.001 0.006,0.003 0.004,0.001 0.008,0.004 0.013,0.007 0,0 0.006,0 0.006,0.001 0.005,0.003 0.01,0.004 0.014,0.006 0.003,10e-4 0.004,0.003 0.004,0.003 0.007,0.003 0.013,0.005 0.019,0.007 0.001,0.001 0.003,0.003 0.003,0.003 0.014,0.005 0.028,0.011 0.042,0.017 0,0.001 0.002,0.001 0.002,0.001 0.044,0.017 0.089,0.036 0.138,0.053 0.004,0.003 0.01,0.004 0.015,0.007 0.003,0.001 0.008,0.001 0.011,0.003 0.005,0.003 0.011,0.004 0.017,0.007 0.004,10e-4 0.005,10e-4 0.005,10e-4 0.012,0.005 0.02,0.008 0.03,0.01 0.01,0.003 0.019,0.007 0.029,0.01 0.003,0 0.004,0.002 0.004,0.002 0.01,0.004 0.017,0.006 0.024,0.008 0.003,0.002 0.007,0.003 0.01,0.005 0.006,0.001 0.012,0.004 0.019,0.005 0.002,0.002 0.007,0.003 0.011,0.005 0.006,0.001 0.012,0.002 0.017,0.005 0.004,0.002 0.009,0.002 0.012,0.003 0.005,0.002 0.013,0.004 0.018,0.006 0.004,0.001 0.009,0.003 0.012,0.004 0.005,0.002 0.011,0.003 0.018,0.006 0.003,0.001 0.009,0.003 0.013,0.003 0.006,0.003 0.011,0.005 0.016,0.005 0.006,0.002 0.01,0.005 0.014,0.005 0.007,0.001 0.013,0.003 0.018,0.004 0.005,0.003 0.009,0.003 0.013,0.004 0.006,0.002 0.012,0.004 0.017,0.007 0.006,0 0.01,0.002 0.015,0.003 0.005,0.002 0.012,0.003 0.018,0.006 0.003,0.001 0.009,0.001 0.013,0.004 0.006,0.002 0.013,0.003 0.019,0.004 0.004,0.002 0.009,0.002 0.012,0.003 0.007,0.003 0.014,0.006 0.014,0.006 0.011,0.001 0.016,0.003 0.019,0.004 0.007,0.002 0.016,0.003 0.023,0.006 0.003,0.001 0.007,0.003 0.007,0.003 0.012,0.003 0.021,0.006 0.028,0.007 0.003,10e-4 0.006,10e-4 0.008,10e-4 0.011,0.005 0.022,0.007 0.034,0.01 l 0.004,0 c 0.01,0.003 0.02,0.006 0.03,0.008 0.003,0.001 0.007,0.002 0.011,0.004 0.006,0.001 0.015,0.004 0.022,0.005 0.005,0.002 0.008,0.003 0.008,0.003 0.013,0.002 0.02,0.003 0.027,0.007 0.005,0 0.009,0 0.013,0.003 0.007,0.002 0.014,0.003 0.022,0.004 0.005,0.002 0.01,0.003 0.014,0.005 0.007,10e-4 0.013,0.003 0.02,0.004 0.005,0.002 0.011,0.003 0.011,0.003 0.012,0.001 0.019,0.004 0.025,0.006 0.005,10e-4 0.011,10e-4 0.015,0.003 0.006,10e-4 0.013,0.004 0.013,0.004 0.012,0.001 0.019,0.003 0.023,0.004 0.007,0.003 0.014,0.003 0.021,0.004 0.006,0.002 0.012,0.003 0.016,0.005 0.007,0.001 0.014,0.002 0.021,0.004 0.004,0.003 0.01,0.003 0.016,0.003 0.007,0.003 0.013,0.003 0.02,0.005 0,0 0.01,0 0.015,0.003 0.008,0.002 0.015,0.003 0.022,0.005 0.005,10e-4 0.011,0.002 0.015,0.004 0.009,0.001 0.016,0.001 0.023,0.004 0.005,0 0.01,0.003 0.01,0.003 0.013,10e-4 0.021,0.003 0.03,0.006 l 0.013,0.001 c 0.013,0.003 0.024,0.006 0.037,0.007 0.05,0.012 0.103,0.02 0.154,0.03 l 0,-0.128 C -2.802,4.968 -2.847,4.961 -2.891,4.952 -3.269,4.877 -3.672,4.77 -3.987,4.65 -4.027,4.634 -4.067,4.619 -4.104,4.603 -4.205,4.56 -4.295,4.516 -4.363,4.471 -4.402,4.446 -4.435,4.422 -4.462,4.396 -4.467,4.391 -4.475,4.385 -4.48,4.379 m 9.294,0.066 0,-0.003 0,-0.125 C 4.814,4.297 4.792,4.285 4.783,4.278 4.806,4.304 4.781,4.34 4.769,4.352 4.764,4.362 4.755,4.369 4.747,4.379 4.742,4.382 4.738,4.388 4.734,4.392 4.734,4.394 4.732,4.394 4.731,4.395 4.725,4.401 4.718,4.407 4.712,4.412 4.688,4.431 4.66,4.452 4.63,4.471 4.56,4.516 4.473,4.559 4.373,4.602 4.364,4.606 4.356,4.609 4.348,4.613 4.321,4.624 4.292,4.634 4.263,4.646 4.261,4.647 4.255,4.65 4.255,4.65 3.94,4.77 3.535,4.877 3.159,4.952 3.113,4.959 3.069,4.968 3.025,4.978 l 0,0.128 C 3.076,5.096 3.126,5.088 3.178,5.076 3.189,5.075 3.202,5.072 3.215,5.069 c 0,0 0.007,-0.001 0.011,-0.001 0.008,-0.003 0.017,-0.005 0.026,-0.006 0.004,0 0.01,-0.003 0.01,-0.003 C 3.275,5.056 3.282,5.056 3.29,5.055 3.294,5.053 3.3,5.052 3.305,5.051 3.312,5.049 3.319,5.048 3.326,5.046 3.332,5.043 3.336,5.043 3.342,5.043 3.349,5.041 3.355,5.041 3.361,5.038 c 0.008,0 0.012,0 0.016,-0.003 C 3.385,5.033 3.391,5.032 3.399,5.031 3.404,5.029 3.41,5.028 3.414,5.026 3.421,5.025 3.428,5.025 3.436,5.022 3.44,5.021 3.447,5.019 3.451,5.018 3.458,5.018 3.465,5.016 3.471,5.014 3.477,5.012 3.482,5.012 3.487,5.011 3.494,5.009 3.501,5.006 3.506,5.005 3.511,5.005 3.517,5.004 3.523,5.002 3.53,5.001 3.535,4.999 3.542,4.998 3.548,4.996 3.552,4.995 3.557,4.993 3.564,4.992 3.571,4.991 3.578,4.988 3.582,4.986 3.588,4.986 3.588,4.986 3.599,4.982 3.608,4.981 3.615,4.979 3.619,4.979 3.624,4.978 3.627,4.976 3.636,4.974 3.645,4.972 3.655,4.968 c 0.001,0 0.004,0 0.005,-0.001 C 3.672,4.965 3.683,4.962 3.695,4.959 l 0.004,0 C 3.709,4.955 3.718,4.954 3.728,4.951 3.732,4.949 3.735,4.948 3.735,4.948 3.746,4.945 3.753,4.944 3.76,4.941 3.765,4.941 3.769,4.939 3.772,4.938 3.779,4.935 3.786,4.934 3.793,4.934 3.797,4.931 3.802,4.929 3.806,4.928 c 0.005,0 0.013,-0.003 0.02,-0.006 0,0 0.007,-10e-4 0.013,-0.003 C 3.845,4.918 3.852,4.917 3.857,4.915 3.862,4.914 3.866,4.912 3.87,4.911 3.876,4.908 3.883,4.907 3.889,4.905 3.893,4.904 3.897,4.902 3.897,4.902 3.907,4.899 3.914,4.897 3.92,4.895 c 0,0 0.009,-10e-4 0.013,-0.003 0.007,-0.001 0.013,-0.004 0.018,-0.005 0,0 0.009,-0.003 0.011,-0.005 0.008,0 0.014,-0.002 0.021,-0.005 0,0 0.008,-0.002 0.011,-0.003 C 4.001,4.871 4.008,4.87 4.014,4.868 4.017,4.867 4.021,4.865 4.024,4.864 4.031,4.862 4.038,4.86 4.045,4.857 c 0,0 0.005,0 0.008,-0.002 0.008,-0.003 0.017,-0.004 0.025,-0.008 0,0 0.002,-0.002 0.004,-0.002 0.019,-0.005 0.039,-0.012 0.058,-0.02 0,0 0.002,0 0.004,-0.001 C 4.152,4.821 4.159,4.818 4.168,4.817 4.171,4.814 4.172,4.814 4.175,4.813 c 0.006,0 0.013,-0.005 0.02,-0.008 0.003,0 0.006,0 0.009,-10e-4 C 4.209,4.801 4.215,4.8 4.221,4.797 4.225,4.795 4.228,4.795 4.231,4.794 4.236,4.791 4.242,4.79 4.248,4.787 4.293,4.771 4.338,4.754 4.379,4.737 4.382,4.736 4.385,4.734 4.387,4.733 4.392,4.731 4.396,4.73 4.4,4.729 4.403,4.727 4.406,4.726 4.409,4.724 4.413,4.721 4.418,4.72 4.423,4.717 c 0,0 0.003,0 0.006,-10e-4 0.005,-0.003 0.013,-0.006 0.018,-0.009 0,0 0.004,-10e-4 0.007,-0.003 C 4.457,4.703 4.463,4.701 4.467,4.699 4.469,4.697 4.472,4.696 4.472,4.696 4.479,4.694 4.481,4.691 4.485,4.69 L 4.493,4.687 C 4.497,4.686 4.5,4.683 4.504,4.681 4.506,4.68 4.509,4.68 4.511,4.679 4.515,4.676 4.518,4.674 4.521,4.672 4.524,4.67 4.526,4.67 4.529,4.67 4.533,4.667 4.539,4.664 4.541,4.663 L 4.546,4.662 C 4.551,4.659 4.557,4.656 4.563,4.653 4.564,4.652 4.566,4.652 4.568,4.65 4.571,4.649 4.576,4.646 4.578,4.644 4.581,4.643 4.583,4.642 4.586,4.64 4.588,4.639 4.591,4.637 4.594,4.636 4.596,4.634 4.6,4.633 4.601,4.632 4.604,4.63 4.607,4.629 4.61,4.627 4.613,4.626 4.614,4.624 4.614,4.624 4.62,4.622 4.623,4.62 4.624,4.619 4.627,4.617 4.628,4.616 4.631,4.615 4.681,4.586 4.722,4.556 4.754,4.529 4.757,4.525 4.761,4.522 4.762,4.52 4.789,4.496 4.806,4.469 4.814,4.445 m 0,0.398 0,-0.003 0,-0.12 C 4.814,4.704 4.805,4.694 4.789,4.69 4.808,4.709 4.785,4.739 4.764,4.761 4.759,4.766 4.755,4.77 4.752,4.773 4.748,4.776 4.747,4.78 4.742,4.781 4.714,4.813 4.673,4.844 4.625,4.872 l -0.001,0 C 4.621,4.875 4.617,4.878 4.613,4.881 L 4.61,4.882 C 4.607,4.884 4.602,4.887 4.598,4.888 4.597,4.89 4.596,4.89 4.596,4.89 4.591,4.892 4.587,4.895 4.583,4.897 L 4.581,4.898 C 4.577,4.901 4.572,4.902 4.568,4.905 L 4.567,4.907 C 4.563,4.908 4.557,4.912 4.553,4.915 l -0.002,0 C 4.546,4.918 4.541,4.921 4.537,4.922 L 4.536,4.924 C 4.53,4.927 4.526,4.928 4.521,4.931 c 0,0 -0.001,0 -0.003,0.001 C 4.514,4.934 4.509,4.937 4.504,4.939 L 4.502,4.941 C 4.497,4.944 4.492,4.945 4.485,4.948 L 4.484,4.949 C 4.48,4.951 4.474,4.954 4.47,4.956 l -10e-4,0 C 4.463,4.959 4.457,4.962 4.451,4.965 l -0.002,0 C 4.444,4.968 4.439,4.971 4.433,4.974 l -10e-4,0 C 4.426,4.976 4.42,4.979 4.415,4.981 l -0.002,0 c -0.004,0.004 -0.01,0.005 -0.017,0.01 0,0 -0.002,0 -0.002,0.001 -0.005,0 -0.012,0.003 -0.016,0.006 L 4.376,4.999 C 4.331,5.018 4.282,5.038 4.232,5.056 4.222,5.059 4.212,5.062 4.204,5.065 L 4.202,5.066 c -0.01,0.003 -0.02,0.007 -0.028,0.01 -0.002,0 -0.002,0 -0.002,0.002 -0.01,0.002 -0.02,0.005 -0.03,0.01 l -0.001,0 C 4.131,5.09 4.121,5.095 4.111,5.099 l -10e-4,0 C 4.101,5.102 4.091,5.106 4.08,5.109 4.07,5.113 4.06,5.116 4.05,5.119 l -0.003,0 C 4.027,5.126 4.006,5.133 3.986,5.14 l -0.003,0 C 3.971,5.143 3.961,5.147 3.953,5.149 3.951,5.15 3.95,5.15 3.95,5.15 3.94,5.153 3.929,5.157 3.919,5.16 l -0.002,0 C 3.907,5.163 3.896,5.166 3.886,5.17 l -0.001,0 C 3.873,5.173 3.863,5.177 3.853,5.18 l -0.004,0 C 3.84,5.184 3.829,5.186 3.819,5.19 l -0.003,0 C 3.795,5.196 3.772,5.204 3.75,5.21 l -0.002,0 C 3.738,5.213 3.728,5.216 3.716,5.219 l -0.003,0 C 3.702,5.223 3.692,5.224 3.681,5.229 l -0.002,0 C 3.669,5.232 3.656,5.236 3.645,5.237 3.634,5.242 3.624,5.243 3.611,5.246 c 0,0 -0.002,0 -0.002,10e-4 C 3.597,5.249 3.588,5.253 3.577,5.256 l -0.003,0 C 3.562,5.259 3.551,5.261 3.541,5.263 L 3.539,5.264 C 3.528,5.267 3.517,5.27 3.505,5.271 L 3.504,5.273 C 3.493,5.274 3.482,5.277 3.471,5.281 l -0.003,0 C 3.457,5.284 3.447,5.287 3.436,5.289 l -0.003,0 C 3.421,5.291 3.41,5.294 3.399,5.297 l -0.002,0 C 3.387,5.3 3.376,5.301 3.364,5.304 L 3.361,5.306 C 3.352,5.307 3.34,5.31 3.33,5.313 L 3.326,5.314 C 3.315,5.316 3.305,5.318 3.294,5.32 l -10e-4,0 C 3.28,5.323 3.269,5.326 3.257,5.327 l -0.001,0 C 3.245,5.331 3.234,5.333 3.223,5.334 3.222,5.334 3.22,5.334 3.22,5.336 3.209,5.338 3.199,5.34 3.188,5.341 l -0.002,0 C 3.174,5.344 3.163,5.345 3.152,5.348 3.111,5.357 3.068,5.364 3.025,5.371 l 0,0.13 C 3.076,5.492 3.126,5.482 3.176,5.472 3.571,5.397 3.932,5.3 4.214,5.196 4.152,5.638 4.02,6.057 3.83,6.44 3.789,6.523 3.745,6.605 3.699,6.686 L 3.698,6.688 c -0.003,0.001 -0.004,0.007 -0.006,0.01 0.021,0 0.07,0.003 0.135,10e-4 C 4.092,6.23 4.271,5.706 4.34,5.149 4.447,5.106 4.541,5.062 4.615,5.019 4.563,5.611 4.396,6.168 4.137,6.671 4.187,6.662 4.237,6.651 4.289,6.637 l 0,0.001 C 4.295,6.624 4.302,6.611 4.308,6.597 4.551,6.087 4.702,5.525 4.741,4.934 4.779,4.902 4.805,4.871 4.814,4.843 M 4.742,4.317 C 4.741,4.295 4.741,4.274 4.738,4.253 4.691,3.655 4.531,3.091 4.279,2.58 4.309,2.516 4.316,2.464 4.296,2.423 4.296,2.423 4.258,2.367 4.239,2.337 4.221,2.31 4.214,2.297 4.182,2.293 4.204,2.299 4.241,2.344 4.225,2.416 4.224,2.426 4.219,2.439 4.215,2.451 l -10e-4,0 C 4.207,2.47 4.197,2.49 4.181,2.51 4.15,2.56 4.107,2.614 4.058,2.671 l -10e-4,0 C 4.053,2.676 4.05,2.679 4.047,2.684 l -0.002,0 C 4.041,2.691 4.038,2.695 4.034,2.699 l 0,0.002 C 3.979,2.761 3.917,2.825 3.846,2.892 3.846,2.893 3.845,2.893 3.845,2.893 3.837,2.9 3.83,2.906 3.825,2.913 l -0.002,0 C 3.802,2.934 3.779,2.954 3.756,2.976 3.755,2.977 3.753,2.977 3.753,2.979 3.746,2.984 3.739,2.991 3.733,2.997 3.732,2.998 3.73,2.998 3.73,2.998 3.708,3.02 3.682,3.041 3.658,3.063 3.656,3.064 3.656,3.066 3.656,3.067 3.648,3.073 3.641,3.08 3.634,3.085 L 3.63,3.088 C 3.605,3.11 3.58,3.131 3.554,3.152 3.552,3.154 3.551,3.155 3.55,3.157 3.544,3.162 3.535,3.169 3.528,3.174 3.527,3.175 3.525,3.177 3.524,3.178 3.515,3.185 3.508,3.191 3.498,3.198 l 0,10e-4 C 3.48,3.214 3.463,3.229 3.446,3.244 3.443,3.245 3.441,3.247 3.44,3.248 3.431,3.254 3.424,3.259 3.417,3.265 3.415,3.268 3.413,3.269 3.413,3.269 3.404,3.276 3.396,3.284 3.387,3.289 c 0,0 -0.002,0.002 -0.003,0.003 C 3.376,3.299 3.366,3.308 3.355,3.315 3.347,3.322 3.339,3.329 3.33,3.335 3.327,3.338 3.324,3.339 3.323,3.342 3.316,3.346 3.309,3.352 3.302,3.359 c 0,0 -0.005,0.003 -0.008,0.004 C 3.287,3.369 3.28,3.375 3.272,3.382 3.27,3.385 3.268,3.385 3.266,3.386 3.256,3.393 3.246,3.4 3.237,3.408 l 0,10e-4 C 3.228,3.416 3.219,3.423 3.209,3.432 3.208,3.433 3.204,3.436 3.2,3.437 3.195,3.442 3.188,3.449 3.181,3.453 3.178,3.455 3.174,3.457 3.172,3.46 3.165,3.466 3.158,3.47 3.151,3.476 3.149,3.479 3.146,3.48 3.143,3.482 3.134,3.489 3.124,3.497 3.115,3.504 3.113,3.504 3.113,3.506 3.112,3.507 3.104,3.513 3.095,3.52 3.085,3.526 3.083,3.527 3.079,3.531 3.078,3.533 3.071,3.539 3.064,3.543 3.056,3.549 3.054,3.551 3.049,3.553 3.047,3.556 3.039,3.56 3.032,3.566 3.026,3.571 3.024,3.574 3.02,3.576 3.017,3.579 3.007,3.586 2.996,3.591 2.988,3.601 2.996,3.651 3.004,3.701 3.008,3.754 3.383,3.479 3.701,3.222 3.927,3.006 4.07,3.339 4.168,3.697 4.218,4.069 4.219,4.076 4.221,4.086 4.221,4.091 l 0,0.002 C 4.224,4.11 4.225,4.124 4.228,4.14 l 0,0.008 c 0.001,0.013 0.003,0.028 0.004,0.042 0.002,0.005 0.002,0.014 0.003,0.021 10e-4,0.01 10e-4,0.022 0.002,0.032 0,0.01 0.002,0.018 0.004,0.028 l 0,0.019 c 0.001,0.008 0.003,0.017 0.003,0.027 0,0.007 0.001,0.015 0.001,0.023 0,0.007 0.001,0.014 0.001,0.021 0.002,0.017 0.003,0.034 0.005,0.053 0.028,0.001 0.068,0.004 0.118,0 C 4.345,3.885 4.221,3.378 4.018,2.916 4.095,2.838 4.158,2.766 4.205,2.702 4.446,3.211 4.593,3.774 4.625,4.365 4.664,4.354 4.702,4.337 4.742,4.317 M 3.756,1.752 C 3.746,1.737 3.735,1.725 3.723,1.712 L 3.722,1.71 C 3.713,1.699 3.704,1.686 3.694,1.673 2.898,0.714 1.721,0.078 0.395,0.006 l 0,-0.072 c 0,-0.004 -0.002,-0.007 -0.005,-0.01 0,0 -0.004,-0.004 -0.01,-0.004 l -0.098,0 c -0.007,0 -0.011,0.007 -0.011,0.014 l 0,0.028 0,0.038 0,0.118 0,0.262 0,0.119 0,0.68 c 0.043,0 0.082,0.003 0.124,0.007 l 0,-0.682 C 1.421,0.571 2.346,1.011 3.032,1.69 3.034,1.692 3.035,1.693 3.038,1.695 3.047,1.705 3.056,1.715 3.067,1.725 3.068,1.726 3.069,1.726 3.069,1.727 3.153,1.813 3.234,1.901 3.312,1.995 3.354,1.984 3.396,1.97 3.434,1.957 2.707,1.056 1.622,0.46 0.395,0.386 l 0,-0.264 C 1.721,0.199 2.894,0.849 3.668,1.831 3.712,1.797 3.742,1.769 3.756,1.752 M 3.887,1.87 C 3.894,1.841 3.892,1.816 3.877,1.8 3.877,1.8 3.84,1.737 3.826,1.718 3.813,1.698 3.789,1.67 3.746,1.668 3.756,1.673 3.83,1.679 3.788,1.792 3.785,1.803 3.779,1.814 3.773,1.826 3.762,1.849 3.746,1.874 3.723,1.906 l 0.002,0 C 3.683,1.958 3.624,2.027 3.547,2.102 3.52,2.129 3.491,2.156 3.46,2.185 3.282,2.35 3.035,2.554 2.726,2.788 2.746,2.826 2.764,2.867 2.783,2.907 3.146,2.637 3.444,2.394 3.639,2.203 3.655,2.189 3.669,2.173 3.682,2.159 3.683,2.158 3.685,2.158 3.685,2.156 3.688,2.152 3.694,2.149 3.696,2.145 3.698,2.143 3.698,2.143 3.699,2.142 3.702,2.139 3.706,2.136 3.709,2.131 c 0.002,0 0.003,-0.002 0.003,-0.002 0.003,-0.004 0.007,-0.008 0.01,-0.011 0,0 10e-4,-10e-4 0.003,-0.003 C 3.728,2.111 3.732,2.108 3.733,2.105 3.735,2.104 3.736,2.102 3.736,2.101 3.741,2.098 3.743,2.095 3.746,2.091 c 0,0 0.002,-0.002 0.003,-0.002 0.004,-0.004 0.007,-0.008 0.01,-0.012 l 0,-0.002 C 3.768,2.067 3.775,2.06 3.78,2.052 L 3.781,2.049 C 3.785,2.045 3.788,2.042 3.792,2.038 l 0,-10e-4 C 3.796,2.032 3.797,2.03 3.8,2.027 3.802,2.025 3.802,2.024 3.803,2.022 3.836,1.978 3.86,1.941 3.875,1.907 3.875,1.906 3.876,1.903 3.877,1.9 3.877,1.898 3.879,1.898 3.879,1.898 3.879,1.896 3.88,1.894 3.88,1.893 3.882,1.891 3.882,1.888 3.882,1.888 3.885,1.881 3.886,1.876 3.887,1.87 m -4.01,6.978 0,0.261 0,0.121 0,0.077 c 0,0.007 0.006,0.011 0.012,0.011 l 0.101,0 C -0.003,9.318 0,9.314 0,9.307 L 0,9.256 0,9.234 0,9.115 0,8.854 0,8.734 0,7.918 l -0.123,10e-4 0,0.929 z m -4.426,-4.128 0,0.12 c 0,0.001 0,0.001 0.001,0.003 0.009,0.028 0.035,0.059 0.073,0.091 0.033,0.491 0.143,0.962 0.318,1.4 0.002,0.002 0.002,0.005 0.002,0.008 0.004,0.004 0.005,0.008 0.008,0.014 0.003,0.008 0.006,0.015 0.01,0.024 l 0,0.001 c 0.006,0.015 0.013,0.032 0.02,0.048 0.002,0.004 0.003,0.008 0.006,0.011 C -4.092,6.434 -4.05,6.423 -4,6.401 -4.185,5.971 -4.306,5.507 -4.348,5.019 c 0.074,0.043 0.168,0.087 0.275,0.13 0.05,0.389 0.15,0.761 0.297,1.109 C -3.745,6.229 -3.715,6.196 -3.687,6.162 -3.712,6.101 -3.735,6.039 -3.758,5.975 -3.758,5.974 -3.759,5.971 -3.761,5.968 -3.846,5.72 -3.909,5.462 -3.946,5.197 c 0.282,0.103 0.643,0.2 1.036,0.275 0.05,0.012 0.103,0.02 0.154,0.029 l 0,-0.128 C -2.8,5.364 -2.843,5.357 -2.886,5.348 -2.897,5.345 -2.907,5.344 -2.92,5.341 l -10e-4,0 C -2.933,5.34 -2.943,5.338 -2.953,5.336 -2.954,5.334 -2.956,5.334 -2.956,5.334 -2.969,5.333 -2.978,5.331 -2.988,5.327 l -0.003,0 C -3.003,5.326 -3.014,5.323 -3.025,5.32 l -0.002,0 C -3.038,5.318 -3.048,5.316 -3.06,5.314 L -3.061,5.313 C -3.072,5.31 -3.085,5.307 -3.094,5.306 L -3.098,5.304 C -3.108,5.301 -3.12,5.3 -3.131,5.297 l -0.001,0 C -3.142,5.294 -3.155,5.291 -3.166,5.289 l -0.002,0 C -3.18,5.287 -3.191,5.284 -3.201,5.281 l -0.003,0 C -3.215,5.279 -3.225,5.274 -3.236,5.273 l -0.002,0 C -3.251,5.27 -3.262,5.267 -3.273,5.264 -3.285,5.261 -3.295,5.259 -3.307,5.256 l -0.002,0 C -3.32,5.253 -3.33,5.249 -3.34,5.247 -3.342,5.246 -3.343,5.246 -3.343,5.246 -3.355,5.243 -3.366,5.242 -3.377,5.237 -3.389,5.236 -3.4,5.232 -3.411,5.229 l -0.002,0 C -3.425,5.226 -3.434,5.223 -3.446,5.219 l -0.003,0 C -3.459,5.217 -3.469,5.213 -3.48,5.21 l -10e-4,0 C -3.504,5.204 -3.527,5.196 -3.55,5.19 -3.561,5.186 -3.572,5.184 -3.582,5.18 l -0.002,0 C -3.595,5.177 -3.606,5.173 -3.617,5.17 l -10e-4,0 C -3.628,5.166 -3.64,5.163 -3.65,5.16 -3.661,5.157 -3.672,5.153 -3.682,5.15 l -0.002,0 C -3.695,5.147 -3.705,5.143 -3.715,5.14 l -0.001,0 C -3.738,5.133 -3.759,5.128 -3.779,5.119 l -0.002,0 C -3.792,5.116 -3.801,5.113 -3.812,5.109 l -0.002,0 C -3.823,5.106 -3.832,5.102 -3.842,5.099 l -0.002,0 C -3.863,5.09 -3.885,5.085 -3.905,5.078 -3.905,5.076 -3.906,5.076 -3.906,5.076 -3.914,5.073 -3.925,5.07 -3.933,5.068 L -3.935,5.066 C -3.944,5.063 -3.954,5.059 -3.963,5.056 -4.007,5.041 -4.047,5.025 -4.087,5.006 -4.093,5.005 -4.098,5.002 -4.105,4.999 c 0,0 -0.002,0 -0.003,-10e-4 C -4.114,4.996 -4.12,4.992 -4.12,4.992 L -4.127,4.991 C -4.14,4.985 -4.151,4.979 -4.162,4.974 l -0.002,0 C -4.17,4.971 -4.175,4.968 -4.183,4.965 l -0.001,0 C -4.19,4.962 -4.195,4.959 -4.201,4.956 -4.207,4.954 -4.213,4.951 -4.218,4.948 -4.224,4.945 -4.229,4.942 -4.234,4.941 L -4.237,4.939 C -4.241,4.937 -4.248,4.934 -4.252,4.931 l -0.002,0 C -4.264,4.925 -4.275,4.919 -4.285,4.915 l -10e-4,0 C -4.291,4.912 -4.296,4.908 -4.301,4.905 l -10e-4,0 C -4.312,4.899 -4.322,4.894 -4.331,4.888 -4.337,4.887 -4.341,4.882 -4.345,4.881 l -0.001,0 C -4.351,4.877 -4.355,4.875 -4.361,4.871 -4.406,4.841 -4.448,4.813 -4.476,4.781 -4.479,4.78 -4.48,4.777 -4.483,4.774 -4.509,4.748 -4.546,4.714 -4.524,4.69 -4.537,4.694 -4.549,4.704 -4.549,4.72 m 4.422,4.51 C -0.134,9.229 -0.142,9.227 -0.142,9.227 c 0,0.002 0.009,0.002 0.015,0.003 M 4.191,6.843 C 4.236,6.82 4.269,6.799 4.285,6.78 4.285,6.78 4.34,6.685 4.353,6.662 4.366,6.639 4.35,6.611 4.321,6.601 4.338,6.607 4.356,6.628 4.309,6.656 4.296,6.664 4.282,6.671 4.269,6.678 4.266,6.679 4.265,6.681 4.265,6.681 4.137,6.746 3.953,6.812 3.72,6.88 l 0,-0.001 C 3.665,6.895 3.608,6.91 3.547,6.926 l 0,10e-4 C 3.389,6.967 3.213,7.008 3.025,7.048 l 0,0.127 C 3.048,7.171 3.072,7.165 3.094,7.16 l 0.004,0 C 3.104,7.158 3.111,7.157 3.116,7.155 c 0,0 0.005,-0.001 0.008,-0.003 0,0 0.011,-0.001 0.017,-0.001 C 3.141,7.15 3.145,7.15 3.146,7.15 3.153,7.147 3.159,7.147 3.165,7.145 L 3.172,7.144 C 3.178,7.142 3.183,7.141 3.188,7.14 3.192,7.14 3.193,7.138 3.193,7.138 3.202,7.137 3.208,7.135 3.213,7.134 c 0.003,0 0.007,0 0.01,-0.002 C 3.228,7.131 3.233,7.13 3.233,7.13 3.245,7.127 3.253,7.125 3.26,7.122 c 0.002,0 0.004,0 0.006,-10e-4 0.007,0 0.013,-0.001 0.02,-0.003 C 3.287,7.117 3.29,7.117 3.293,7.115 3.299,7.114 3.305,7.114 3.31,7.113 3.313,7.111 3.315,7.11 3.317,7.11 3.323,7.108 3.329,7.108 3.335,7.107 3.337,7.105 3.339,7.105 3.342,7.104 3.347,7.103 3.353,7.101 3.359,7.1 c 0,0 0.004,0 0.005,-0.002 0.008,-10e-4 0.013,-0.003 0.02,-0.004 10e-4,0 0.003,0 0.005,-0.001 C 3.396,7.091 3.403,7.09 3.41,7.088 l 0.003,0 C 3.42,7.084 3.428,7.083 3.437,7.081 3.498,7.065 3.56,7.05 3.618,7.034 3.627,7.031 3.636,7.03 3.644,7.027 3.662,7.023 3.681,7.018 3.698,7.013 3.725,7.004 3.749,6.998 3.775,6.991 3.857,6.966 3.933,6.94 4.001,6.917 4.073,6.892 4.134,6.87 4.181,6.846 4.184,6.845 4.185,6.845 4.189,6.843 l 0.002,0 z m -3.92,2.391 0,0.022 0,0.051 c 0,0.003 0.001,0.007 0.004,0.009 0,0 0.003,0.002 0.007,0.002 l 0.098,0 c 0.009,0 0.013,-0.004 0.013,-0.011 l 0,-0.077 C 1.854,9.147 3.132,8.388 3.92,7.262 3.977,7.235 4.024,7.208 4.06,7.18 c 0,0 0.003,0 0.004,-0.002 0,0 0.071,-0.12 0.091,-0.145 C 4.172,7.01 4.158,6.98 4.135,6.969 4.151,6.98 4.158,6.994 4.112,7.033 4.098,7.044 4.082,7.057 4.066,7.067 4.061,7.07 4.058,7.071 4.055,7.074 4.05,7.077 4.047,7.08 4.041,7.083 3.981,7.118 3.908,7.152 3.827,7.187 3.819,7.191 3.811,7.192 3.805,7.197 c 0,0 -0.002,0.001 -0.003,0.001 C 3.795,7.201 3.788,7.204 3.779,7.207 L 3.776,7.208 C 3.769,7.211 3.762,7.214 3.753,7.217 3.745,7.218 3.738,7.222 3.729,7.225 L 3.725,7.227 C 3.718,7.229 3.709,7.231 3.701,7.235 3.694,7.238 3.685,7.242 3.676,7.244 L 3.674,7.245 C 3.665,7.248 3.656,7.249 3.649,7.254 3.648,7.255 3.646,7.255 3.645,7.256 3.628,7.261 3.611,7.266 3.594,7.272 c -0.002,0 -0.003,0 -0.005,0.002 C 3.582,7.275 3.572,7.278 3.564,7.282 l -0.002,0 C 3.554,7.285 3.544,7.288 3.537,7.291 l -0.002,0 C 3.525,7.294 3.517,7.296 3.508,7.299 3.506,7.301 3.505,7.301 3.505,7.301 3.495,7.302 3.486,7.306 3.477,7.308 3.467,7.311 3.458,7.313 3.45,7.318 l -0.003,0 C 3.437,7.321 3.427,7.323 3.419,7.325 3.417,7.326 3.417,7.326 3.415,7.326 3.339,7.349 3.262,7.37 3.182,7.389 3.169,7.392 3.156,7.396 3.141,7.397 3.129,7.402 3.116,7.405 3.104,7.409 3.091,7.41 3.078,7.413 3.065,7.416 l -10e-4,0 C 3.05,7.42 3.038,7.423 3.026,7.426 l -10e-4,0 0,0.127 0,0.165 C 3.101,7.647 3.172,7.574 3.242,7.5 3.415,7.455 3.572,7.405 3.705,7.356 2.932,8.362 1.741,9.031 0.393,9.108 l 0,-0.26 C 1.302,8.793 2.132,8.452 2.797,7.915 l -0.194,0 C 1.979,8.381 1.22,8.677 0.393,8.727 l 0,-0.809 -0.122,0 0,0.816 0,0.12 0,0.261 0,0.119 z M -2.79,1.716 c 0.662,-0.668 1.553,-1.11 2.545,-1.202 L -0.227,0.393 C -1.491,0.497 -2.598,1.162 -3.302,2.134 -3.225,2.136 -3.169,2.129 -3.148,2.126 -3.04,1.985 -2.924,1.851 -2.8,1.725 -2.796,1.72 -2.793,1.719 -2.79,1.716 m -1.398,4.671 c -0.009,0.036 -0.002,0.071 0.004,0.079 l 0.059,0.109 c 0.001,0.003 0.001,0.005 0.001,0.005 0.019,0.012 0.044,0.02 0.078,0.022 l 0.003,0 0.003,0 0.001,0 c 0.009,0.002 0.018,0.003 0.026,0.003 0.03,0 0.064,-0.004 0.102,-0.008 0.075,-0.013 0.163,-0.032 0.264,-0.063 0.036,-0.01 0.075,-0.023 0.114,-0.036 C -3.518,6.495 -3.506,6.49 -3.491,6.486 -3.485,6.484 -3.477,6.481 -3.47,6.478 -3.463,6.477 -3.456,6.473 -3.45,6.471 -3.443,6.47 -3.436,6.466 -3.429,6.466 l 0.002,-0.002 c 0.007,-0.003 0.014,-0.006 0.02,-0.007 l 10e-4,0 c 0.007,-0.003 0.014,-0.006 0.02,-0.009 l 0.002,0 C -3.377,6.446 -3.37,6.444 -3.363,6.441 -3.363,6.44 -3.362,6.44 -3.362,6.44 -3.355,6.438 -3.347,6.434 -3.34,6.433 l 10e-4,0 c 0.007,-0.004 0.014,-0.007 0.022,-0.009 l 0.001,0 C -3.309,6.42 -3.302,6.419 -3.295,6.416 l 0.002,-0.002 c 0.007,-10e-4 0.014,-0.004 0.02,-0.007 l 0.002,0 c 0.008,-0.004 0.015,-0.006 0.02,-0.01 0,0 0.003,0 0.005,-0.001 C -3.241,6.394 -3.233,6.393 -3.226,6.39 -3.225,6.389 -3.225,6.387 -3.225,6.387 -3.216,6.386 -3.209,6.381 -3.204,6.381 -3.202,6.38 -3.201,6.38 -3.199,6.379 -3.192,6.376 -3.186,6.374 -3.18,6.371 -3.178,6.37 -3.176,6.37 -3.175,6.369 c 0.007,-0.003 0.013,-0.005 0.02,-0.007 0.003,0 0.004,-0.002 0.004,-0.002 0.009,-0.004 0.015,-0.006 0.02,-0.008 C -3.129,6.35 -3.126,6.35 -3.126,6.35 -3.118,6.347 -3.112,6.344 -3.107,6.343 -3.104,6.342 -3.102,6.34 -3.099,6.34 -3.094,6.336 -3.088,6.334 -3.081,6.333 -3.08,6.332 -3.078,6.33 -3.075,6.33 -3.068,6.327 -3.062,6.323 -3.055,6.322 -3.054,6.32 -3.052,6.319 -3.052,6.319 -3.044,6.317 -3.037,6.314 -3.031,6.312 -3.03,6.31 -3.027,6.309 -3.027,6.309 -3.018,6.306 -3.012,6.305 -3.007,6.302 -3.004,6.3 -3.001,6.299 -2.999,6.297 -2.993,6.296 -2.987,6.293 -2.981,6.29 c 0,0 0.006,-0.001 0.01,-0.003 C -2.965,6.285 -2.96,6.282 -2.954,6.28 -2.951,6.279 -2.948,6.277 -2.945,6.276 -2.94,6.273 -2.934,6.272 -2.928,6.269 -2.926,6.267 -2.923,6.266 -2.92,6.263 -2.914,6.262 -2.907,6.259 -2.903,6.258 -2.9,6.256 -2.896,6.253 -2.896,6.253 -2.887,6.25 -2.881,6.248 -2.876,6.246 -2.873,6.243 -2.87,6.242 -2.866,6.24 c 0.005,-0.001 0.01,-0.004 0.016,-0.007 0,0 0.007,-0.003 0.011,-0.004 0.006,-0.001 0.012,-0.004 0.016,-0.007 0.004,-0.002 0.008,-0.002 0.011,-0.004 0.007,-0.003 0.013,-0.005 0.02,-0.009 0.003,-10e-4 0.005,-10e-4 0.007,-0.004 0.01,-0.004 0.019,-0.009 0.029,-0.01 l 0,-0.137 C -3.08,6.202 -3.36,6.314 -3.588,6.387 -3.627,6.401 -3.666,6.413 -3.702,6.423 l 10e-4,0 c -0.102,0.03 -0.192,0.048 -0.264,0.058 -0.004,0 -0.007,0 -0.011,0.002 l -10e-4,0 -0.01,0.001 -0.002,0 -0.01,0 c 0,0 -0.003,0 -0.003,0.002 l -0.005,0 -0.005,0 c 0,0 -0.006,0 -0.009,0.001 l -0.005,0 -0.003,0 -0.008,0 -0.004,0 -0.012,0 c -0.013,0 -0.027,0 -0.04,-0.001 C -4.137,6.481 -4.175,6.461 -4.188,6.387 M -0.244,8.72 C -1.023,8.65 -1.739,8.362 -2.331,7.919 l -0.193,0 c 0.64,0.517 1.431,0.849 2.297,0.922 L -0.244,8.72 Z M -3.493,7.284 c 0.003,-0.002 0.005,-0.002 0.005,-0.002 0,0 -0.002,0 -0.005,0.002 m -0.269,-0.123 0,0 c 0,0 10e-4,0 0.003,0.001 l 0.004,0 c 10e-4,0.003 0.003,0.003 0.003,0.003 l 0.004,0 0.004,0 c 0.002,0.002 0.003,0.002 0.003,0.002 0,0 0.005,0 0.006,0.001 l 10e-4,0 c 0.006,0 0.012,10e-4 0.018,0.003 0.019,0.003 0.042,0.004 0.068,0.004 l 0.008,0 c 0.021,0 0.043,-10e-4 0.068,-0.003 0.004,-10e-4 0.009,-10e-4 0.014,-0.003 l 10e-4,-10e-4 c 0.014,-0.001 0.03,-0.003 0.046,-0.006 0.005,0 0.01,-0.001 0.017,-0.002 0.015,-0.003 0.033,-0.008 0.05,-0.009 0.005,-10e-4 0.011,-0.003 0.017,-0.004 l 10e-4,0 C -3.409,7.142 -3.39,7.138 -3.372,7.134 -3.31,7.12 -3.243,7.1 -3.172,7.077 -3.166,7.075 -3.159,7.073 -3.152,7.071 -3.15,7.07 -3.148,7.07 -3.148,7.07 -3.139,7.067 -3.134,7.064 -3.126,7.063 -3.125,7.061 -3.124,7.061 -3.122,7.06 -3.101,7.054 -3.08,7.045 -3.06,7.038 -3.055,7.037 -3.052,7.037 -3.048,7.036 -3.042,7.034 -3.037,7.031 -3.031,7.03 -3.027,7.028 -3.024,7.027 -3.02,7.024 c 0.006,0 0.012,-0.003 0.017,-0.006 C -2.994,7.016 -2.984,7.013 -2.975,7.01 -2.971,7.007 -2.965,7.006 -2.961,7.004 -2.956,7.003 -2.95,7 -2.945,6.998 -2.94,6.997 -2.936,6.994 -2.93,6.993 c 0.006,-0.002 0.012,-0.004 0.017,-0.007 0,0 0.009,-0.003 0.013,-0.005 C -2.89,6.977 -2.879,6.973 -2.868,6.969 -2.866,6.967 -2.864,6.966 -2.864,6.966 -2.853,6.961 -2.845,6.96 -2.836,6.956 -2.833,6.954 -2.83,6.953 -2.824,6.952 -2.817,6.949 -2.809,6.946 -2.8,6.943 -2.797,6.94 -2.794,6.94 -2.79,6.939 -2.781,6.934 -2.767,6.929 -2.757,6.924 l 0,0.134 0,0.129 C -2.796,7.178 -2.834,7.171 -2.871,7.162 -2.904,7.155 -2.938,7.147 -2.971,7.14 c -0.01,0.002 -0.02,0.007 -0.03,0.01 -0.004,10e-4 -0.01,0.002 -0.014,0.004 -0.005,0.003 -0.01,0.004 -0.015,0.006 -0.004,10e-4 -0.01,0.002 -0.017,0.005 -0.003,0.002 -0.005,0.003 -0.01,0.003 -0.005,0.004 -0.011,0.004 -0.017,0.007 -0.004,0.002 -0.007,0.003 -0.011,0.003 -0.076,0.026 -0.147,0.047 -0.213,0.066 l -0.003,0 c 0,0 -0.011,0.001 -0.016,0.004 0,0 -0.003,0 -0.005,10e-4 -0.006,0 -0.012,0.002 -0.018,0.003 l -0.002,0.002 c -0.007,0.002 -0.014,0.002 -0.02,0.004 -10e-4,0 -10e-4,0 -0.002,0.001 10e-4,-0.001 10e-4,-0.001 0.002,-0.001 0.009,0.003 0.017,0.006 0.026,0.008 l 10e-4,0.002 c 0.01,0.003 0.019,0.006 0.028,0.007 l 0.002,10e-4 c 0.01,0.005 0.019,0.008 0.029,0.01 0.02,0.006 0.038,0.012 0.06,0.017 l 0,0.002 c 0.01,0.003 0.02,0.004 0.03,0.008 l 10e-4,0 c 0.13,0.039 0.272,0.076 0.428,0.11 l 0,0.128 c 0,0 -0.002,0 -0.003,-0.001 10e-4,0.001 0.003,0.001 0.003,0.003 l 0,0.164 C -2.833,7.645 -2.907,7.571 -2.977,7.497 -3.154,7.45 -3.31,7.402 -3.443,7.351 c 0.761,0.993 1.93,1.661 3.255,1.755 l 0.018,0.12 C -1.599,9.135 -2.85,8.392 -3.632,7.292 -3.699,7.289 -3.746,7.275 -3.779,7.252 c 0,-0.003 0,-0.004 -0.002,-0.004 L -3.848,7.127 C -3.849,7.125 -3.859,7.095 -3.853,7.068 c 0.005,0.042 0.031,0.076 0.091,0.093"
           style="fill:#fbab18;fill-opacity:1;fill-rule:nonzero;stroke:none"
           id="path9308"
           inkscape:connector-curvature="0" />
      </g>
      <g
         id="g9310"
         transform="translate(1628.3415,524.23986)">
        <path
           d="M 0,0 C 0.05,0.389 0.15,0.761 0.296,1.109 0.221,1.18 0.138,1.224 0.072,1.252 -0.113,0.822 -0.234,0.358 -0.275,-0.13 -0.201,-0.087 -0.107,-0.043 0,0 m 8.091,-2.233 c 0.077,-0.078 0.14,-0.15 0.187,-0.214 0.241,0.509 0.387,1.072 0.42,1.663 C 8.601,-0.752 8.514,-0.74 8.442,-0.735 8.417,-1.264 8.294,-1.771 8.091,-2.233 M 0.4,-2.4 c -0.249,0.508 -0.4,1.072 -0.427,1.665 -0.071,-0.003 -0.162,-0.017 -0.261,-0.05 0.036,-0.62 0.197,-1.207 0.456,-1.739 0.061,0.042 0.141,0.084 0.232,0.124 m 4.067,-2.363 0,-0.263 C 5.794,-4.95 6.967,-4.3 7.741,-3.317 7.685,-3.278 7.607,-3.231 7.507,-3.192 6.78,-4.093 5.694,-4.689 4.467,-4.763 M 0.771,-3.015 C 0.693,-3.017 0.591,-3.028 0.485,-3.061 1.237,-4.17 2.472,-4.922 3.886,-5.024 l -0.04,0.268 C 2.582,-4.652 1.474,-3.987 0.771,-3.015 M 4.466,3.699 C 5.375,3.644 6.204,3.303 6.87,2.766 l 0.228,0 0,-0.197 C 7.173,2.498 7.245,2.425 7.315,2.351 7.488,2.306 7.645,2.256 7.778,2.207 7.005,3.213 5.814,3.882 4.466,3.959 l 0,-0.26 z M 8.209,1.522 C 8.088,1.543 7.98,1.549 7.9,1.55 8.165,1.082 8.343,0.557 8.413,0 8.52,-0.043 8.614,-0.087 8.688,-0.13 8.635,0.462 8.469,1.019 8.209,1.522 M 0.63,2.202 C 1.391,3.195 2.559,3.863 3.885,3.957 L 3.846,3.692 C 2.98,3.619 2.189,3.287 1.549,2.77 l -0.234,0 0,-0.202 C 1.24,2.497 1.166,2.422 1.096,2.348 0.919,2.301 0.762,2.253 0.63,2.202"
           style="fill:#ffee00;fill-opacity:1;fill-rule:nonzero;stroke:none"
           id="path9312"
           inkscape:connector-curvature="0" />
      </g>
      <g
         id="g9314"
         transform="translate(1636.4798,526.15786)">
        <path
           d="m 0,0 c -0.211,0.138 -0.631,0.267 -1.04,0.359 l 0,-0.251 c 0.512,-0.107 0.97,-0.239 1.17,-0.335 L 0,0 Z"
           style="fill:#ffee00;fill-opacity:1;fill-rule:nonzero;stroke:none"
           id="path9316"
           inkscape:connector-curvature="0" />
      </g>
      <g
         id="g9318"
         transform="translate(1629.443,526.23056)">
        <path
           d="m 0,0 c 0.069,0.016 0.14,0.033 0.214,0.047 l 0,0.237 C -0.016,0.232 -0.222,0.175 -0.391,0.118 -0.281,0.091 -0.15,0.053 0,0"
           style="fill:#ffee00;fill-opacity:1;fill-rule:nonzero;stroke:none"
           id="path9320"
           inkscape:connector-curvature="0" />
      </g>
      <g
         id="g9322"
         transform="translate(1629.6582,524.46356)">
        <path
           d="m 0,0 c -0.044,-0.009 -0.087,-0.016 -0.13,-0.024 -0.651,-0.126 -1.38,-0.355 -1.59,-0.567 -0.006,-0.008 -0.014,-0.015 -0.023,-0.02 l 0,-0.244 c 0.184,0.181 0.812,0.405 1.589,0.559 0.05,0.011 0.103,0.02 0.154,0.03 L 0,0 Z"
           style="fill:#ffee00;fill-opacity:1;fill-rule:evenodd;stroke:none"
           id="path9324"
           inkscape:connector-curvature="0" />
      </g>
      <g
         id="g9326"
         transform="translate(1637.1567,523.87216)">
        <path
           d="M 0,0 C -0.21,0.212 -0.938,0.442 -1.59,0.567 -1.632,0.576 -1.674,0.583 -1.717,0.59 l 0,-0.265 c 0.051,-0.01 0.101,-0.019 0.152,-0.03 0.774,-0.154 1.399,-0.376 1.586,-0.557 l 0,0.242 C 0.012,-0.013 0.006,-0.006 0,0"
           style="fill:#ffee00;fill-opacity:1;fill-rule:evenodd;stroke:none"
           id="path9328"
           inkscape:connector-curvature="0" />
      </g>
      <g
         id="g9330"
         transform="translate(1629.8764,522.05816)">
        <path
           d="m 0,0 c -0.174,-0.038 -0.342,-0.081 -0.505,-0.13 -0.392,-0.111 -0.816,-0.285 -0.898,-0.419 0,-0.001 -10e-4,-0.002 -0.002,-0.004 l 0.142,-0.232 c 0.087,0.107 0.379,0.264 0.84,0.395 0.183,0.052 0.363,0.096 0.544,0.136 C 0.075,-0.172 0.035,-0.087 0,0"
           style="fill:#ffee00;fill-opacity:1;fill-rule:evenodd;stroke:none"
           id="path9332"
           inkscape:connector-curvature="0" />
      </g>
      <path
         d="m 1632.685,528.34686 -0.271,0 0,-1.338 0.271,0 0,1.338 z"
         style="fill:#ffee00;fill-opacity:1;fill-rule:evenodd;stroke:none"
         id="path9334"
         inkscape:connector-curvature="0" />
      <g
         id="g9336"
         transform="translate(1632.544,520.26416)">
        <path
           d="m 0,0 c -0.043,0 -0.087,0.001 -0.13,0.003 l 0,-1.215 0.271,0 0,1.218 C 0.093,0.001 0.047,0 0,0"
           style="fill:#ffee00;fill-opacity:1;fill-rule:evenodd;stroke:none"
           id="path9338"
           inkscape:connector-curvature="0" />
      </g>
      <g
         id="g9340"
         transform="translate(1636.5952,521.60076)">
        <path
           d="m 0,0 c -0.178,0.279 -0.642,0.677 -1.193,1.092 -0.038,-0.243 -0.11,-0.475 -0.205,-0.694 0.613,-0.456 1.037,-0.831 1.099,-1.019 l 0.343,0.527 C 0.04,-0.067 0.026,-0.036 0,0"
           style="fill:#ffee00;fill-opacity:1;fill-rule:evenodd;stroke:none"
           id="path9342"
           inkscape:connector-curvature="0" />
      </g>
      <g
         id="g9344"
         transform="translate(1629.6568,526.01536)">
        <path
           d="m 0,0 c -0.402,0.164 -0.701,0.248 -0.882,0.251 l -0.009,0 c -0.047,0 -0.084,-0.006 -0.114,-0.014 L -1.29,-0.322 c 0.01,0 0.023,0.003 0.035,0.003 0.22,0 0.672,-0.153 1.256,-0.411 L 0,0 Z"
           style="fill:#ffee00;fill-opacity:1;fill-rule:evenodd;stroke:none"
           id="path9346"
           inkscape:connector-curvature="0" />
      </g>
      <g
         id="g9348"
         transform="translate(1636.2075,520.86546)">
        <path
           d="m 0,0 0,0 c 0,0.003 -0.001,0.004 -0.001,0.009 -0.002,0.002 -0.003,0.007 -0.005,0.008 -0.002,0.012 -0.008,0.023 -0.014,0.034 -0.038,0.08 -0.148,0.207 -0.313,0.359 -0.002,0.002 -0.003,0.003 -0.003,0.005 0,0 -0.003,0 -0.003,0.001 l 0,-0.001 C -0.516,0.581 -0.761,0.781 -1.067,1.013 -1.208,0.728 -1.397,0.469 -1.619,0.247 -1.878,-0.011 -2.187,-0.222 -2.531,-0.37 c 0.445,0.039 0.868,0.097 1.209,0.168 0.122,0.018 0.329,0.062 0.561,0.118 0.097,0.097 0.191,0.198 0.279,0.305 0.255,-0.063 0.406,-0.2 0.445,-0.244 -0.021,-0.027 -0.044,-0.054 -0.068,-0.084 l 0.033,0 c 0.011,0 0.019,0 0.029,0.003 0.016,0.006 0.067,0.016 0.044,0.103 C 0,-0.001 0,-0.001 0,0 m 0.992,2.558 0,0 -0.002,0 0,0.001 c 0,0 0,0.002 -0.001,0.003 0,0 -0.002,0 -0.002,0.002 l -0.001,10e-4 0,10e-4 0,0.002 -0.001,0 -0.002,0 0,10e-4 -0.001,0.002 0,10e-4 -0.002,0.002 0,0.001 -0.001,0 -0.001,0 -0.002,0.003 C 0.975,2.579 0.973,2.581 0.972,2.584 0.968,2.588 0.961,2.595 0.956,2.601 0.948,2.612 0.936,2.622 0.923,2.633 0.843,2.7 0.714,2.772 0.554,2.839 0.526,2.851 0.493,2.863 0.462,2.876 l 0,-0.032 0,-0.017 C 0.045,2.698 -0.456,2.601 -0.768,2.546 l 0,-0.263 C -0.768,2.202 -0.773,2.12 -0.78,2.041 -0.308,2.115 0.109,2.207 0.425,2.294 0.44,2.408 0.45,2.524 0.457,2.639 0.544,2.646 0.74,2.646 0.949,2.542 0.948,2.521 0.948,2.499 0.945,2.478 c 0.02,0.01 0.035,0.02 0.048,0.029 0.01,0.017 0.006,0.034 0,0.048 0,0 -0.001,0 -0.001,0.003 m -0.641,-2.041 0.014,0 c 0.01,0 0.019,0 0.027,0.003 0.021,0.009 0.054,0.054 0.04,0.121 L 0.351,0.517 Z M 0.348,5.198 C 0.359,5.208 0.36,5.224 0.319,5.258 0.305,5.27 0.289,5.282 0.272,5.292 L 0.329,5.191 C 0.336,5.193 0.342,5.194 0.348,5.198 M 0.996,2.916 C 1.015,2.934 0.992,2.964 0.971,2.987 l 0,-0.076 c 0.009,0 0.021,0.002 0.028,0.005 l -0.003,0 z m -1.764,2.081 0,-0.524 c 0.313,0.063 0.589,0.131 0.805,0.192 -0.043,0.089 -0.09,0.174 -0.138,0.258 0.061,-0.001 0.307,0.02 0.597,-0.061 l 0,0.001 C 0.502,4.849 0.509,4.836 0.514,4.822 l 0.009,0.003 c 0,0 0.006,10e-4 0.009,0.003 C 0.546,4.835 0.561,4.855 0.516,4.882 0.503,4.889 0.49,4.896 0.476,4.903 0.318,4.986 0.071,5.069 -0.247,5.151 -0.242,5.146 -0.238,5.139 -0.234,5.132 -0.383,5.087 -0.562,5.039 -0.768,4.997"
           style="fill:#000000;fill-opacity:1;fill-rule:nonzero;stroke:none"
           id="path9350"
           inkscape:connector-curvature="0" />
      </g>
      <g
         id="g9352"
         transform="translate(1628.4712,521.50526)">
        <path
           d="m 0,0 c -0.006,-0.01 -0.016,-0.027 -0.014,-0.036 0.001,-0.01 0.007,-0.015 0.022,-0.021 0,0 -0.007,0.001 -0.009,0.001 0.012,-0.002 0.025,-0.002 0.038,-0.002 L 0,0 Z M 2.036,-0.385 C 2.026,-0.375 2.018,-0.366 2.008,-0.356 1.572,-0.291 1.126,-0.207 0.664,-0.101 0.658,-0.095 0.654,-0.09 0.65,-0.084 0.442,-0.165 0.274,-0.256 0.208,-0.346 0.199,-0.355 0.182,-0.385 0.221,-0.409 l -0.003,0 c 0.023,-0.01 0.046,-0.018 0.066,-0.027 -0.015,0.023 -0.028,0.043 -0.042,0.066 0.255,0.118 0.502,0.089 0.553,0.082 0.11,-0.147 0.23,-0.283 0.358,-0.41 0.499,-0.126 1.103,-0.231 1.765,-0.295 -0.327,0.147 -0.627,0.356 -0.882,0.608 M 3.773,-2.406 C 3.789,-2.407 3.803,-2.409 3.82,-2.41 l 0,0.499 C 3.779,-1.908 3.739,-1.904 3.698,-1.9 l 0.075,-0.506 z m -2.586,4.055 0,0.258 c -0.312,0.054 -0.814,0.151 -1.23,0.28 l 0,0.017 0,0.032 C -0.091,2.217 -0.135,2.199 -0.178,2.18 -0.217,2.165 -0.254,2.147 -0.288,2.132 -0.289,2.13 -0.291,2.129 -0.291,2.129 -0.294,2.128 -0.295,2.128 -0.298,2.126 -0.392,2.079 -0.468,2.029 -0.519,1.982 -0.527,1.977 -0.534,1.968 -0.54,1.962 -0.546,1.955 -0.55,1.949 -0.556,1.944 -0.557,1.941 -0.559,1.939 -0.56,1.938 l -0.001,-0.003 -0.002,0 0,-0.001 -0.001,0 c 0,0 0,-0.002 -0.002,-0.003 l 0,-0.002 0,-0.001 -0.001,0 -0.002,0 0,-10e-4 0,-0.002 -0.001,-0.001 -0.001,0 0,-0.002 -0.002,-10e-4 0,-0.001 0,-0.002 -0.001,0 0,-0.003 -0.002,0 0,-0.001 0,-0.002 C -0.577,1.911 -0.577,1.909 -0.577,1.909 l -0.002,-0.001 0,-10e-4 0,-0.002 -0.001,-0.001 0,-0.002 C -0.581,1.901 -0.581,1.901 -0.581,1.9 l 0,-0.003 -0.002,0 0,-0.002 0,-0.001 0,-0.002 0,-0.002 0,-0.002 0,-10e-4 0,-0.003 0,-0.002 0,-0.002 0.002,-0.002 0,-10e-4 0,-0.002 0.001,0 0.001,-0.003 0,-0.001 0.002,0 c 0,-10e-4 0,-10e-4 0.001,-0.003 l 0,-0.003 C -0.563,1.857 -0.547,1.847 -0.529,1.838 -0.53,1.86 -0.532,1.881 -0.533,1.902 -0.321,2.006 -0.124,2.006 -0.038,1.998 -0.033,1.882 -0.023,1.768 -0.007,1.654 0.307,1.566 0.725,1.475 1.198,1.401 1.19,1.482 1.187,1.565 1.187,1.649 m -1.406,2.256 c 0.017,0.041 0.032,0.081 0.051,0.121 C -0.111,4.011 0.105,3.944 0.256,3.748 0.221,3.664 0.189,3.58 0.162,3.493 c 0.162,-0.14 0.371,-0.3 0.629,-0.485 0.08,0.019 0.159,0.034 0.242,0.05 0.05,0.011 0.103,0.02 0.154,0.029 l 0,0.557 C 0.876,3.782 0.603,3.892 0.381,3.966 l -0.002,0 C 0.376,3.967 0.372,3.967 0.369,3.969 0.366,3.97 0.362,3.971 0.358,3.973 l -0.003,0 c -0.202,0.065 -0.358,0.1 -0.465,0.1 -0.012,0 -0.027,0 -0.04,-0.002 0,0 -0.004,0 -0.005,-10e-4 l -0.007,0 -0.002,0 c 0,0 -0.004,-0.002 -0.007,-0.002 l 0,-10e-4 C -0.205,4.058 -0.234,4.036 -0.245,3.973 c -0.002,0.006 -0.002,0.008 -0.002,0.013 0,-0.006 0,-0.01 0.002,-0.017 0.005,-0.019 0.014,-0.04 0.026,-0.064 M 3.82,6.816 C 3.803,6.813 3.789,6.813 3.773,6.813 L 3.698,6.303 C 3.739,6.31 3.779,6.313 3.82,6.316 l 0,0.5 z m -4.376,-4.545 0,0.076 C -0.577,2.323 -0.599,2.294 -0.581,2.276 -0.574,2.273 -0.566,2.271 -0.556,2.271 M 0.105,4.6 C 0.098,4.618 0.093,4.637 0.091,4.655 0.095,4.695 0.121,4.73 0.181,4.747 L 0.105,4.6 Z"
           style="fill:#000000;fill-opacity:1;fill-rule:nonzero;stroke:none"
           id="path9354"
           inkscape:connector-curvature="0" />
      </g>
      <g
         id="g9356"
         transform="translate(1632.5339,520.22436)">
        <path
           d="m 0,0 c -1.747,0 -2.92,1.48 -2.92,2.863 l 0,3.938 5.841,0 0,-3.938 C 2.921,1.48 1.748,0 0,0"
           style="fill:#ffffff;fill-opacity:1;fill-rule:nonzero;stroke:none"
           id="path9358"
           inkscape:connector-curvature="0" />
      </g>
      <g
         id="g9360"
         transform="translate(1634.1555,523.08716)">
        <path
           d="m 0,0 c 0,-0.668 -0.614,-1.562 -1.622,-1.562 -1.007,0 -1.619,0.894 -1.619,1.562 l 0,2.639 L 0,2.639 0,0 Z m -4.346,3.743 0,-3.743 c 0,-1.287 1.094,-2.666 2.724,-2.666 1.632,0 2.726,1.379 2.726,2.666 l 0,3.743 -5.45,0 z"
           style="fill:#ff1d21;fill-opacity:1;fill-rule:nonzero;stroke:none"
           id="path9362"
           inkscape:connector-curvature="0" />
      </g>
      <g
         id="g9364"
         transform="translate(1630.2079,525.97266)">
        <path
           d="m 0,0 c 0.008,0.208 0.167,0.257 0.167,0.257 l 0.001,0 c 0,0 0.16,-0.049 0.167,-0.257 L 0,0 Z M 0.523,0 0.512,0 0.486,0.248 c 0.034,0.004 0.059,0.03 0.059,0.061 0,0.036 -0.029,0.062 -0.063,0.062 l -0.007,0 -0.007,0.112 0.007,0 0.02,0 c 0.006,0 0.011,0.004 0.011,0.011 l 0,0.079 -0.037,0 0,-0.04 -0.05,0 0,0.04 -0.041,0 0,-0.04 -0.05,0 0,0.04 -0.035,0 0,-0.077 c 0,-0.006 0.005,-0.013 0.005,-0.013 l 0.027,0 0.006,0 -0.006,-0.112 -0.07,0 -0.013,0.239 0.021,0 c 0.007,0 0.011,0.003 0.011,0.011 l 0,0.079 -0.037,0 0,-0.037 -0.05,0 0,0.037 -0.038,0 0,-0.037 -0.052,0 0,0.037 -0.036,0 0,-0.079 c 0,-0.004 0.005,-0.01 0.012,-0.011 l 0.018,0 -0.012,-0.239 -0.07,0 -0.007,0.112 0.006,0 0.021,0 c 0,0 0.013,0.004 0.013,0.011 l 0,0.079 -0.036,0 0,-0.04 -0.053,0 0,0.04 -0.038,0 0,-0.04 -0.053,0 0,0.04 -0.035,0 0,-0.077 c 0,-0.006 0.005,-0.013 0.014,-0.013 l 0.017,0 0.007,0 -0.006,-0.112 -0.005,0 c -0.035,0 -0.064,-0.026 -0.064,-0.062 0,-0.031 0.026,-0.057 0.058,-0.06 L -0.176,0 -0.188,0 c -0.033,0 -0.061,-0.028 -0.061,-0.061 0,-0.033 0.028,-0.06 0.061,-0.06 l 0.711,0 c 0.034,0 0.063,0.027 0.063,0.06 C 0.586,-0.028 0.557,0 0.523,0"
           style="fill:#ffee00;fill-opacity:1;fill-rule:evenodd;stroke:none"
           id="path9366"
           inkscape:connector-curvature="0" />
      </g>
      <g
         id="g9368"
         transform="translate(1632.3758,525.97266)">
        <path
           d="m 0,0 c 0.008,0.208 0.167,0.257 0.167,0.257 l 0.001,0 c 0,0 0.159,-0.049 0.17,-0.257 L 0,0 Z M 0.526,0 0.51,0 0.487,0.248 c 0.034,0.004 0.057,0.03 0.057,0.061 0,0.036 -0.028,0.062 -0.061,0.062 l -0.009,0 -0.007,0.112 0.007,0 0.022,0 c 0,0 0.009,0.004 0.009,0.011 l 0,0.079 -0.033,0 0,-0.04 -0.055,0 0,0.04 -0.037,0 0,-0.04 -0.053,0 0,0.04 -0.034,0 0,-0.077 c 0,-0.006 0.008,-0.013 0.012,-0.013 l 0.018,0 0.009,0 -0.008,-0.112 -0.068,0 -0.013,0.239 0.018,0 c 0.007,0 0.014,0.003 0.014,0.011 l 0,0.079 -0.036,0 0,-0.037 -0.052,0 0,0.037 -0.037,0 0,-0.037 -0.053,0 0,0.037 -0.036,0 0,-0.079 c 0,-0.004 0.006,-0.01 0.013,-0.011 l 0.02,0 -0.013,-0.239 -0.07,0 -0.008,0.112 0.005,0 0.02,0 c 0.006,0 0.015,0.004 0.015,0.011 l 0,0.079 -0.039,0 0,-0.04 -0.051,0 0,0.04 -0.036,0 0,-0.04 -0.054,0 0,0.04 -0.034,0 0,-0.077 c 0,-0.006 0.006,-0.013 0.011,-0.013 l 0.02,0 0.007,0 -0.007,-0.112 -0.006,0 c -0.034,0 -0.062,-0.026 -0.062,-0.062 0,-0.031 0.025,-0.057 0.057,-0.06 L -0.177,0 -0.185,0 c -0.036,0 -0.062,-0.028 -0.062,-0.061 0,-0.033 0.026,-0.06 0.062,-0.06 l 0.711,0 c 0.033,0 0.059,0.027 0.059,0.06 C 0.585,-0.028 0.559,0 0.526,0"
           style="fill:#ffee00;fill-opacity:1;fill-rule:evenodd;stroke:none"
           id="path9370"
           inkscape:connector-curvature="0" />
      </g>
      <g
         id="g9372"
         transform="translate(1634.5243,525.97266)">
        <path
           d="m 0,0 c 0.008,0.208 0.167,0.257 0.167,0.257 l 0.003,0 c 0,0 0.158,-0.049 0.168,-0.257 L 0,0 Z M 0.525,0 0.513,0 0.488,0.248 c 0.032,0.004 0.057,0.03 0.057,0.061 0,0.036 -0.029,0.062 -0.063,0.062 l -0.007,0 -0.006,0.112 0.006,0 0.02,0 c 0,0 0.011,0.004 0.011,0.011 l 0,0.079 -0.035,0 0,-0.04 -0.053,0 0,0.04 -0.039,0 0,-0.04 -0.051,0 0,0.04 -0.036,0 0,-0.077 c 0,-0.006 0.006,-0.013 0.013,-0.013 l 0.02,0 0.006,0 -0.006,-0.112 -0.067,0 -0.016,0.239 0.021,0 c 0,0 0.012,0.003 0.012,0.011 l 0,0.079 -0.035,0 0,-0.037 -0.053,0 0,0.037 -0.037,0 0,-0.037 -0.053,0 0,0.037 -0.036,0 0,-0.079 c 0,-0.004 0.006,-0.01 0.014,-0.011 l 0.018,0 -0.013,-0.239 -0.071,0 -0.005,0.112 0.005,0 0.021,0 c 0.004,0 0.013,0.004 0.013,0.011 l 0,0.079 -0.039,0 0,-0.04 -0.051,0 0,0.04 -0.037,0 0,-0.04 -0.052,0 0,0.04 -0.036,0 0,-0.077 c 0,-0.006 0.006,-0.013 0.011,-0.013 l 0.02,0 0.007,0 -0.007,-0.112 -0.005,0 c -0.035,0 -0.062,-0.026 -0.062,-0.062 0,-0.031 0.023,-0.057 0.056,-0.06 L -0.175,0 -0.188,0 c -0.033,0 -0.059,-0.028 -0.059,-0.061 0,-0.033 0.026,-0.06 0.059,-0.06 l 0.713,0 c 0.035,0 0.061,0.027 0.061,0.06 C 0.586,-0.028 0.56,0 0.525,0"
           style="fill:#ffee00;fill-opacity:1;fill-rule:evenodd;stroke:none"
           id="path9374"
           inkscape:connector-curvature="0" />
      </g>
      <g
         id="g9376"
         transform="translate(1630.2079,523.73686)">
        <path
           d="m 0,0 c 0.008,0.208 0.167,0.257 0.167,0.257 l 0.001,0 c 0,0 0.16,-0.049 0.167,-0.257 L 0,0 Z M 0.523,0 0.512,0 0.486,0.249 c 0.034,0.002 0.059,0.027 0.059,0.06 0,0.036 -0.029,0.063 -0.063,0.063 l -0.007,0 -0.007,0.11 0.007,0 0.02,0 c 0.006,0 0.011,0.004 0.011,0.013 l 0,0.078 -0.037,0 0,-0.04 -0.05,0 0,0.04 -0.041,0 0,-0.04 -0.05,0 0,0.04 -0.035,0 0,-0.078 c 0,-0.006 0.005,-0.013 0.005,-0.013 l 0.027,0 0.006,0 -0.006,-0.11 -0.07,0 -0.013,0.238 0.021,0 c 0.007,0 0.011,0.004 0.011,0.011 l 0,0.079 -0.037,0 0,-0.039 -0.05,0 0,0.039 -0.038,0 0,-0.039 -0.052,0 0,0.039 -0.036,0 0,-0.077 c 0,-0.006 0.005,-0.012 0.012,-0.013 l 0.018,0 -0.012,-0.238 -0.07,0 -0.007,0.11 0.006,0 0.021,0 c 0,0 0.013,0.004 0.013,0.013 l 0,0.078 -0.036,0 0,-0.04 -0.053,0 0,0.04 -0.038,0 0,-0.04 -0.053,0 0,0.04 -0.035,0 0,-0.078 c 0,-0.006 0.005,-0.013 0.014,-0.013 l 0.017,0 0.007,0 -0.006,-0.11 -0.005,0 c -0.035,0 -0.064,-0.027 -0.064,-0.063 0,-0.031 0.026,-0.055 0.058,-0.06 L -0.176,0 -0.188,0 c -0.033,0 -0.061,-0.026 -0.061,-0.061 0,-0.033 0.028,-0.057 0.061,-0.057 l 0.711,0 c 0.034,0 0.063,0.024 0.063,0.057 C 0.586,-0.026 0.557,0 0.523,0"
           style="fill:#ffee00;fill-opacity:1;fill-rule:evenodd;stroke:none"
           id="path9378"
           inkscape:connector-curvature="0" />
      </g>
      <g
         id="g9380"
         transform="translate(1634.5243,523.73686)">
        <path
           d="m 0,0 c 0.008,0.208 0.167,0.257 0.167,0.257 l 0.003,0 c 0,0 0.158,-0.049 0.168,-0.257 L 0,0 Z M 0.525,0 0.513,0 0.488,0.249 c 0.032,0.002 0.057,0.027 0.057,0.06 0,0.036 -0.029,0.063 -0.063,0.063 l -0.007,0 -0.006,0.11 0.006,0 0.02,0 c 0,0 0.011,0.004 0.011,0.013 l 0,0.078 -0.035,0 0,-0.04 -0.053,0 0,0.04 -0.039,0 0,-0.04 -0.051,0 0,0.04 -0.036,0 0,-0.078 c 0,-0.006 0.006,-0.013 0.013,-0.013 l 0.02,0 0.006,0 -0.006,-0.11 -0.067,0 -0.016,0.238 0.021,0 c 0,0 0.012,0.004 0.012,0.011 l 0,0.079 -0.035,0 0,-0.039 -0.053,0 0,0.039 -0.037,0 0,-0.039 -0.053,0 0,0.039 -0.036,0 0,-0.077 c 0,-0.006 0.006,-0.012 0.014,-0.013 l 0.018,0 -0.013,-0.238 -0.071,0 -0.005,0.11 0.005,0 0.021,0 c 0.004,0 0.013,0.004 0.013,0.013 l 0,0.078 -0.039,0 0,-0.04 -0.051,0 0,0.04 -0.037,0 0,-0.04 -0.052,0 0,0.04 -0.036,0 0,-0.078 c 0,-0.006 0.006,-0.013 0.011,-0.013 l 0.02,0 0.007,0 -0.007,-0.11 -0.005,0 c -0.035,0 -0.062,-0.027 -0.062,-0.063 0,-0.031 0.023,-0.055 0.056,-0.06 L -0.175,0 -0.188,0 c -0.033,0 -0.059,-0.026 -0.059,-0.061 0,-0.033 0.026,-0.057 0.059,-0.057 l 0.713,0 c 0.035,0 0.061,0.024 0.061,0.057 C 0.586,-0.026 0.56,0 0.525,0"
           style="fill:#ffee00;fill-opacity:1;fill-rule:evenodd;stroke:none"
           id="path9382"
           inkscape:connector-curvature="0" />
      </g>
      <g
         id="g9384"
         transform="translate(1630.9922,521.41406)">
        <path
           d="m 0,0 c -0.141,0.154 -0.061,0.299 -0.061,0.301 0,0 0.148,0.082 0.3,-0.061 L 0,0 Z M 0.37,0.373 0.362,0.363 0.171,0.522 c 0.02,0.025 0.02,0.059 -0.004,0.084 -0.025,0.022 -0.066,0.022 -0.089,0 L 0.072,0.599 -0.009,0.671 -0.004,0.675 0.01,0.691 c 0.004,0.003 0.006,0.01 0,0.017 L -0.044,0.764 -0.07,0.74 -0.043,0.708 -0.08,0.671 -0.107,0.701 -0.135,0.675 -0.107,0.647 -0.146,0.61 -0.17,0.637 -0.197,0.611 -0.144,0.557 c 0.006,-0.004 0.014,-0.004 0.02,0 l 0.012,0.013 0.006,0.007 0.073,-0.081 -0.049,-0.047 -0.179,0.157 0.017,0.011 c 0.004,0.006 0.006,0.014 0,0.019 L -0.298,0.691 -0.326,0.665 -0.298,0.637 -0.335,0.601 -0.362,0.628 -0.39,0.601 -0.362,0.576 -0.399,0.536 -0.426,0.564 -0.453,0.539 -0.398,0.485 c 0.005,-0.005 0.013,-0.005 0.019,0 l 0.014,0.014 0.158,-0.178 -0.048,-0.05 -0.084,0.071 0.004,0.006 0.014,0.013 c 0.005,0.005 0.006,0.012 0.002,0.018 L -0.376,0.435 -0.401,0.409 -0.373,0.383 -0.409,0.343 -0.436,0.373 -0.465,0.345 -0.436,0.318 -0.472,0.282 -0.5,0.308 -0.526,0.284 -0.472,0.228 c 0.004,-0.003 0.013,-0.004 0.019,0 l 0.014,0.016 0.004,0.003 0.073,-0.08 -0.003,-0.006 c -0.026,-0.026 -0.026,-0.066 0,-0.087 0.023,-0.023 0.059,-0.023 0.084,-0.006 l 0.157,-0.19 -0.009,-0.011 c -0.024,-0.021 -0.024,-0.061 0,-0.085 0.026,-0.024 0.064,-0.024 0.089,0 l 0.503,0.503 c 0.023,0.024 0.023,0.063 0,0.085 C 0.433,0.398 0.393,0.398 0.37,0.373"
           style="fill:#ffee00;fill-opacity:1;fill-rule:evenodd;stroke:none"
           id="path9386"
           inkscape:connector-curvature="0" />
      </g>
      <g
         id="g9388"
         transform="translate(1633.8734,521.65356)">
        <path
           d="m 0,0 c 0.154,0.144 0.298,0.061 0.298,0.061 l 0.001,0 C 0.301,0.06 0.377,-0.086 0.238,-0.24 L 0,0 Z m -0.22,0.131 c -0.022,-0.023 -0.022,-0.061 0,-0.085 l 0.504,-0.504 c 0.022,-0.024 0.062,-0.024 0.088,0 0.023,0.025 0.023,0.065 0,0.086 l -0.01,0.01 0.16,0.191 c 0.024,-0.017 0.061,-0.017 0.082,0.006 0.026,0.021 0.026,0.061 0,0.087 l -0.003,0.005 0.072,0.08 0.006,-0.003 0.014,-0.016 c 0.005,-0.004 0.014,-0.002 0.018,0 L 0.765,0.044 0.74,0.068 0.712,0.043 0.675,0.078 0.701,0.105 0.675,0.134 0.648,0.104 0.611,0.144 0.638,0.169 0.614,0.195 0.559,0.14 C 0.553,0.134 0.554,0.127 0.559,0.121 L 0.573,0.108 0.577,0.102 0.493,0.031 0.446,0.081 0.604,0.259 0.619,0.245 c 0.005,-0.004 0.014,-0.004 0.016,0 L 0.69,0.299 0.665,0.325 0.638,0.296 0.601,0.336 0.628,0.362 0.601,0.389 0.576,0.362 0.536,0.398 0.564,0.426 0.539,0.452 0.483,0.396 C 0.477,0.392 0.48,0.383 0.485,0.378 L 0.498,0.366 0.319,0.209 0.272,0.256 0.345,0.338 0.349,0.331 0.362,0.318 c 0.006,-0.005 0.015,-0.005 0.017,0 L 0.436,0.372 0.409,0.398 0.382,0.37 0.346,0.407 0.373,0.436 0.346,0.462 0.319,0.432 0.282,0.469 0.311,0.5 0.284,0.524 0.229,0.469 C 0.223,0.462 0.225,0.454 0.229,0.452 L 0.242,0.436 0.248,0.432 0.168,0.359 0.161,0.366 C 0.137,0.389 0.097,0.389 0.072,0.366 0.048,0.342 0.048,0.308 0.068,0.282 L -0.124,0.124 -0.131,0.134 C -0.155,0.158 -0.194,0.158 -0.22,0.131"
           style="fill:#ffee00;fill-opacity:1;fill-rule:evenodd;stroke:none"
           id="path9390"
           inkscape:connector-curvature="0" />
      </g>
      <g
         id="g9392"
         transform="translate(1632.7334,522.34466)">
        <path
           d="m 0,0 c -0.039,0 -0.068,-0.034 -0.068,-0.07 0,-0.043 0.029,-0.074 0.068,-0.074 0.038,0 0.071,0.031 0.071,0.074 C 0.071,-0.034 0.038,0 0,0"
           style="fill:#ffffff;fill-opacity:1;fill-rule:evenodd;stroke:none"
           id="path9394"
           inkscape:connector-curvature="0" />
      </g>
      <g
         id="g9396"
         transform="translate(1632.3444,522.34176)">
        <path
           d="m 0,0 c -0.036,0 -0.07,-0.031 -0.07,-0.07 0,-0.04 0.034,-0.071 0.07,-0.071 0.043,0 0.073,0.031 0.073,0.071 C 0.073,-0.031 0.043,0 0,0"
           style="fill:#ffffff;fill-opacity:1;fill-rule:evenodd;stroke:none"
           id="path9398"
           inkscape:connector-curvature="0" />
      </g>
      <g
         id="g9400"
         transform="translate(1632.5339,524.43086)">
        <path
           d="m 0,0 c 0.155,0 0.36,0.128 0.36,0.383 l 0,0.513 -0.719,0 0,-0.513 C -0.359,0.128 -0.154,0 0,0"
           style="fill:#004684;fill-opacity:1;fill-rule:nonzero;stroke:none"
           id="path9402"
           inkscape:connector-curvature="0" />
      </g>
      <g
         id="g9404"
         transform="translate(1632.4326,525.12476)">
        <path
           d="m 0,0 c 0,0.046 -0.038,0.083 -0.083,0.083 -0.044,0 -0.081,-0.037 -0.081,-0.083 0,-0.046 0.037,-0.083 0.081,-0.083 C -0.038,-0.083 0,-0.046 0,0"
           style="fill:#ffffff;fill-opacity:1;fill-rule:evenodd;stroke:none"
           id="path9406"
           inkscape:connector-curvature="0" />
      </g>
      <g
         id="g9408"
         transform="translate(1632.6164,524.93946)">
        <path
           d="m 0,0 c 0,0.046 -0.037,0.083 -0.082,0.083 -0.045,0 -0.08,-0.037 -0.08,-0.083 0,-0.044 0.035,-0.081 0.08,-0.081 C -0.037,-0.081 0,-0.044 0,0"
           style="fill:#ffffff;fill-opacity:1;fill-rule:evenodd;stroke:none"
           id="path9410"
           inkscape:connector-curvature="0" />
      </g>
      <g
         id="g9412"
         transform="translate(1632.8004,524.75716)">
        <path
           d="m 0,0 c 0,0.046 -0.037,0.081 -0.081,0.081 -0.046,0 -0.083,-0.035 -0.083,-0.081 0,-0.046 0.037,-0.083 0.083,-0.083 C -0.037,-0.083 0,-0.046 0,0"
           style="fill:#ffffff;fill-opacity:1;fill-rule:evenodd;stroke:none"
           id="path9414"
           inkscape:connector-curvature="0" />
      </g>
      <g
         id="g9416"
         transform="translate(1632.7191,525.04206)">
        <path
           d="M 0,0 C 0.044,0 0.081,0.037 0.081,0.083 0.081,0.128 0.044,0.165 0,0.165 -0.046,0.165 -0.083,0.128 -0.083,0.083 -0.083,0.037 -0.046,0 0,0"
           style="fill:#ffffff;fill-opacity:1;fill-rule:evenodd;stroke:none"
           id="path9418"
           inkscape:connector-curvature="0" />
      </g>
      <g
         id="g9420"
         transform="translate(1632.3501,524.67446)">
        <path
           d="M 0,0 C 0.044,0 0.083,0.037 0.083,0.083 0.083,0.128 0.044,0.164 0,0.164 -0.045,0.164 -0.081,0.128 -0.081,0.083 -0.081,0.037 -0.045,0 0,0"
           style="fill:#ffffff;fill-opacity:1;fill-rule:evenodd;stroke:none"
           id="path9422"
           inkscape:connector-curvature="0" />
      </g>
      <g
         id="g9424"
         transform="translate(1632.5339,523.18966)">
        <path
           d="m 0,0 c 0.155,0 0.36,0.128 0.36,0.383 l 0,0.515 -0.719,0 0,-0.515 C -0.359,0.128 -0.154,0 0,0"
           style="fill:#004684;fill-opacity:1;fill-rule:nonzero;stroke:none"
           id="path9426"
           inkscape:connector-curvature="0" />
      </g>
      <g
         id="g9428"
         transform="translate(1632.4326,523.88366)">
        <path
           d="m 0,0 c 0,0.046 -0.038,0.083 -0.083,0.083 -0.044,0 -0.081,-0.037 -0.081,-0.083 0,-0.046 0.037,-0.081 0.081,-0.081 C -0.038,-0.081 0,-0.046 0,0"
           style="fill:#ffffff;fill-opacity:1;fill-rule:evenodd;stroke:none"
           id="path9430"
           inkscape:connector-curvature="0" />
      </g>
      <g
         id="g9432"
         transform="translate(1632.6164,523.69976)">
        <path
           d="m 0,0 c 0,0.046 -0.037,0.081 -0.082,0.081 -0.045,0 -0.08,-0.035 -0.08,-0.081 0,-0.046 0.035,-0.08 0.08,-0.08 C -0.037,-0.08 0,-0.046 0,0"
           style="fill:#ffffff;fill-opacity:1;fill-rule:evenodd;stroke:none"
           id="path9434"
           inkscape:connector-curvature="0" />
      </g>
      <g
         id="g9436"
         transform="translate(1632.8004,523.51456)">
        <path
           d="m 0,0 c 0,0.046 -0.037,0.083 -0.081,0.083 -0.046,0 -0.083,-0.037 -0.083,-0.083 0,-0.044 0.037,-0.081 0.083,-0.081 C -0.037,-0.081 0,-0.044 0,0"
           style="fill:#ffffff;fill-opacity:1;fill-rule:evenodd;stroke:none"
           id="path9438"
           inkscape:connector-curvature="0" />
      </g>
      <g
         id="g9440"
         transform="translate(1632.7191,523.80236)">
        <path
           d="M 0,0 C 0.044,0 0.081,0.036 0.081,0.081 0.081,0.127 0.044,0.164 0,0.164 -0.046,0.164 -0.083,0.127 -0.083,0.081 -0.083,0.036 -0.046,0 0,0"
           style="fill:#ffffff;fill-opacity:1;fill-rule:evenodd;stroke:none"
           id="path9442"
           inkscape:connector-curvature="0" />
      </g>
      <g
         id="g9444"
         transform="translate(1632.3501,523.43336)">
        <path
           d="M 0,0 C 0.044,0 0.083,0.037 0.083,0.081 0.083,0.127 0.044,0.164 0,0.164 -0.045,0.164 -0.081,0.127 -0.081,0.081 -0.081,0.037 -0.045,0 0,0"
           style="fill:#ffffff;fill-opacity:1;fill-rule:evenodd;stroke:none"
           id="path9446"
           inkscape:connector-curvature="0" />
      </g>
      <g
         id="g9448"
         transform="translate(1631.542,523.18966)">
        <path
           d="m 0,0 c 0.155,0 0.359,0.128 0.359,0.383 l 0,0.515 -0.719,0 0,-0.515 C -0.36,0.128 -0.157,0 0,0"
           style="fill:#004684;fill-opacity:1;fill-rule:nonzero;stroke:none"
           id="path9450"
           inkscape:connector-curvature="0" />
      </g>
      <g
         id="g9452"
         transform="translate(1631.4381,523.88366)">
        <path
           d="m 0,0 c 0,0.046 -0.036,0.083 -0.081,0.083 -0.044,0 -0.082,-0.037 -0.082,-0.083 0,-0.046 0.038,-0.081 0.082,-0.081 C -0.036,-0.081 0,-0.046 0,0"
           style="fill:#ffffff;fill-opacity:1;fill-rule:evenodd;stroke:none"
           id="path9454"
           inkscape:connector-curvature="0" />
      </g>
      <g
         id="g9456"
         transform="translate(1631.6233,523.69976)">
        <path
           d="m 0,0 c 0,0.046 -0.037,0.081 -0.081,0.081 -0.046,0 -0.083,-0.035 -0.083,-0.081 0,-0.046 0.037,-0.08 0.083,-0.08 C -0.037,-0.08 0,-0.046 0,0"
           style="fill:#ffffff;fill-opacity:1;fill-rule:evenodd;stroke:none"
           id="path9458"
           inkscape:connector-curvature="0" />
      </g>
      <g
         id="g9460"
         transform="translate(1631.8071,523.51456)">
        <path
           d="m 0,0 c 0,0.046 -0.036,0.083 -0.082,0.083 -0.045,0 -0.082,-0.037 -0.082,-0.083 0,-0.044 0.037,-0.081 0.082,-0.081 C -0.036,-0.081 0,-0.044 0,0"
           style="fill:#ffffff;fill-opacity:1;fill-rule:evenodd;stroke:none"
           id="path9462"
           inkscape:connector-curvature="0" />
      </g>
      <g
         id="g9464"
         transform="translate(1631.7252,523.80236)">
        <path
           d="M 0,0 C 0.046,0 0.082,0.036 0.082,0.081 0.082,0.127 0.046,0.164 0,0.164 -0.045,0.164 -0.082,0.127 -0.082,0.081 -0.082,0.036 -0.045,0 0,0"
           style="fill:#ffffff;fill-opacity:1;fill-rule:evenodd;stroke:none"
           id="path9466"
           inkscape:connector-curvature="0" />
      </g>
      <g
         id="g9468"
         transform="translate(1631.3568,523.43336)">
        <path
           d="M 0,0 C 0.046,0 0.081,0.037 0.081,0.081 0.081,0.127 0.046,0.164 0,0.164 -0.044,0.164 -0.082,0.127 -0.082,0.081 -0.082,0.037 -0.044,0 0,0"
           style="fill:#ffffff;fill-opacity:1;fill-rule:evenodd;stroke:none"
           id="path9470"
           inkscape:connector-curvature="0" />
      </g>
      <g
         id="g9472"
         transform="translate(1633.5271,523.18966)">
        <path
           d="m 0,0 c 0.155,0 0.362,0.128 0.362,0.383 l 0,0.515 -0.72,0 0,-0.515 C -0.358,0.128 -0.155,0 0,0"
           style="fill:#004684;fill-opacity:1;fill-rule:nonzero;stroke:none"
           id="path9474"
           inkscape:connector-curvature="0" />
      </g>
      <g
         id="g9476"
         transform="translate(1633.4245,523.88366)">
        <path
           d="m 0,0 c 0,0.046 -0.036,0.083 -0.082,0.083 -0.043,0 -0.08,-0.037 -0.08,-0.083 0,-0.046 0.037,-0.081 0.08,-0.081 C -0.036,-0.081 0,-0.046 0,0"
           style="fill:#ffffff;fill-opacity:1;fill-rule:evenodd;stroke:none"
           id="path9478"
           inkscape:connector-curvature="0" />
      </g>
      <g
         id="g9480"
         transform="translate(1633.6099,523.69976)">
        <path
           d="m 0,0 c 0,0.046 -0.037,0.081 -0.083,0.081 -0.044,0 -0.081,-0.035 -0.081,-0.081 0,-0.046 0.037,-0.08 0.081,-0.08 C -0.037,-0.08 0,-0.046 0,0"
           style="fill:#ffffff;fill-opacity:1;fill-rule:evenodd;stroke:none"
           id="path9482"
           inkscape:connector-curvature="0" />
      </g>
      <g
         id="g9484"
         transform="translate(1633.7932,523.51456)">
        <path
           d="m 0,0 c 0,0.046 -0.035,0.083 -0.081,0.083 -0.046,0 -0.083,-0.037 -0.083,-0.083 0,-0.044 0.037,-0.081 0.083,-0.081 C -0.035,-0.081 0,-0.044 0,0"
           style="fill:#ffffff;fill-opacity:1;fill-rule:evenodd;stroke:none"
           id="path9486"
           inkscape:connector-curvature="0" />
      </g>
      <g
         id="g9488"
         transform="translate(1633.7123,523.80236)">
        <path
           d="M 0,0 C 0.046,0 0.081,0.036 0.081,0.081 0.081,0.127 0.046,0.164 0,0.164 -0.046,0.164 -0.083,0.127 -0.083,0.081 -0.083,0.036 -0.046,0 0,0"
           style="fill:#ffffff;fill-opacity:1;fill-rule:evenodd;stroke:none"
           id="path9490"
           inkscape:connector-curvature="0" />
      </g>
      <g
         id="g9492"
         transform="translate(1633.3429,523.43336)">
        <path
           d="M 0,0 C 0.046,0 0.082,0.037 0.082,0.081 0.082,0.127 0.046,0.164 0,0.164 -0.044,0.164 -0.081,0.127 -0.081,0.081 -0.081,0.037 -0.044,0 0,0"
           style="fill:#ffffff;fill-opacity:1;fill-rule:evenodd;stroke:none"
           id="path9494"
           inkscape:connector-curvature="0" />
      </g>
      <g
         id="g9496"
         transform="translate(1632.5339,521.94846)">
        <path
           d="m 0,0 c 0.155,0 0.36,0.13 0.36,0.383 l 0,0.513 -0.719,0 0,-0.513 C -0.359,0.13 -0.154,0 0,0"
           style="fill:#004684;fill-opacity:1;fill-rule:nonzero;stroke:none"
           id="path9498"
           inkscape:connector-curvature="0" />
      </g>
      <g
         id="g9500"
         transform="translate(1632.4326,522.64236)">
        <path
           d="m 0,0 c 0,0.044 -0.038,0.081 -0.083,0.081 -0.044,0 -0.081,-0.037 -0.081,-0.081 0,-0.044 0.037,-0.081 0.081,-0.081 C -0.038,-0.081 0,-0.044 0,0"
           style="fill:#ffffff;fill-opacity:1;fill-rule:evenodd;stroke:none"
           id="path9502"
           inkscape:connector-curvature="0" />
      </g>
      <g
         id="g9504"
         transform="translate(1632.6164,522.45716)">
        <path
           d="m 0,0 c 0,0.046 -0.037,0.083 -0.082,0.083 -0.045,0 -0.08,-0.037 -0.08,-0.083 0,-0.044 0.035,-0.081 0.08,-0.081 C -0.037,-0.081 0,-0.044 0,0"
           style="fill:#ffffff;fill-opacity:1;fill-rule:evenodd;stroke:none"
           id="path9506"
           inkscape:connector-curvature="0" />
      </g>
      <g
         id="g9508"
         transform="translate(1632.8004,522.27476)">
        <path
           d="m 0,0 c 0,0.046 -0.037,0.081 -0.081,0.081 -0.046,0 -0.083,-0.035 -0.083,-0.081 0,-0.046 0.037,-0.083 0.083,-0.083 C -0.037,-0.083 0,-0.046 0,0"
           style="fill:#ffffff;fill-opacity:1;fill-rule:evenodd;stroke:none"
           id="path9510"
           inkscape:connector-curvature="0" />
      </g>
      <g
         id="g9512"
         transform="translate(1632.7191,522.56116)">
        <path
           d="M 0,0 C 0.044,0 0.081,0.037 0.081,0.081 0.081,0.125 0.044,0.162 0,0.162 -0.046,0.162 -0.083,0.125 -0.083,0.081 -0.083,0.037 -0.046,0 0,0"
           style="fill:#ffffff;fill-opacity:1;fill-rule:evenodd;stroke:none"
           id="path9514"
           inkscape:connector-curvature="0" />
      </g>
      <g
         id="g9516"
         transform="translate(1632.3501,522.19206)">
        <path
           d="M 0,0 C 0.044,0 0.083,0.037 0.083,0.083 0.083,0.128 0.044,0.164 0,0.164 -0.045,0.164 -0.081,0.128 -0.081,0.083 -0.081,0.037 -0.045,0 0,0"
           style="fill:#ffffff;fill-opacity:1;fill-rule:evenodd;stroke:none"
           id="path9518"
           inkscape:connector-curvature="0" />
      </g>
      <g
         id="g9520"
         transform="translate(1649.7736,502.79216)">
        <path
           d="m 0,0 c 0,-0.164 -0.033,-0.315 -0.099,-0.454 -0.066,-0.14 -0.158,-0.26 -0.276,-0.361 -0.118,-0.101 -0.262,-0.18 -0.43,-0.237 -0.169,-0.058 -0.354,-0.087 -0.555,-0.087 -0.31,0 -0.581,0.032 -0.813,0.094 l 0.073,0.652 c 0.114,-0.049 0.235,-0.086 0.362,-0.112 0.127,-0.026 0.261,-0.039 0.404,-0.039 0.079,0 0.155,0.008 0.226,0.026 0.071,0.017 0.134,0.044 0.188,0.081 0.054,0.036 0.096,0.083 0.127,0.14 0.032,0.058 0.047,0.128 0.047,0.212 0,0.111 -0.036,0.199 -0.109,0.265 -0.073,0.067 -0.164,0.124 -0.274,0.173 -0.109,0.048 -0.229,0.096 -0.357,0.143 -0.129,0.047 -0.248,0.108 -0.357,0.182 -0.11,0.075 -0.201,0.172 -0.274,0.29 -0.073,0.118 -0.109,0.274 -0.109,0.469 0,0.156 0.029,0.3 0.089,0.43 0.059,0.131 0.146,0.242 0.26,0.334 0.114,0.092 0.253,0.164 0.419,0.216 0.165,0.052 0.354,0.079 0.566,0.079 0.098,0 0.203,-0.006 0.316,-0.019 0.113,-0.012 0.22,-0.028 0.321,-0.049 L -0.318,1.839 C -0.415,1.87 -0.515,1.894 -0.615,1.912 -0.716,1.929 -0.819,1.938 -0.923,1.938 -1.121,1.938 -1.267,1.898 -1.361,1.82 -1.455,1.742 -1.502,1.64 -1.502,1.515 -1.502,1.41 -1.464,1.326 -1.39,1.261 -1.316,1.197 -1.223,1.139 -1.112,1.089 -1.001,1.038 -0.881,0.989 -0.751,0.94 -0.621,0.891 -0.501,0.828 -0.39,0.749 -0.279,0.671 -0.186,0.573 -0.112,0.454 -0.037,0.336 0,0.184 0,0"
           style="fill:#393939;fill-opacity:1;fill-rule:nonzero;stroke:none"
           id="path9522"
           inkscape:connector-curvature="0" />
      </g>
      <g
         id="g9524"
         transform="translate(1651.7186,503.96856)">
        <path
           d="m 0,0 c -0.031,0.087 -0.059,0.17 -0.083,0.25 -0.025,0.08 -0.046,0.158 -0.063,0.235 l -0.005,0 C -0.172,0.408 -0.194,0.33 -0.216,0.25 -0.239,0.17 -0.264,0.087 -0.292,0 l -0.349,-1.001 0.99,0 L 0,0 Z m 0.766,-2.258 -0.245,0.72 -1.329,0 -0.245,-0.72 -0.683,0 1.23,3.52 0.767,0 1.256,-3.52 -0.751,0 z"
           style="fill:#393939;fill-opacity:1;fill-rule:nonzero;stroke:none"
           id="path9526"
           inkscape:connector-curvature="0" />
      </g>
      <g
         id="g9528"
         transform="translate(1654.6905,505.44406)">
        <path
           d="M 0,0 -0.109,0.365 0.97,0.756 1.121,0.276 0,0 Z m 1.679,-2.367 c 0,-0.483 -0.127,-0.841 -0.381,-1.074 -0.255,-0.233 -0.615,-0.35 -1.082,-0.35 -0.278,0 -0.506,0.035 -0.681,0.105 -0.176,0.069 -0.315,0.163 -0.416,0.281 -0.101,0.118 -0.17,0.255 -0.209,0.41 -0.038,0.154 -0.057,0.315 -0.057,0.482 l 0,2.299 0.678,0 0,-2.261 c 0,-0.112 0.01,-0.214 0.031,-0.306 0.021,-0.092 0.059,-0.172 0.115,-0.24 0.055,-0.068 0.13,-0.12 0.224,-0.157 0.094,-0.036 0.214,-0.055 0.36,-0.055 0.26,0 0.449,0.062 0.565,0.186 0.117,0.123 0.175,0.335 0.175,0.634 l 0,2.199 0.678,0 0,-2.153 z"
           style="fill:#393939;fill-opacity:1;fill-rule:nonzero;stroke:none"
           id="path9530"
           inkscape:connector-curvature="0" />
      </g>
      <g
         id="g9532"
         transform="translate(1659.4249,503.47846)">
        <path
           d="m 0,0 c 0,0.188 -0.02,0.356 -0.06,0.506 -0.04,0.149 -0.103,0.276 -0.19,0.38 -0.087,0.105 -0.2,0.184 -0.339,0.238 -0.139,0.053 -0.31,0.08 -0.511,0.08 -0.08,0 -0.155,-10e-4 -0.224,-0.002 C -1.394,1.2 -1.457,1.196 -1.512,1.189 l 0,-2.373 c 0.049,-0.007 0.105,-0.013 0.169,-0.018 0.065,-0.005 0.132,-0.008 0.201,-0.008 0.167,0 0.32,0.024 0.459,0.071 0.139,0.047 0.259,0.12 0.36,0.219 0.1,0.099 0.18,0.225 0.237,0.378 C -0.029,-0.389 0,-0.209 0,0 M 0.725,0.052 C 0.725,-0.25 0.678,-0.516 0.584,-0.746 0.49,-0.975 0.358,-1.167 0.186,-1.322 0.014,-1.477 -0.19,-1.593 -0.428,-1.671 c -0.238,-0.078 -0.499,-0.117 -0.783,-0.117 -0.184,0 -0.356,0.002 -0.516,0.007 -0.159,0.006 -0.314,0.012 -0.463,0.019 l 0,3.509 c 0.139,0.007 0.308,0.013 0.507,0.018 0.2,0.005 0.409,0.008 0.628,0.008 0.27,0 0.516,-0.031 0.736,-0.094 C -0.099,1.616 0.089,1.515 0.243,1.376 0.398,1.237 0.516,1.059 0.6,0.842 0.683,0.625 0.725,0.361 0.725,0.052"
           style="fill:#393939;fill-opacity:1;fill-rule:nonzero;stroke:none"
           id="path9534"
           inkscape:connector-curvature="0" />
      </g>
      <g
         id="g9536"
         transform="translate(1660.7753,501.71086)">
        <path
           d="m 0,0 0,3.519 1.914,0 0,-0.568 -1.236,0 0,-0.86 1.173,0 0,-0.558 -1.173,0 0,-0.954 1.236,0 L 1.914,0 0,0 Z"
           style="fill:#393939;fill-opacity:1;fill-rule:nonzero;stroke:none"
           id="path9538"
           inkscape:connector-curvature="0" />
      </g>
      <g
         id="g9540"
         transform="translate(1651.02,528.85666)">
        <path
           d="M 0,0 C -0.218,0.161 -0.549,0.242 -0.992,0.242 -1.095,0.242 -1.193,0.24 -1.286,0.237 -1.379,0.234 -1.464,0.229 -1.541,0.223 l 0,-2.072 c 0.051,-0.007 0.12,-0.012 0.207,-0.015 0.086,-0.003 0.188,-0.005 0.303,-0.005 0.424,0 0.756,0.098 0.997,0.295 0.241,0.197 0.362,0.46 0.362,0.79 C 0.328,-0.423 0.218,-0.161 0,0 m 0.386,-5.471 -1.763,2.827 -0.164,0 0,-2.062 c 0.238,-0.019 0.461,-0.058 0.668,-0.116 l 0,-0.649 -2.557,0 0,0.639 c 0.129,0.032 0.265,0.058 0.407,0.077 0.142,0.02 0.287,0.036 0.436,0.049 l 0,5.006 C -2.736,0.313 -2.881,0.329 -3.023,0.349 -3.165,0.368 -3.301,0.394 -3.43,0.426 l 0,0.639 0.756,0 c 0.064,0 0.158,0.002 0.281,0.005 0.122,0.003 0.266,0.008 0.43,0.015 0.165,0.006 0.343,0.011 0.533,0.014 0.19,0.003 0.386,0.005 0.586,0.005 0.335,0 0.644,-0.032 0.925,-0.097 0.28,-0.065 0.522,-0.166 0.726,-0.305 0.203,-0.139 0.36,-0.321 0.47,-0.547 0.109,-0.226 0.164,-0.5 0.164,-0.823 0,-0.246 -0.042,-0.47 -0.126,-0.673 C 1.231,-1.544 1.112,-1.722 0.957,-1.874 0.802,-2.025 0.62,-2.151 0.41,-2.251 0.2,-2.352 -0.031,-2.421 -0.283,-2.46 c 0.07,-0.084 0.137,-0.172 0.201,-0.266 0.064,-0.093 0.124,-0.185 0.181,-0.276 l 1.129,-1.694 c 0.103,-0.013 0.213,-0.029 0.329,-0.049 0.116,-0.019 0.239,-0.042 0.368,-0.068 l 0,-0.658 -1.539,0 z"
           style="fill:#393939;fill-opacity:1;fill-rule:nonzero;stroke:none"
           id="path9542"
           inkscape:connector-curvature="0" />
      </g>
      <g
         id="g9544"
         transform="translate(1653.3907,523.38566)">
        <path
           d="m 0,0 0,0.64 c 0.129,0.032 0.265,0.059 0.407,0.078 0.142,0.019 0.287,0.035 0.435,0.048 l 0,5.015 C 0.694,5.794 0.549,5.81 0.407,5.829 0.265,5.848 0.129,5.873 0,5.905 l 0,0.631 4.328,0 0,-1.559 -0.765,0 C 3.538,5.113 3.515,5.244 3.496,5.369 3.476,5.495 3.46,5.61 3.447,5.713 l -1.559,0 0,-1.966 1.249,0 c 0.013,0.11 0.029,0.215 0.049,0.315 0.019,0.1 0.045,0.195 0.077,0.286 l 0.659,0 0,-1.976 -0.659,0 C 3.231,2.463 3.205,2.561 3.186,2.668 3.166,2.774 3.15,2.876 3.137,2.973 l -1.249,0 0,-2.121 1.569,0 C 3.47,0.968 3.486,1.091 3.505,1.22 3.525,1.349 3.55,1.485 3.583,1.627 l 0.765,0 L 4.348,0 0,0 Z"
           style="fill:#393939;fill-opacity:1;fill-rule:nonzero;stroke:none"
           id="path9546"
           inkscape:connector-curvature="0" />
      </g>
      <g
         id="g9548"
         transform="translate(1662.0328,528.78406)">
        <path
           d="m 0,0 c -0.223,0.21 -0.573,0.315 -1.051,0.315 l -0.28,0 c -0.084,0 -0.172,-0.007 -0.262,-0.02 l 0,-2.391 c 0.078,-0.013 0.155,-0.023 0.233,-0.029 0.077,-0.007 0.154,-0.01 0.232,-0.01 0.445,0.006 0.8,0.121 1.065,0.344 0.265,0.222 0.397,0.527 0.397,0.915 C 0.334,-0.502 0.223,-0.21 0,0 M 1.249,-1.671 C 1.13,-1.941 0.959,-2.176 0.736,-2.372 0.513,-2.569 0.245,-2.724 -0.068,-2.837 c -0.313,-0.113 -0.66,-0.17 -1.041,-0.17 l -0.232,0 c -0.084,0 -0.168,0.007 -0.252,0.02 l 0,-1.646 c 0.149,-0.013 0.294,-0.03 0.436,-0.049 0.142,-0.019 0.277,-0.045 0.407,-0.077 l 0,-0.639 -2.731,0 0,0.639 c 0.129,0.032 0.264,0.058 0.407,0.077 0.142,0.019 0.287,0.036 0.435,0.049 l 0,5.006 c -0.148,0.013 -0.293,0.029 -0.435,0.048 -0.143,0.02 -0.278,0.045 -0.407,0.078 l 0,0.639 0.736,0 c 0.077,0 0.182,0.001 0.315,0.005 0.132,0.003 0.279,0.008 0.44,0.014 0.161,0.006 0.329,0.011 0.504,0.015 0.174,0.003 0.345,0.004 0.513,0.004 0.781,0 1.376,-0.175 1.786,-0.527 0.41,-0.352 0.615,-0.831 0.615,-1.438 0,-0.317 -0.059,-0.61 -0.179,-0.882"
           style="fill:#393939;fill-opacity:1;fill-rule:nonzero;stroke:none"
           id="path9550"
           inkscape:connector-curvature="0" />
      </g>
      <g
         id="g9552"
         transform="translate(1666.918,530.38666)">
        <path
           d="M 0,0 -0.387,0.591 1.133,1.656 1.598,0.949 0,0 Z m 2.731,-1.23 0,-3.273 c 0,-0.878 -0.225,-1.53 -0.673,-1.956 -0.449,-0.426 -1.106,-0.639 -1.971,-0.639 -0.517,0 -0.936,0.065 -1.259,0.194 -0.323,0.129 -0.574,0.301 -0.755,0.518 -0.181,0.216 -0.305,0.463 -0.373,0.741 -0.068,0.277 -0.102,0.568 -0.102,0.871 l 0,3.544 c -0.109,0.013 -0.219,0.029 -0.329,0.049 -0.11,0.019 -0.213,0.042 -0.31,0.067 l 0,0.649 2.421,0 0,-0.649 C -0.736,-1.146 -0.857,-1.17 -0.983,-1.186 -1.109,-1.202 -1.233,-1.217 -1.356,-1.23 l 0,-3.466 c 0,-0.22 0.021,-0.423 0.063,-0.611 0.042,-0.187 0.118,-0.348 0.228,-0.484 0.109,-0.135 0.263,-0.242 0.46,-0.319 0.197,-0.078 0.447,-0.116 0.75,-0.116 0.265,0 0.494,0.029 0.688,0.087 0.193,0.058 0.353,0.153 0.479,0.285 0.126,0.133 0.219,0.305 0.281,0.519 0.061,0.213 0.092,0.471 0.092,0.774 l 0,3.331 c -0.123,0.013 -0.249,0.028 -0.378,0.044 -0.129,0.016 -0.248,0.04 -0.358,0.072 l 0,0.649 2.421,0 0,-0.649 C 3.163,-1.165 2.95,-1.204 2.731,-1.23"
           style="fill:#393939;fill-opacity:1;fill-rule:nonzero;stroke:none"
           id="path9554"
           inkscape:connector-curvature="0" />
      </g>
      <g
         id="g9556"
         transform="translate(1674.892,525.81606)">
        <path
           d="m 0,0 c -0.081,0.129 -0.191,0.234 -0.329,0.315 -0.139,0.08 -0.305,0.139 -0.499,0.174 -0.194,0.035 -0.407,0.053 -0.639,0.053 l -0.116,0 -0.165,0 C -1.806,0.542 -1.863,0.541 -1.917,0.538 -1.972,0.534 -2.019,0.533 -2.058,0.533 l 0,-2.082 c 0.181,-0.033 0.436,-0.049 0.765,-0.049 0.484,0 0.841,0.105 1.07,0.315 0.229,0.21 0.344,0.479 0.344,0.809 C 0.121,-0.287 0.081,-0.129 0,0 m -0.063,2.75 c -0.039,0.11 -0.106,0.205 -0.203,0.286 -0.097,0.08 -0.225,0.143 -0.383,0.189 -0.158,0.045 -0.353,0.067 -0.586,0.067 -0.148,0 -0.29,-10e-4 -0.426,-0.004 C -1.796,3.284 -1.929,3.279 -2.058,3.273 l 0,-1.937 C -1.974,1.33 -1.887,1.327 -1.796,1.327 l 0.3,0 c 0.49,0 0.862,0.093 1.113,0.28 0.252,0.188 0.378,0.446 0.378,0.775 0,0.136 -0.019,0.258 -0.058,0.368 M 1.113,-1.128 C 1.033,-1.364 0.896,-1.58 0.702,-1.777 0.508,-1.974 0.247,-2.137 -0.082,-2.266 c -0.33,-0.129 -0.746,-0.194 -1.25,-0.194 -0.2,0 -0.454,0.005 -0.764,0.015 -0.31,0.01 -0.646,0.015 -1.007,0.015 l -0.843,0 0,0.639 c 0.129,0.032 0.265,0.058 0.407,0.077 0.142,0.02 0.287,0.036 0.436,0.049 l 0,5.006 c -0.149,0.013 -0.294,0.029 -0.436,0.048 -0.142,0.02 -0.278,0.045 -0.407,0.078 l 0,0.639 0.813,0 c 0.246,0 0.554,0.005 0.925,0.014 0.371,0.01 0.754,0.015 1.148,0.015 0.716,0 1.255,-0.139 1.617,-0.417 C 0.918,3.441 1.099,3.05 1.099,2.547 1.099,2.211 0.997,1.908 0.794,1.636 0.591,1.365 0.321,1.172 -0.015,1.055 l 0,-0.019 C 0.198,0.997 0.384,0.93 0.542,0.833 0.7,0.736 0.829,0.62 0.93,0.484 1.03,0.349 1.105,0.2 1.157,0.039 c 0.052,-0.162 0.078,-0.326 0.078,-0.494 0,-0.213 -0.041,-0.438 -0.122,-0.673"
           style="fill:#393939;fill-opacity:1;fill-rule:nonzero;stroke:none"
           id="path9558"
           inkscape:connector-curvature="0" />
      </g>
      <g
         id="g9560"
         transform="translate(1676.8915,523.38566)">
        <path
           d="m 0,0 0,0.639 c 0.129,0.032 0.265,0.058 0.407,0.078 0.142,0.019 0.287,0.035 0.435,0.048 l 0,5.006 C 0.694,5.784 0.549,5.8 0.407,5.82 0.265,5.839 0.129,5.865 0,5.897 l 0,0.639 2.731,0 0,-0.639 C 2.601,5.865 2.466,5.839 2.324,5.82 2.182,5.8 2.037,5.784 1.888,5.771 l 0,-4.9 1.482,0 c 0.032,0.252 0.077,0.533 0.135,0.843 l 0.756,0 L 4.261,0 0,0 Z"
           style="fill:#393939;fill-opacity:1;fill-rule:nonzero;stroke:none"
           id="path9562"
           inkscape:connector-curvature="0" />
      </g>
      <g
         id="g9564"
         transform="translate(1681.5296,523.38566)">
        <path
           d="m 0,0 0,0.639 c 0.129,0.032 0.265,0.058 0.407,0.078 0.142,0.019 0.287,0.035 0.435,0.048 l 0,5.006 C 0.694,5.784 0.549,5.8 0.407,5.82 0.265,5.839 0.129,5.865 0,5.897 l 0,0.639 2.731,0 0,-0.639 C 2.601,5.865 2.466,5.839 2.324,5.82 2.182,5.8 2.037,5.784 1.888,5.771 l 0,-5.006 C 2.037,0.752 2.182,0.736 2.324,0.717 2.466,0.697 2.601,0.671 2.731,0.639 L 2.731,0 0,0 Z"
           style="fill:#393939;fill-opacity:1;fill-rule:nonzero;stroke:none"
           id="path9566"
           inkscape:connector-curvature="0" />
      </g>
      <g
         id="g9568"
         transform="translate(1688.9275,528.08206)">
        <path
           d="m 0,0 c -0.032,0.161 -0.057,0.311 -0.073,0.45 -0.016,0.139 -0.03,0.273 -0.043,0.402 -0.149,0.039 -0.289,0.065 -0.421,0.078 -0.133,0.012 -0.27,0.019 -0.412,0.019 -0.316,0 -0.592,-0.06 -0.828,-0.179 -0.236,-0.12 -0.432,-0.284 -0.591,-0.494 -0.158,-0.21 -0.275,-0.462 -0.353,-0.755 -0.077,-0.294 -0.116,-0.615 -0.116,-0.964 0,-0.374 0.04,-0.708 0.121,-1.002 0.081,-0.294 0.208,-0.542 0.382,-0.746 0.175,-0.203 0.397,-0.358 0.669,-0.465 0.271,-0.106 0.597,-0.159 0.978,-0.159 0.245,0 0.498,0.027 0.76,0.082 0.261,0.055 0.495,0.128 0.702,0.218 L 0.843,-4.483 C 0.571,-4.574 0.287,-4.646 -0.01,-4.701 c -0.297,-0.055 -0.603,-0.083 -0.919,-0.083 -1.027,0 -1.797,0.28 -2.31,0.838 -0.513,0.558 -0.77,1.335 -0.77,2.329 0,0.516 0.066,0.991 0.199,1.423 0.132,0.433 0.332,0.804 0.6,1.114 0.268,0.31 0.607,0.552 1.017,0.726 0.41,0.174 0.895,0.262 1.457,0.262 0.245,0 0.497,-0.017 0.755,-0.049 C 0.278,1.827 0.533,1.782 0.784,1.724 L 0.784,0 0,0 Z"
           style="fill:#393939;fill-opacity:1;fill-rule:nonzero;stroke:none"
           id="path9570"
           inkscape:connector-curvature="0" />
      </g>
      <g
         id="g9572"
         transform="translate(1693.8077,527.85926)">
        <path
           d="M 0,0 C -0.064,0.168 -0.119,0.332 -0.164,0.494 -0.21,0.655 -0.252,0.826 -0.29,1.007 l -0.02,0 C -0.342,0.839 -0.384,0.668 -0.436,0.494 -0.487,0.32 -0.546,0.145 -0.61,-0.029 l -0.707,-1.946 2.043,0 L 0,0 Z m 0.6,-4.474 0,0.639 c 0.11,0.026 0.23,0.049 0.359,0.068 0.129,0.02 0.255,0.036 0.377,0.049 l -0.338,0.92 -2.586,0 -0.329,-0.92 c 0.122,-0.013 0.248,-0.029 0.377,-0.049 0.13,-0.019 0.249,-0.042 0.359,-0.068 l 0,-0.639 -2.353,0 0,0.639 c 0.084,0.026 0.176,0.047 0.276,0.063 0.1,0.016 0.195,0.031 0.285,0.044 l 2.082,5.791 1.269,0 2.111,-5.791 c 0.09,-0.013 0.185,-0.028 0.285,-0.044 0.1,-0.016 0.192,-0.037 0.276,-0.063 l 0,-0.639 -2.45,0 z"
           style="fill:#393939;fill-opacity:1;fill-rule:nonzero;stroke:none"
           id="path9574"
           inkscape:connector-curvature="0" />
      </g>
      <g
         id="g9576"
         transform="translate(1651.0715,519.47326)">
        <path
           d="m 0,0 c -0.223,0.21 -0.573,0.315 -1.051,0.315 l -0.28,0 c -0.084,0 -0.172,-0.007 -0.262,-0.02 l 0,-2.391 c 0.078,-0.013 0.155,-0.023 0.233,-0.029 0.077,-0.007 0.154,-0.01 0.232,-0.01 0.445,0.006 0.8,0.121 1.065,0.344 0.265,0.222 0.397,0.527 0.397,0.915 C 0.334,-0.502 0.223,-0.21 0,0 M 1.249,-1.67 C 1.13,-1.941 0.959,-2.176 0.736,-2.372 0.513,-2.569 0.245,-2.724 -0.068,-2.837 c -0.313,-0.113 -0.66,-0.17 -1.041,-0.17 l -0.232,0 c -0.084,0 -0.168,0.007 -0.252,0.02 l 0,-1.646 c 0.149,-0.013 0.294,-0.029 0.436,-0.049 0.142,-0.019 0.277,-0.045 0.407,-0.077 l 0,-0.639 -2.731,0 0,0.639 c 0.129,0.032 0.264,0.058 0.407,0.077 0.142,0.02 0.287,0.036 0.435,0.049 l 0,5.006 c -0.148,0.013 -0.293,0.029 -0.435,0.048 -0.143,0.02 -0.278,0.045 -0.407,0.078 l 0,0.639 0.736,0 c 0.077,0 0.182,0.001 0.315,0.005 0.132,0.003 0.279,0.008 0.44,0.014 0.161,0.006 0.329,0.011 0.504,0.015 0.174,0.003 0.345,0.004 0.513,0.004 0.781,0 1.376,-0.175 1.786,-0.527 0.41,-0.352 0.615,-0.832 0.615,-1.438 0,-0.317 -0.059,-0.61 -0.179,-0.881"
           style="fill:#393939;fill-opacity:1;fill-rule:nonzero;stroke:none"
           id="path9578"
           inkscape:connector-curvature="0" />
      </g>
      <g
         id="g9580"
         transform="translate(1657.4984,519.15226)">
        <path
           d="m 0,0 c -0.334,0.424 -0.809,0.636 -1.426,0.636 -0.253,0 -0.496,-0.051 -0.73,-0.151 -0.233,-0.1 -0.438,-0.25 -0.613,-0.451 -0.175,-0.201 -0.316,-0.45 -0.423,-0.747 -0.107,-0.298 -0.161,-0.644 -0.161,-1.038 0,-0.369 0.039,-0.707 0.117,-1.014 0.078,-0.307 0.195,-0.569 0.35,-0.786 0.156,-0.217 0.354,-0.385 0.594,-0.505 0.24,-0.119 0.522,-0.179 0.847,-0.179 0.24,0 0.477,0.048 0.71,0.146 0.234,0.096 0.443,0.245 0.628,0.446 0.185,0.2 0.332,0.451 0.443,0.752 0.11,0.301 0.165,0.655 0.165,1.062 C 0.501,-1.033 0.334,-0.424 0,0 M 1.368,-3.179 C 1.203,-3.606 0.979,-3.967 0.695,-4.264 0.411,-4.561 0.078,-4.787 -0.302,-4.942 c -0.381,-0.155 -0.788,-0.232 -1.22,-0.232 -0.498,0 -0.93,0.077 -1.298,0.232 -0.368,0.155 -0.675,0.376 -0.92,0.663 -0.245,0.288 -0.428,0.633 -0.547,1.036 -0.12,0.404 -0.179,0.857 -0.179,1.361 0,0.542 0.082,1.026 0.247,1.452 0.164,0.427 0.389,0.786 0.673,1.08 0.284,0.294 0.616,0.518 0.997,0.673 0.381,0.155 0.788,0.233 1.22,0.233 0.439,0 0.839,-0.068 1.201,-0.204 0.361,-0.135 0.671,-0.34 0.93,-0.615 0.258,-0.274 0.458,-0.616 0.6,-1.026 0.142,-0.41 0.213,-0.889 0.213,-1.438 0,-0.542 -0.082,-1.026 -0.247,-1.452"
           style="fill:#393939;fill-opacity:1;fill-rule:nonzero;stroke:none"
           id="path9582"
           inkscape:connector-curvature="0" />
      </g>
      <g
         id="g9584"
         transform="translate(1663.1626,519.54586)">
        <path
           d="M 0,0 C -0.219,0.161 -0.549,0.242 -0.992,0.242 -1.095,0.242 -1.193,0.24 -1.286,0.237 -1.379,0.234 -1.464,0.229 -1.541,0.223 l 0,-2.072 c 0.051,-0.007 0.12,-0.012 0.207,-0.015 0.086,-0.003 0.188,-0.005 0.303,-0.005 0.424,0 0.756,0.098 0.997,0.295 0.241,0.197 0.362,0.461 0.362,0.79 C 0.328,-0.423 0.218,-0.161 0,0 m 0.386,-5.471 -1.763,2.827 -0.164,0 0,-2.062 c 0.238,-0.019 0.461,-0.058 0.668,-0.116 l 0,-0.649 -2.557,0 0,0.639 c 0.129,0.032 0.265,0.058 0.407,0.077 0.142,0.02 0.287,0.036 0.436,0.049 l 0,5.006 C -2.736,0.313 -2.881,0.329 -3.023,0.349 -3.165,0.368 -3.301,0.394 -3.43,0.426 l 0,0.639 0.756,0 c 0.064,0 0.158,0.002 0.281,0.005 0.122,0.003 0.266,0.008 0.43,0.015 0.165,0.006 0.343,0.011 0.533,0.014 0.19,0.003 0.386,0.005 0.586,0.005 0.335,0 0.644,-0.033 0.925,-0.097 0.28,-0.064 0.522,-0.166 0.726,-0.305 0.203,-0.139 0.36,-0.321 0.47,-0.547 0.109,-0.226 0.164,-0.5 0.164,-0.823 0,-0.245 -0.042,-0.47 -0.126,-0.673 C 1.231,-1.544 1.112,-1.722 0.957,-1.874 0.802,-2.025 0.62,-2.151 0.41,-2.251 0.2,-2.352 -0.031,-2.421 -0.283,-2.46 c 0.07,-0.084 0.137,-0.172 0.201,-0.266 0.064,-0.093 0.124,-0.185 0.181,-0.276 l 1.129,-1.694 c 0.103,-0.013 0.213,-0.029 0.329,-0.049 0.117,-0.019 0.239,-0.042 0.368,-0.068 l 0,-0.658 -1.539,0 z"
           style="fill:#393939;fill-opacity:1;fill-rule:nonzero;stroke:none"
           id="path9586"
           inkscape:connector-curvature="0" />
      </g>
      <g
         id="g9588"
         transform="translate(1669.8907,518.87766)">
        <path
           d="m 0,0 c -0.032,0.168 -0.06,0.323 -0.082,0.465 -0.023,0.142 -0.041,0.274 -0.053,0.397 l -1.182,0 0,-4.901 c 0.149,-0.013 0.294,-0.029 0.436,-0.048 0.142,-0.02 0.277,-0.046 0.407,-0.078 l 0,-0.638 -2.731,0 0,0.638 c 0.129,0.032 0.264,0.058 0.407,0.078 0.142,0.019 0.287,0.035 0.435,0.048 l 0,4.901 -1.191,0 C -3.567,0.739 -3.583,0.607 -3.602,0.465 -3.621,0.323 -3.647,0.168 -3.68,0 l -0.755,0 0,1.733 5.19,0 L 0.755,0 0,0 Z"
           style="fill:#393939;fill-opacity:1;fill-rule:nonzero;stroke:none"
           id="path9590"
           inkscape:connector-curvature="0" />
      </g>
      <g
         id="g9592"
         transform="translate(1676.8531,519.84606)">
        <path
           d="m 0,0 0,-3.273 c 0,-0.878 -0.224,-1.53 -0.673,-1.956 -0.449,-0.426 -1.106,-0.639 -1.971,-0.639 -0.516,0 -0.936,0.065 -1.258,0.193 -0.323,0.13 -0.575,0.302 -0.756,0.519 -0.181,0.216 -0.305,0.463 -0.373,0.74 -0.067,0.278 -0.101,0.568 -0.101,0.872 l 0,3.544 c -0.11,0.013 -0.22,0.029 -0.329,0.048 -0.11,0.02 -0.214,0.042 -0.31,0.068 l 0,0.649 2.421,0 0,-0.649 C -3.467,0.084 -3.588,0.06 -3.714,0.043 -3.839,0.027 -3.964,0.013 -4.086,0 l 0,-3.467 c 0,-0.219 0.021,-0.422 0.063,-0.61 0.041,-0.187 0.117,-0.348 0.227,-0.484 0.11,-0.135 0.263,-0.242 0.46,-0.319 0.197,-0.078 0.447,-0.117 0.75,-0.117 0.265,0 0.494,0.03 0.688,0.088 0.194,0.058 0.353,0.153 0.479,0.285 0.126,0.132 0.22,0.305 0.281,0.518 0.061,0.213 0.092,0.472 0.092,0.775 l 0,3.331 C -1.169,0.013 -1.294,0.027 -1.424,0.043 -1.553,0.06 -1.672,0.084 -1.782,0.116 l 0,0.649 2.421,0 0,-0.649 C 0.432,0.064 0.219,0.026 0,0"
           style="fill:#393939;fill-opacity:1;fill-rule:nonzero;stroke:none"
           id="path9594"
           inkscape:connector-curvature="0" />
      </g>
      <g
         id="g9596"
         transform="translate(1683.8879,516.73296)">
        <path
           d="m 0,0 c -0.1,-0.016 -0.202,-0.031 -0.305,-0.044 l 0,-2.314 c -0.329,-0.129 -0.684,-0.228 -1.065,-0.295 -0.381,-0.068 -0.759,-0.102 -1.133,-0.102 -0.504,0 -0.957,0.074 -1.361,0.223 -0.403,0.148 -0.745,0.36 -1.026,0.634 -0.281,0.274 -0.497,0.612 -0.649,1.012 -0.152,0.4 -0.227,0.852 -0.227,1.356 0,0.509 0.082,0.979 0.247,1.409 0.165,0.429 0.401,0.798 0.708,1.108 0.308,0.31 0.681,0.551 1.121,0.722 0.44,0.171 0.938,0.256 1.495,0.256 0.304,0 0.603,-0.021 0.897,-0.064 0.294,-0.042 0.593,-0.099 0.896,-0.171 l 0,-1.643 -0.784,0 c -0.033,0.148 -0.058,0.292 -0.078,0.431 -0.019,0.138 -0.035,0.272 -0.048,0.401 -0.162,0.039 -0.324,0.07 -0.486,0.092 -0.162,0.023 -0.32,0.034 -0.476,0.034 -0.33,0 -0.637,-0.051 -0.922,-0.154 C -3.481,2.787 -3.73,2.631 -3.944,2.422 -4.158,2.213 -4.326,1.953 -4.449,1.644 -4.572,1.335 -4.633,0.977 -4.633,0.571 c 0,-0.76 0.202,-1.348 0.607,-1.763 0.404,-0.416 0.959,-0.624 1.665,-0.624 0.188,0 0.366,0.013 0.534,0.039 0.168,0.026 0.327,0.065 0.476,0.116 l 0,1.608 c -0.148,0.012 -0.294,0.029 -0.436,0.048 -0.142,0.019 -0.271,0.045 -0.387,0.078 l 0,0.639 2.46,0 0,-0.649 C 0.195,0.037 0.1,0.016 0,0"
           style="fill:#393939;fill-opacity:1;fill-rule:nonzero;stroke:none"
           id="path9598"
           inkscape:connector-curvature="0" />
      </g>
      <g
         id="g9600"
         transform="translate(1690.4482,519.84606)">
        <path
           d="m 0,0 0,-3.273 c 0,-0.878 -0.224,-1.53 -0.673,-1.956 -0.449,-0.426 -1.106,-0.639 -1.971,-0.639 -0.516,0 -0.936,0.065 -1.258,0.193 -0.323,0.13 -0.575,0.302 -0.756,0.519 -0.181,0.216 -0.305,0.463 -0.372,0.74 -0.068,0.278 -0.102,0.568 -0.102,0.872 l 0,3.544 c -0.11,0.013 -0.22,0.029 -0.329,0.048 -0.11,0.02 -0.213,0.042 -0.31,0.068 l 0,0.649 2.421,0 0,-0.649 C -3.467,0.084 -3.588,0.06 -3.714,0.043 -3.839,0.027 -3.964,0.013 -4.086,0 l 0,-3.467 c 0,-0.219 0.021,-0.422 0.063,-0.61 0.042,-0.187 0.117,-0.348 0.227,-0.484 0.11,-0.135 0.263,-0.242 0.46,-0.319 0.197,-0.078 0.447,-0.117 0.751,-0.117 0.264,0 0.493,0.03 0.687,0.088 0.194,0.058 0.354,0.153 0.479,0.285 0.126,0.132 0.22,0.305 0.281,0.518 0.061,0.213 0.092,0.472 0.092,0.775 l 0,3.331 c -0.123,0.013 -0.248,0.027 -0.377,0.043 -0.13,0.017 -0.249,0.041 -0.359,0.073 l 0,0.649 2.421,0 0,-0.649 C 0.432,0.064 0.219,0.026 0,0"
           style="fill:#393939;fill-opacity:1;fill-rule:nonzero;stroke:none"
           id="path9602"
           inkscape:connector-curvature="0" />
      </g>
      <g
         id="g9604"
         transform="translate(1691.7457,514.07476)">
        <path
           d="m 0,0 0,0.64 c 0.129,0.032 0.265,0.059 0.407,0.078 0.141,0.019 0.287,0.035 0.435,0.048 l 0,5.015 C 0.694,5.794 0.548,5.809 0.407,5.829 0.265,5.848 0.129,5.873 0,5.905 l 0,0.631 4.328,0 0,-1.559 -0.765,0 C 3.537,5.113 3.515,5.244 3.496,5.369 3.476,5.495 3.46,5.61 3.447,5.713 l -1.559,0 0,-1.966 1.249,0 c 0.013,0.11 0.029,0.215 0.049,0.315 0.019,0.1 0.045,0.195 0.077,0.286 l 0.659,0 0,-1.976 -0.659,0 C 3.231,2.463 3.205,2.561 3.186,2.668 3.166,2.774 3.15,2.876 3.137,2.973 l -1.249,0 0,-2.121 1.569,0 C 3.47,0.968 3.486,1.091 3.505,1.22 3.525,1.349 3.55,1.485 3.583,1.627 l 0.765,0 L 4.348,0 0,0 Z"
           style="fill:#393939;fill-opacity:1;fill-rule:nonzero;stroke:none"
           id="path9606"
           inkscape:connector-curvature="0" />
      </g>
      <g
         id="g9608"
         transform="translate(1700.9543,515.21736)">
        <path
           d="m 0,0 c -0.116,-0.252 -0.281,-0.47 -0.494,-0.654 -0.213,-0.184 -0.473,-0.327 -0.779,-0.431 -0.307,-0.103 -0.651,-0.154 -1.032,-0.154 -0.529,0 -1.007,0.055 -1.433,0.166 l 0,1.644 0.775,0 c 0.026,-0.148 0.048,-0.292 0.068,-0.431 0.019,-0.138 0.035,-0.269 0.048,-0.392 0.09,-0.019 0.187,-0.035 0.291,-0.048 0.103,-0.013 0.2,-0.02 0.29,-0.02 0.187,0 0.362,0.02 0.523,0.058 0.161,0.039 0.302,0.099 0.421,0.179 0.12,0.081 0.213,0.186 0.281,0.314 0.068,0.129 0.102,0.281 0.102,0.455 0,0.225 -0.073,0.406 -0.218,0.541 -0.145,0.135 -0.325,0.252 -0.537,0.348 -0.214,0.097 -0.448,0.189 -0.703,0.276 -0.255,0.087 -0.489,0.201 -0.702,0.343 -0.213,0.142 -0.392,0.32 -0.537,0.537 -0.145,0.215 -0.218,0.501 -0.218,0.855 0,0.277 0.053,0.533 0.16,0.768 0.106,0.236 0.261,0.437 0.465,0.605 0.203,0.167 0.451,0.298 0.745,0.391 0.294,0.094 0.628,0.14 1.002,0.14 0.233,0 0.454,-0.011 0.664,-0.033 0.21,-0.023 0.424,-0.057 0.644,-0.102 l 0,-1.578 -0.775,0 c -0.032,0.141 -0.056,0.28 -0.072,0.416 -0.016,0.135 -0.031,0.261 -0.044,0.377 -0.051,0.013 -0.12,0.025 -0.207,0.034 -0.086,0.01 -0.168,0.015 -0.245,0.015 -0.411,0 -0.718,-0.086 -0.92,-0.257 C -2.639,4.191 -2.74,3.97 -2.74,3.699 c 0,-0.219 0.072,-0.395 0.217,-0.528 0.144,-0.132 0.325,-0.247 0.54,-0.343 0.216,-0.097 0.449,-0.193 0.7,-0.286 0.251,-0.094 0.484,-0.21 0.7,-0.349 0.215,-0.139 0.395,-0.314 0.54,-0.527 C 0.102,1.452 0.174,1.175 0.174,0.833 0.174,0.529 0.116,0.252 0,0"
           style="fill:#393939;fill-opacity:1;fill-rule:nonzero;stroke:none"
           id="path9610"
           inkscape:connector-curvature="0" />
      </g>
      <g
         id="g9612"
         transform="translate(1705.0018,518.54856)">
        <path
           d="M 0,0 C -0.065,0.168 -0.119,0.332 -0.165,0.494 -0.21,0.655 -0.252,0.826 -0.29,1.007 l -0.02,0 C -0.342,0.839 -0.384,0.668 -0.436,0.494 -0.487,0.32 -0.546,0.145 -0.61,-0.029 l -0.707,-1.946 2.043,0 L 0,0 Z m 0.6,-4.474 0,0.639 c 0.11,0.026 0.229,0.049 0.359,0.068 0.129,0.02 0.255,0.036 0.377,0.048 l -0.339,0.92 -2.585,0 -0.329,-0.92 c 0.122,-0.012 0.248,-0.028 0.377,-0.048 0.13,-0.019 0.249,-0.042 0.359,-0.068 l 0,-0.639 -2.353,0 0,0.639 c 0.084,0.026 0.176,0.047 0.276,0.063 0.1,0.016 0.195,0.031 0.285,0.044 l 2.082,5.79 1.269,0 2.111,-5.79 c 0.09,-0.013 0.185,-0.028 0.285,-0.044 0.1,-0.016 0.192,-0.037 0.276,-0.063 l 0,-0.639 -2.45,0 z"
           style="fill:#393939;fill-opacity:1;fill-rule:nonzero;stroke:none"
           id="path9614"
           inkscape:connector-curvature="0" />
      </g>
    </g>
  </g>
</svg>
